<?xml version="1.0" encoding="utf-8"?>
<!-- Generator: Adobe Illustrator 16.0.0, SVG Export Plug-In . SVG Version: 6.00 Build 0)  -->
<!DOCTYPE svg PUBLIC "-//W3C//DTD SVG 1.1//EN" "http://www.w3.org/Graphics/SVG/1.1/DTD/svg11.dtd">
<svg version="1.1" id="Layer_5" xmlns="http://www.w3.org/2000/svg" xmlns:xlink="http://www.w3.org/1999/xlink" x="0px" y="0px"
	 width="512px" height="512px" viewBox="0 0 512 512" enable-background="new 0 0 512 512" xml:space="preserve">
<path fill="#FFFFFF" d="M480,360h-44c-2.21,0-4-1.792-4-4c0-0.872,0.278-1.704,0.8-2.4c14.968-19.942,23.2-44.664,23.2-69.6v-4
	c0-22.057-17.944-40-40-40c-8.824,0-16,7.176-16,16v13.8c0,19.921-7.762,38.64-21.842,52.728c-4.688,4.682-9.976,8.729-15.728,12.01
	L317.87,360H296v-16H151.848C161.936,330.607,168,314.023,168,296c0-44.112-35.89-80-80-80c-44.112,0-80,35.888-80,80
	c0,44.111,35.888,80,80,80c11.376,0,22.19-2.424,32-6.729V504h176v-16h22.464l40,16H480c13.23,0,24-10.768,24-24
	c0-6.168-2.408-11.744-6.24-16c3.84-4.256,6.24-9.832,6.24-16s-2.408-11.744-6.24-16c3.84-4.256,6.24-9.832,6.24-16
	s-2.408-11.744-6.24-16c3.84-4.256,6.24-9.832,6.24-16C504,370.768,493.232,360,480,360L480,360z M24,296c0-35.288,28.712-64,64-64
	s64,28.712,64,64c0,15.145-5.313,29.064-14.146,40.032c-6.336-7.888-14.368-14.104-23.446-18.224
	C122.68,310.473,128,299.896,128,288c0-22.057-17.944-40-40-40c-22.058,0-40,17.943-40,40c0,11.896,5.318,22.473,13.592,29.809
	c-9.08,4.127-17.112,10.344-23.448,18.225C29.312,325.064,24,311.145,24,296z M64,288c0-13.232,10.768-24,24-24
	c13.23,0,24,10.768,24,24s-10.77,24-24,24C74.768,312,64,301.232,64,288z M49.664,347.128C58.664,335.191,72.824,328,88,328
	s29.336,7.2,38.336,19.128C115.632,355.168,102.384,360,88,360S60.368,355.168,49.664,347.128z M136,360h112v128H136V360z M280,488
	h-16V360h16V488z M480,488H361.534l-40-16H296v-96h26.128l48.238-27.568c6.984-3.992,13.416-8.896,19.104-14.592
	C406.574,316.736,416,293.992,416,269.8V256c13.23,0,24,10.768,24,24v4c0,21.496-7.104,42.809-20.01,60.008
	c-2.575,3.44-3.99,7.696-3.99,11.992c0,11.023,8.976,20,20,20h44c4.406,0,8,3.592,8,8s-3.594,8-8,8h-40v16h40c4.406,0,8,3.592,8,8
	s-3.594,8-8,8h-40v16h40c4.406,0,8,3.592,8,8s-3.594,8-8,8h-40v16h40c4.406,0,8,3.592,8,8S484.406,488,480,488z"/>
<path fill="#FFFFFF" d="M424,224c44.11,0,80-35.888,80-80s-35.89-80-80-80c-44.112,0-80,35.888-80,80S379.888,224,424,224z
	 M385.662,195.128c9-11.936,23.16-19.128,38.338-19.128c15.176,0,29.336,7.2,38.336,19.128C451.632,203.168,438.384,208,424,208
	C409.615,208,396.366,203.168,385.662,195.128z M400,136c0-13.232,10.768-24,24-24c13.23,0,24,10.768,24,24s-10.77,24-24,24
	C410.768,160,400,149.232,400,136z M424,80c35.286,0,64,28.712,64,64c0,15.144-5.313,29.064-14.146,40.032
	c-6.336-7.888-14.368-14.104-23.448-18.224C458.68,158.472,464,147.896,464,136c0-22.056-17.944-40-40-40c-22.058,0-40,17.944-40,40
	c0,11.896,5.318,22.472,13.592,29.808c-9.08,4.128-17.112,10.344-23.448,18.224C365.312,173.064,360,159.144,360,144
	C360,108.712,388.712,80,424,80z"/>
<path fill="#FFFFFF" d="M216,232c61.76,0,112-50.24,112-112S277.76,8,216,8S104,58.24,104,120S154.24,232,216,232z M216,216
	c-26.96,0-51.328-11.216-68.784-29.176c3.744-12.248,10.512-22.944,19.416-31.312l12.528,50.112L216,178l36.84,27.632l12.528-50.112
	c8.896,8.368,15.662,19.064,19.416,31.312C267.328,204.784,242.96,216,216,216z M184,88c0-17.648,14.352-32,32-32
	c17.646,0,32,14.352,32,32s-14.354,32-32,32C198.352,120,184,105.648,184,88z M216,155.504L201.08,137.6
	c4.832-1.008,9.814-1.6,14.92-1.6c5.104,0,10.088,0.592,14.92,1.6L216,155.504z M247.168,143.096
	c1.448,0.688,2.872,1.408,4.264,2.192l-8.271,33.088l-15.624-11.72L247.168,143.096z M184.832,143.096l19.632,23.56l-15.624,11.72
	l-8.272-33.088C181.96,144.496,183.384,143.784,184.832,143.096z M216,24c52.936,0,96,43.064,96,96
	c0,19.272-5.762,37.192-15.576,52.248c-9.744-22.048-28.008-38.864-50.288-46.944C257.024,116.496,264,103.056,264,88
	c0-26.472-21.528-48-48-48c-26.474,0-48,21.528-48,48c0,15.056,6.976,28.496,17.854,37.304
	c-22.278,8.072-40.544,24.896-50.288,46.944C125.76,157.192,120,139.272,120,120C120,67.064,163.064,24,216,24L216,24z"/>
<path fill="#FFFFFF" d="M184,248h16v16h-16V248z"/>
<path fill="#FFFFFF" d="M216,248h128v16H216V248z"/>
<path fill="#FFFFFF" d="M184,280h160v16H184V280z"/>
<path fill="#FFFFFF" d="M184,312h144v16H184V312z"/>
<path fill="#FFFFFF" d="M152,456h16v16h-16V456z"/>
<path fill="#FFFFFF" d="M184,456h16v16h-16V456z"/>
<path fill="#FFFFFF" d="M216,456h16v16h-16V456z"/>
</svg>
