<?xml version="1.0" encoding="utf-8"?>
<!-- Generator: Adobe Illustrator 16.0.0, SVG Export Plug-In . SVG Version: 6.00 Build 0)  -->
<!DOCTYPE svg PUBLIC "-//W3C//DTD SVG 1.1//EN" "http://www.w3.org/Graphics/SVG/1.1/DTD/svg11.dtd">
<svg version="1.1" id="Layer_1" xmlns="http://www.w3.org/2000/svg" xmlns:xlink="http://www.w3.org/1999/xlink" x="0px" y="0px"
	 width="400px" height="400px" viewBox="0 0 400 400" enable-background="new 0 0 400 400" xml:space="preserve">
<g transform="translate(300,300)">
	<linearGradient id="SVGID_1_" gradientUnits="userSpaceOnUse" x1="-274.0835" y1="-99.9995" x2="74.084" y2="-99.9995">
		<stop  offset="0" style="stop-color:#7CB942"/>
		<stop  offset="1" style="stop-color:#FCB715"/>
	</linearGradient>
	<path fill="url(#SVGID_1_)" d="M59.214,11.718c-54.5,101.797-267.693,104.48-319.792,3.954
		c-52.24-100.527,56.616-303.979,163.213-305.25C9.232-290.991,113.571-89.938,59.214,11.718z"/>
</g>
<g transform="translate(300,300)">
	<linearGradient id="SVGID_2_" gradientUnits="userSpaceOnUse" x1="-264.188" y1="-97.0967" x2="86.208" y2="-97.0967">
		<stop  offset="0" style="stop-color:#FCB715"/>
		<stop  offset="1" style="stop-color:#F05023"/>
	</linearGradient>
	<path fill="url(#SVGID_2_)" d="M86.208-90.963c0,95.526-137.889,185.076-225.487,185.076c-87.599,0-124.909-89.55-124.909-185.076
		c0-95.528,37.311-197.343,124.909-197.343C-51.681-288.306,86.208-186.491,86.208-90.963z"/>
</g>
</svg>
