<?xml version="1.0" encoding="utf-8"?>
<!-- Generator: Adobe Illustrator 16.0.0, SVG Export Plug-In . SVG Version: 6.00 Build 0)  -->
<!DOCTYPE svg PUBLIC "-//W3C//DTD SVG 1.1//EN" "http://www.w3.org/Graphics/SVG/1.1/DTD/svg11.dtd">
<svg version="1.1" id="Capa_1" xmlns="http://www.w3.org/2000/svg" xmlns:xlink="http://www.w3.org/1999/xlink" x="0px" y="0px"
	 width="600px" height="600px" viewBox="0 0 600 600" enable-background="new 0 0 600 600" xml:space="preserve">
<path fill="#E6E9ED" d="M180.663,182.967v22.225c0,2.487-2.018,4.504-4.505,4.504h-11.785c-1.622,6.703-4.253,13.013-7.749,18.742
	l8.325,8.325c1.755,1.766,1.755,4.614,0,6.38l-15.714,15.713c-1.766,1.754-4.613,1.754-6.379,0l-8.325-8.325
	c-5.73,3.496-12.038,6.127-18.742,7.749v11.785c0,2.487-2.018,4.505-4.505,4.505H89.059c-2.486,0-4.505-2.018-4.505-4.505v-11.783
	c-6.703-1.622-13.011-4.254-18.741-7.749l-8.325,8.324c-1.766,1.754-4.613,1.754-6.38,0l-15.714-15.714
	c-1.754-1.766-1.754-4.614,0-6.379l8.325-8.325c-3.495-5.729-6.126-12.038-7.748-18.741H24.185c-2.486,0-4.504-2.019-4.504-4.506
	v-22.225c0-2.487,2.018-4.504,4.504-4.504h11.786c1.622-6.703,4.253-13.012,7.748-18.742l-8.325-8.325
	c-1.754-1.766-1.754-4.613,0-6.38l15.714-15.713c1.767-1.754,4.614-1.754,6.38,0l8.325,8.325c5.73-3.496,12.037-6.126,18.741-7.749
	v-11.785c0-2.487,2.019-4.505,4.505-4.505h22.226c2.487,0,4.505,2.018,4.505,4.505v11.785c6.703,1.622,13.012,4.253,18.742,7.749
	l8.325-8.325c1.766-1.754,4.613-1.754,6.379,0l15.714,15.713c1.755,1.767,1.755,4.614,0,6.38l-8.325,8.325
	c3.496,5.73,6.127,12.038,7.749,18.742h11.785C178.644,178.462,180.663,180.48,180.663,182.967z M135.012,194.08
	c0-19.246-15.595-34.841-34.84-34.841c-19.246,0-34.84,15.595-34.84,34.841s15.594,34.84,34.84,34.84
	C119.417,228.92,135.012,213.326,135.012,194.08z"/>
<path fill="#E6E9ED" d="M495.419,480.906v22.226c0,2.485-2.018,4.504-4.505,4.504h-11.785c-1.622,6.703-4.253,13.012-7.748,18.742
	l8.324,8.324c1.755,1.767,1.755,4.613,0,6.381l-15.713,15.713c-1.768,1.755-4.614,1.755-6.38,0l-8.325-8.324
	c-5.73,3.495-12.037,6.126-18.742,7.748v11.785c0,2.486-2.018,4.505-4.504,4.505h-22.225c-2.487,0-4.506-2.019-4.506-4.505v-11.785
	c-6.703-1.622-13.012-4.253-18.742-7.748l-8.324,8.324c-1.766,1.755-4.613,1.755-6.381,0l-15.713-15.713
	c-1.754-1.768-1.754-4.614,0-6.381l8.326-8.324c-3.496-5.73-6.127-12.037-7.75-18.742h-11.785c-2.486,0-4.504-2.019-4.504-4.504
	v-22.226c0-2.486,2.018-4.505,4.504-4.505h11.785c1.623-6.703,4.254-13.012,7.75-18.742l-8.326-8.324
	c-1.754-1.767-1.754-4.613,0-6.38l15.713-15.714c1.768-1.755,4.615-1.755,6.381,0l8.324,8.325c5.73-3.496,12.039-6.127,18.742-7.749
	v-11.785c0-2.486,2.019-4.505,4.506-4.505h22.226c2.486,0,4.505,2.019,4.505,4.505v11.785c6.703,1.622,13.01,4.253,18.741,7.749
	l8.325-8.325c1.766-1.755,4.612-1.755,6.38,0l15.714,15.714c1.754,1.767,1.754,4.613,0,6.38l-8.325,8.324
	c3.495,5.73,6.126,12.038,7.748,18.742h11.786C493.402,476.4,495.419,478.418,495.419,480.906z M449.768,492.018
	c0-19.246-15.594-34.84-34.84-34.84s-34.84,15.594-34.84,34.84s15.594,34.84,34.84,34.84S449.768,511.264,449.768,492.018z"/>
<path fill="#E6E9ED" d="M582.266,155.493h-16.734c-1.551,0-2.871-1.094-3.196-2.596c-3.928-18.2-11.088-35.188-20.854-50.336
	c-0.843-1.297-0.686-3.004,0.408-4.097l11.846-11.845c6.198-6.199,6.198-16.255,0-22.453L533.96,44.402
	c-6.199-6.198-16.242-6.198-22.44,0l-11.847,11.833c-1.094,1.094-2.8,1.262-4.097,0.421c-15.148-9.768-32.148-16.928-50.337-20.855
	c-1.515-0.325-2.596-1.646-2.596-3.196V15.871C442.645,7.101,435.531,0,426.762,0h-27.955c-8.771,0-15.883,7.101-15.883,15.87
	v16.734c0,1.549-1.082,2.871-2.595,3.196c-18.188,3.928-35.177,11.088-50.337,20.855c-1.297,0.842-3.003,0.673-4.098-0.421
	l-11.832-11.833c-6.199-6.198-16.254-6.198-22.454,0l-19.774,19.764c-6.199,6.198-6.199,16.254,0,22.453l11.846,11.845
	c1.093,1.093,1.249,2.799,0.42,4.097c-9.779,15.149-16.939,32.136-20.867,50.337c-0.324,1.501-1.646,2.595-3.195,2.595h-16.736
	c-8.757,0-15.869,7.111-15.869,15.869v27.969c0,8.77,7.112,15.869,15.869,15.869h16.736c1.549,0,2.871,1.094,3.195,2.606
	c3.604,16.663,9.924,32.329,18.465,46.493l5.442,9.37l46.697,42.769c14.164,8.542,29.818,14.861,46.492,18.453
	c1.516,0.336,2.595,1.658,2.595,3.195v16.734c0,8.771,7.112,15.883,15.884,15.883h27.954c8.771,0,15.882-7.111,15.882-15.883
	v-16.734c0-1.55,1.082-2.859,2.596-3.195c18.188-3.929,35.188-11.089,50.337-20.856c1.297-0.841,3.004-0.673,4.097,0.421
	l11.846,11.847c6.199,6.199,16.242,6.199,22.441,0l19.774-19.774c6.198-6.199,6.198-16.254,0-22.452l-11.847-11.834
	c-1.094-1.105-1.249-2.8-0.408-4.108c9.768-15.149,16.928-32.136,20.855-50.325c0.324-1.514,1.645-2.606,3.195-2.606h16.734
	c8.758,0,15.87-7.101,15.87-15.869v-27.968C598.137,162.604,591.026,155.493,582.266,155.493z M412.79,297.301
	c-19.56,0-37.927-5.01-53.931-13.828l23.68-23.679c29.218,12.963,64.634,7.484,88.588-16.472
	c22.193-22.192,28.529-54.218,19.042-82.044c-0.448-1.318-2.12-1.72-3.104-0.734l-17.69,17.69l-10.161-33.859
	c-0.249-0.829-0.896-1.479-1.727-1.727l-33.85-10.162l17.691-17.69c0.984-0.986,0.582-2.657-0.735-3.105
	c-27.827-9.487-59.864-3.15-82.057,19.042c-23.956,23.956-29.433,59.372-16.459,88.602l-24.665,24.676l-0.012-0.012
	c-10.705-17.374-16.801-37.89-16.572-59.843c0.629-60.446,49.895-109.896,110.34-110.751
	c62.564-0.886,113.576,49.569,113.576,111.943C524.744,247.18,474.612,297.301,412.79,297.301z"/>
<path fill="#003399" d="M358.861,283.473L154.233,488.102c12.964,29.217,7.485,64.633-16.471,88.601
	c-21.632,21.633-52.604,28.188-79.927,19.72c-2.304-0.716-3.054-3.594-1.349-5.3l46.845-46.854l-13.947-32.665l-31.789-13.07
	L10.74,545.385c-1.706,1.706-4.586,0.956-5.301-1.35c-8.467-27.32-1.9-58.295,19.731-79.926
	c23.955-23.967,59.371-29.433,88.601-16.471l203.642-203.631l24.665-24.676c-12.975-29.229-7.497-64.646,16.459-88.602
	c22.191-22.192,54.229-28.528,82.057-19.042c1.32,0.449,1.722,2.12,0.735,3.105l-17.69,17.689l-30.791,30.791l13.19,31.667
	l32.545,14.068l30.791-30.779l17.69-17.689c0.985-0.986,2.656-0.583,3.104,0.734c9.488,27.827,3.151,59.853-19.041,82.044
	c-23.956,23.956-59.372,29.434-88.588,16.472L358.861,283.473z"/>
<path fill="#032C6D" d="M41.78,481.102c23.956-23.967,59.372-29.433,88.601-16.471L334.023,261l24.664-24.676
	c-12.976-29.229-7.496-64.646,16.459-88.602c15.609-15.609,36.09-23.363,56.551-23.294l9.634-9.634
	c0.985-0.985,0.582-2.657-0.734-3.105c-27.827-9.486-59.864-3.15-82.058,19.042c-23.955,23.956-29.434,59.372-16.459,88.602
	l-24.664,24.676l-203.643,203.63c-29.229-12.963-64.646-7.496-88.601,16.471C3.54,485.74-3.027,516.715,5.441,544.035
	c0.714,2.305,3.595,3.055,5.301,1.35l7.736-7.736C18.407,517.189,26.169,496.713,41.78,481.102z"/>
<path fill="#E6E9ED" d="M457.487,142.647l-33.849-10.161l-30.791,30.791l13.19,30.791l32.545,14.945l30.791-30.779l-10.161-33.859
	C458.965,143.545,458.316,142.896,457.487,142.647z"/>
<path fill="#CACBCB" d="M440.35,161.511c3.881,3.893,3.881,10.187,0,14.08c-3.894,3.88-10.188,3.88-14.08,0
	c-3.881-3.894-3.881-10.188,0-14.08C430.161,157.631,436.456,157.631,440.35,161.511z"/>
</svg>
