<?xml version="1.0" encoding="utf-8"?>
<!-- Generator: Adobe Illustrator 16.0.0, SVG Export Plug-In . SVG Version: 6.00 Build 0)  -->
<!DOCTYPE svg PUBLIC "-//W3C//DTD SVG 1.1//EN" "http://www.w3.org/Graphics/SVG/1.1/DTD/svg11.dtd">
<svg version="1.1" id="Layer_1" xmlns="http://www.w3.org/2000/svg" xmlns:xlink="http://www.w3.org/1999/xlink" x="0px" y="0px"
	 width="512px" height="512px" viewBox="0 0 512 512" enable-background="new 0 0 512 512" xml:space="preserve">
<path fill="#FFFFFF" d="M260.848,31.195c-10.621,0-19.262,8.641-19.262,19.262c0,10.625,8.641,19.266,19.262,19.266
	s19.262-8.641,19.262-19.266C280.11,39.836,271.469,31.195,260.848,31.195z M260.848,54.516c-2.238,0-4.055-1.82-4.055-4.059
	c0-2.234,1.815-4.055,4.055-4.055s4.055,1.82,4.055,4.055C264.903,52.695,263.086,54.516,260.848,54.516z"/>
<path fill="#FFFFFF" d="M172.856,246.641c0.31,0,0.617-0.02,0.931-0.055c2.926-0.359,5.379-2.379,6.297-5.176l21.289-64.887
	c1.313-3.992-0.863-8.289-4.853-9.598c-3.996-1.313-8.289,0.863-9.598,4.855l-16.246,49.52l-8.621-13.688
	c-2.238-3.555-6.934-4.621-10.484-2.387c-3.555,2.238-4.62,6.934-2.383,10.488l17.234,27.375
	C167.824,245.316,170.266,246.641,172.856,246.641z"/>
<path fill="#FFFFFF" d="M223.551,219.266h139.91c4.202,0,7.604-3.402,7.604-7.602s-3.402-7.605-7.604-7.605h-139.91
	c-4.203,0-7.605,3.406-7.605,7.605C215.946,215.863,219.348,219.266,223.551,219.266z"/>
<path fill="#FFFFFF" d="M149.188,308.922l17.234,27.375c1.402,2.227,3.844,3.551,6.434,3.551c0.31,0,0.617-0.02,0.931-0.055
	c2.926-0.359,5.379-2.379,6.297-5.176l21.289-64.887c1.313-3.992-0.863-8.289-4.853-9.599c-3.996-1.313-8.289,0.863-9.598,4.854
	l-16.246,49.521l-8.621-13.688c-2.238-3.555-6.934-4.62-10.484-2.383C148.016,300.672,146.949,305.367,149.188,308.922z"/>
<path fill="#FFFFFF" d="M223.551,312.477h139.91c4.202,0,7.604-3.406,7.604-7.604c0-4.199-3.402-7.604-7.604-7.604h-139.91
	c-4.203,0-7.605,3.405-7.605,7.604C215.946,309.07,219.348,312.477,223.551,312.477z"/>
<path fill="#FFFFFF" d="M149.188,402.129l17.234,27.375c1.402,2.23,3.844,3.551,6.434,3.551c0.31,0,0.617-0.016,0.931-0.055
	c2.926-0.359,5.379-2.375,6.297-5.176l21.289-64.887c1.313-3.992-0.863-8.285-4.853-9.599c-3.996-1.309-8.289,0.867-9.598,4.854
	l-16.246,49.521l-8.621-13.688c-2.238-3.555-6.934-4.62-10.484-2.383C148.016,393.879,146.949,398.574,149.188,402.129z"/>
<path fill="#FFFFFF" d="M223.551,405.684h139.91c4.202,0,7.604-3.406,7.604-7.604c0-4.199-3.402-7.604-7.604-7.604h-139.91
	c-4.203,0-7.605,3.405-7.605,7.604C215.946,402.277,219.348,405.684,223.551,405.684z"/>
<path fill="#FFFFFF" d="M444.094,405.816c4.203,0,7.604-3.402,7.604-7.603V129.887c0-33.258-27.059-60.316-60.315-60.316h-32.168
	c-7.021-7.941-17.273-12.965-28.685-12.965h-12.848C317.559,25.371,292.11,0,260.848,0s-56.711,25.371-56.836,56.605H191.16
	c-11.406,0-21.66,5.023-28.681,12.965h-32.167C97.055,69.57,70,96.629,70,129.887v321.797C70,484.941,97.059,512,130.313,512h261.07
	c33.258,0,60.315-27.059,60.315-60.316V433.7c0-4.199-3.405-7.603-7.604-7.603s-7.603,3.402-7.603,7.603v17.983
	c0,24.875-20.237,45.109-45.108,45.109h-261.07c-24.871,0-45.104-20.234-45.104-45.109V129.887
	c0-24.875,20.233-45.109,45.104-45.109h23.931c-0.888,3.227-1.367,6.613-1.367,10.113v15.234h-22.563
	c-10.895,0-19.758,8.863-19.758,19.762v11.816c0,4.199,3.402,7.605,7.605,7.605c4.198,0,7.602-3.406,7.602-7.605v-11.816
	c0-2.512,2.043-4.555,4.551-4.555h24.478c5.022,15.289,19.426,26.359,36.371,26.359h139.37c16.949,0,31.353-11.07,36.375-26.359
	h24.478c2.512,0,4.555,2.043,4.555,4.555v321.797c0,2.513-2.043,4.556-4.555,4.556H130.317c-2.512,0-4.555-2.043-4.555-4.556
	V172.121c0-4.199-3.402-7.602-7.602-7.602c-4.2,0-7.605,3.402-7.605,7.602v279.563c0,10.898,8.863,19.763,19.762,19.763h261.066
	c10.897,0,19.762-8.863,19.762-19.763V129.887c0-10.897-8.863-19.762-19.762-19.762H368.82V94.891c0-3.5-0.483-6.887-1.366-10.113
	h23.93c24.875,0,45.108,20.234,45.108,45.109v268.328C436.491,402.414,439.895,405.816,444.094,405.816z M353.61,113.406
	c0,12.723-10.352,23.078-23.078,23.078H191.164c-12.728,0-23.078-10.355-23.078-23.078V94.891c0-12.727,10.352-23.078,23.078-23.078
	h21.004c2.215,0,4.315-0.965,5.762-2.641c1.445-1.68,2.086-3.902,1.758-6.094c-0.313-2.063-0.469-4.16-0.469-6.238
	c0-22.957,18.676-41.633,41.629-41.633c22.957,0,41.629,18.676,41.629,41.633c0,2.074-0.156,4.176-0.465,6.242
	c-0.328,2.191,0.313,4.414,1.758,6.09c1.445,1.68,3.547,2.641,5.762,2.641h21.005c12.727,0,23.077,10.355,23.077,23.078v18.516
	L353.61,113.406L353.61,113.406z"/>
</svg>
