<?xml version="1.0" encoding="utf-8"?>
<!-- Generator: Adobe Illustrator 16.0.0, SVG Export Plug-In . SVG Version: 6.00 Build 0)  -->
<!DOCTYPE svg PUBLIC "-//W3C//DTD SVG 1.1//EN" "http://www.w3.org/Graphics/SVG/1.1/DTD/svg11.dtd">
<svg version="1.1" id="Layer_1" xmlns="http://www.w3.org/2000/svg" xmlns:xlink="http://www.w3.org/1999/xlink" x="0px" y="0px"
	 width="600px" height="600px" viewBox="0 0 600 600" enable-background="new 0 0 600 600" xml:space="preserve">
<path opacity="0.3" fill="#243E90" enable-background="new    " d="M243.122,233.057c0,3.935,0,7.869,0,11.803
	c-0.659,2.636-0.563,5.359-1.444,8.019c-3.438,10.386-10.556,18.08-18.232,25.32c-9.745,9.189-20.89,16.654-31.347,24.965
	c-14.479,11.507-28.52,23.556-38.69,39.346c-8.332,12.936-13.583,27.115-15.413,42.301c-0.799,6.625-0.465,13.497-0.542,20.253
	c-0.156,13.884,3.56,27.276,4.244,41.004c0.654,13.101-0.228,26.065-3.01,38.969c-3.771,17.497-11.929,32.588-23.805,45.725
	c-5.552,6.141-12.231,11.054-19.21,15.539c-15.245,9.797-32.035,15.59-49.538,19.798c-12.223,2.938-24.57,4.105-37.076,4.195
	c-0.481,0.005-0.987-0.082-1.388,0.303c-2.557,0-5.114,0-7.671,0C0,399.072,0,227.551,0,56.028
	c3.541-3.785,8.358-5.379,12.912-7.352c4.887-2.118,10.138-2.828,15.413-3.27c4.721,0,9.441,0,14.163,0
	c13.361,1.021,25.5,5.901,37.243,11.93c11.038,5.667,21.325,12.564,31.25,19.967c12.359,9.218,24.114,19.179,35.606,29.464
	c10.318,9.235,20.429,18.7,30.139,28.553c15.298,15.526,30.341,31.325,43.404,48.837c7.527,10.092,14.405,20.646,19.015,32.451
	C241.205,221.875,242.864,227.317,243.122,233.057z"/>
</svg>
