<?xml version="1.0" encoding="utf-8"?>
<!-- Generator: Adobe Illustrator 16.0.0, SVG Export Plug-In . SVG Version: 6.00 Build 0)  -->
<!DOCTYPE svg PUBLIC "-//W3C//DTD SVG 1.1//EN" "http://www.w3.org/Graphics/SVG/1.1/DTD/svg11.dtd">
<svg version="1.1" id="Layer_1" xmlns="http://www.w3.org/2000/svg" xmlns:xlink="http://www.w3.org/1999/xlink" x="0px" y="0px"
	 width="600px" height="600px" viewBox="0 0 600 600" enable-background="new 0 0 600 600" xml:space="preserve">
<path opacity="0.3" fill="#7DB800" enable-background="new    " d="M0,66.384c7.02-2.21,13.805-5.048,20.651-7.721
	c6.153-2.402,12.293-4.825,18.562-6.931c5.604-1.882,11.224-3.68,16.964-5.082c7.35-1.795,14.771-3.153,22.319-3.849
	c3.604-0.333,7.238-0.326,10.806-0.74c5.146-0.597,10.231,0.012,15.319,0.188c5.875,0.205,11.729,1.029,17.567,1.885
	c9.436,1.381,18.708,3.475,27.865,6.049c9.021,2.536,17.833,5.725,26.504,9.29c7.518,3.089,14.854,6.563,22.026,10.367
	c8.48,4.499,16.695,9.44,24.596,14.923c6.841,4.748,13.452,9.777,19.832,15.119c2.376,1.991,4.644,4.111,6.936,6.201
	c1.827,1.666,3.665,3.325,5.413,5.074c11.325,11.329,21.527,23.58,30.174,37.088c7.618,11.904,14.001,24.429,19.047,37.649
	c3.57,9.356,6.565,18.874,8.456,28.704c1.048,5.445,1.742,10.951,2.33,16.48c0.813,7.645,0.67,15.29,0.574,22.933
	c-0.072,5.836-0.771,11.643-1.609,17.436c-0.962,6.641-2.181,13.218-3.852,19.714c-2.799,10.874-6.433,21.445-11.085,31.672
	c-5.253,11.552-11.354,22.62-18.603,33.043c-4.557,6.553-9.468,12.822-14.711,18.85c-4.355,5.008-8.934,9.789-13.751,14.319
	c-9.649,9.065-19.99,17.226-31.617,23.708c-13.11,7.309-27.002,12.501-41.587,15.844c-7.751,1.777-15.562,3.298-23.458,4.364
	c-7.991,1.08-15.933,2.517-23.909,3.695c-9.757,1.441-19.428,3.298-28.927,5.956c-7.314,2.045-14.437,4.634-21.403,7.685
	c-7.041,3.086-13.645,6.937-20.021,11.162c-5.066,3.358-9.9,7.058-14.438,11.139c-3.422,3.079-6.924,6.071-10.066,9.438
	c-6.96,7.453-13.146,15.468-18.019,24.483c-4.702,8.702-7.968,17.94-10.99,27.313c-2.554,7.92-4.609,15.999-7.542,23.799
	c-0.076,0.202-0.231,0.378-0.352,0.566C0,394.259,0,230.321,0,66.384z"/>
</svg>
