<svg height="512" viewBox="0 0 64 64" width="512" xmlns="http://www.w3.org/2000/svg"><g id="Server"><path d="m9 49h46v12h-46z" fill="#fee9ab"/><circle cx="31" cy="55" fill="#9cdd05" r="2"/><circle cx="23" cy="55" fill="#ff7956" r="2"/><circle cx="15" cy="55" fill="#ff3051" r="2"/><path d="m9 33h46v12h-46z" fill="#ff7956"/><circle cx="23" cy="39" fill="#ffde55" r="2"/><circle cx="15" cy="39" fill="#ff3051" r="2"/><path d="m49.54 13.34a9.993 9.993 0 0 1 -2.54 19.66h-30a10 10 0 0 1 -.83-19.96 11.984 11.984 0 0 1 22.15-4.14 7.988 7.988 0 0 1 11.22 4.44z" fill="#57a4ff"/><g fill="#006df0"><path d="m37.73 8.01a7.95 7.95 0 0 0 -3.41.89 11.97 11.97 0 0 0 -8.33-5.73 11.955 11.955 0 0 1 11.74 4.84z"/><path d="m57 23a10 10 0 0 1 -10 10h-4a9.993 9.993 0 0 0 2.54-19.66 8.008 8.008 0 0 0 -5.54-5.08 7.779 7.779 0 0 1 2-.26 8 8 0 0 1 7.54 5.34 9.991 9.991 0 0 1 7.46 9.66z"/><path d="m40 8.26a8.1 8.1 0 0 0 -1.68.64 10.548 10.548 0 0 0 -.59-.89 2.437 2.437 0 0 1 .27-.01 7.779 7.779 0 0 1 2 .26z"/></g><path d="m51 49h4v12h-4z" fill="#ffde55"/><path d="m51 33h4v12h-4z" fill="#ff6243"/><circle cx="31" cy="39" fill="#9cdd05" r="2"/><path d="m33 39a2 2 0 0 1 -3 1.73 2 2 0 0 0 0-3.46 2 2 0 0 1 3 1.73z" fill="#5eac24"/><path d="m33 55a2 2 0 0 1 -3 1.73 2 2 0 0 0 0-3.46 2 2 0 0 1 3 1.73z" fill="#5eac24"/><path d="m25 55a2 2 0 0 1 -3 1.73 2 2 0 0 0 0-3.46 2 2 0 0 1 3 1.73z" fill="#ff6243"/><path d="m17 55a2 2 0 0 1 -3 1.73 2 2 0 0 0 0-3.46 2 2 0 0 1 3 1.73z" fill="#cd2a00"/><path d="m25 39a2 2 0 0 1 -3 1.73 2 2 0 0 0 0-3.46 2 2 0 0 1 3 1.73z" fill="#ebbf00"/><path d="m17 39a2 2 0 0 1 -3 1.73 2 2 0 0 0 0-3.46 2 2 0 0 1 3 1.73z" fill="#cd2a00"/><path d="m15 36a3 3 0 1 0 3 3 3 3 0 0 0 -3-3zm0 4a1 1 0 1 1 1-1 1 1 0 0 1 -1 1z"/><path d="m23 36a3 3 0 1 0 3 3 3 3 0 0 0 -3-3zm0 4a1 1 0 1 1 1-1 1 1 0 0 1 -1 1z"/><path d="m31 36a3 3 0 1 0 3 3 3 3 0 0 0 -3-3zm0 4a1 1 0 1 1 1-1 1 1 0 0 1 -1 1z"/><path d="m55 32h-1.7a10.981 10.981 0 0 0 -3.016-19.487 8.981 8.981 0 0 0 -11.584-4.881 12.98 12.98 0 0 0 -23.364 4.5 10.985 10.985 0 0 0 -4.636 19.868h-1.7a1 1 0 0 0 -1 1v12a1 1 0 0 0 1 1h4v2h-4a1 1 0 0 0 -1 1v12a1 1 0 0 0 1 1h46a1 1 0 0 0 1-1v-12a1 1 0 0 0 -1-1h-4v-2h4a1 1 0 0 0 1-1v-12a1 1 0 0 0 -1-1zm-47-9a9.04 9.04 0 0 1 8.256-8.961 1 1 0 0 0 .9-.835 10.982 10.982 0 0 1 20.3-3.794 1 1 0 0 0 1.321.378 6.911 6.911 0 0 1 3.223-.788 7.007 7.007 0 0 1 6.593 4.67 1.006 1.006 0 0 0 .689.635 8.994 8.994 0 0 1 -2.282 17.695h-30a9.01 9.01 0 0 1 -9-9zm46 37h-44v-10h44zm-5-12h-34v-2h34zm5-4h-44v-10h44z"/><path d="m38 36h2v2h-2z"/><path d="m38 40h2v2h-2z"/><path d="m44 36h2v2h-2z"/><path d="m44 40h2v2h-2z"/><path d="m50 36h2v2h-2z"/><path d="m50 40h2v2h-2z"/><path d="m15 58a3 3 0 1 0 -3-3 3 3 0 0 0 3 3zm0-4a1 1 0 1 1 -1 1 1 1 0 0 1 1-1z"/><path d="m23 58a3 3 0 1 0 -3-3 3 3 0 0 0 3 3zm0-4a1 1 0 1 1 -1 1 1 1 0 0 1 1-1z"/><path d="m31 58a3 3 0 1 0 -3-3 3 3 0 0 0 3 3zm0-4a1 1 0 1 1 -1 1 1 1 0 0 1 1-1z"/><path d="m38 52h2v2h-2z"/><path d="m38 56h2v2h-2z"/><path d="m44 52h2v2h-2z"/><path d="m44 56h2v2h-2z"/><path d="m50 52h2v2h-2z"/><path d="m50 56h2v2h-2z"/><path d="m26.293 13.293-6 6a1 1 0 0 0 0 1.414l6 6 1.414-1.414-5.293-5.293 5.293-5.293z"/><path d="m35.707 13.293-1.414 1.414 5.293 5.293-5.293 5.293 1.414 1.414 6-6a1 1 0 0 0 0-1.414z"/><path d="m22.754 19h16.492v1.999h-16.492z" transform="matrix(.242 -.97 .97 .242 4.085 45.23)"/></g></svg>