<?xml version="1.0" encoding="utf-8"?>
<!-- Generator: Adobe Illustrator 16.0.0, SVG Export Plug-In . SVG Version: 6.00 Build 0)  -->
<!DOCTYPE svg PUBLIC "-//W3C//DTD SVG 1.1//EN" "http://www.w3.org/Graphics/SVG/1.1/DTD/svg11.dtd">
<svg version="1.1" id="Layer_1" xmlns="http://www.w3.org/2000/svg" xmlns:xlink="http://www.w3.org/1999/xlink" x="0px" y="0px"
	 width="600px" height="600px" viewBox="0 0 600 600" enable-background="new 0 0 600 600" xml:space="preserve">
<g opacity="0.3">
	<path fill="#F04F20" d="M601,86.66c0,157.105,0,314.212,0,471.313c-0.964,0.313-1.732-0.249-2.525-0.592
		c-13.044-5.623-24.847-13.146-35.386-22.711c-11.431-10.365-20.811-22.257-27.571-36.146c-5.159-10.599-8.422-21.782-10.112-33.437
		c-1.006-6.938-1.794-13.9-1.688-20.932c0.026-2.017-0.433-3.984-0.355-5.993c0.306-8.223,0.339-16.458,0.734-24.675
		c0.418-8.671,0.825-17.341,0.561-26.013c-0.357-11.849-1.784-23.535-6.596-34.55c-3.665-8.396-9.039-15.508-15.84-21.651
		c-12.273-11.092-27.022-16.396-43.019-19.119c-11.572-1.971-23.307-2.906-34.802-5.414c-12.812-2.797-24.308-8.121-34.211-16.851
		c-7.366-6.494-14.438-13.243-20.363-21.105c-7.753-10.291-13.313-21.69-17.044-34.007c-3.335-11.023-5.215-22.305-6.166-33.764
		c-0.566-6.873-0.945-13.751-0.969-20.65c-0.03-10.143,1.385-20.082,4.254-29.8c5.782-19.585,15.162-37.272,28.273-52.941
		c7.438-8.893,16.54-15.847,26.396-21.813c17.104-10.353,35.507-17.254,55.313-20.213c6.33-0.946,12.727-1.438,19.13-1.124
		c18.545,0.91,35.438,6.581,50.493,17.597c5.835,4.27,11.599,8.664,18.002,12.103c7.313,3.93,15.098,6.096,23.395,6.735
		c5.539,0.428,10.994,0.141,16.448-0.701c3.921-0.605,7.709-1.719,11.421-3.107C599.485,86.843,600.166,86.349,601,86.66z"/>
</g>
<circle opacity="0.3" fill="#F04F20" cx="464.25" cy="373.5" r="36.75"/>
</svg>
