<svg height="512" viewBox="0 0 64 64" width="512" xmlns="http://www.w3.org/2000/svg"><rect fill="#57a4ff" height="58" rx="4" width="36" x="14" y="3"/><path d="m14 26v31a4 4 0 0 0 4 4h27.4c-18.02-3.79-31.4-18.006-31.4-35z" fill="#2488ff"/><path d="m51 36v-8h-5.587a13.922 13.922 0 0 0 -1.1-2.66l3.946-3.947-5.656-5.656-3.943 3.946a13.922 13.922 0 0 0 -2.66-1.1v-5.583h-8v5.587a13.922 13.922 0 0 0 -2.66 1.1l-3.947-3.946-5.656 5.656 3.946 3.947a13.922 13.922 0 0 0 -1.1 2.66h-5.583v8h5.587a13.922 13.922 0 0 0 1.1 2.66l-3.946 3.947 5.656 5.656 3.947-3.946a13.922 13.922 0 0 0 2.66 1.1v5.579h8v-5.587a13.922 13.922 0 0 0 2.66-1.1l3.947 3.946 5.656-5.656-3.95-3.943a13.922 13.922 0 0 0 1.1-2.66z" fill="#ffcd00"/><path d="m21 7a2 2 0 0 0 2 2h18a2 2 0 0 0 2-2v-4h-22z" fill="#6d6e71"/><circle cx="32" cy="32" fill="#ff3051" r="8"/><path d="m32 45h-3v11a2.6 2.6 0 0 0 2.6 2.6h.8a2.6 2.6 0 0 0 2.6-2.6v-11z" fill="#9cdd05"/><path d="m33 28h-2l-1 7h2 2z" fill="#f1f2f2"/><path d="m46 62h-28a5.006 5.006 0 0 1 -5-5v-12h2v12a3 3 0 0 0 3 3h28a3 3 0 0 0 3-3v-12h2v12a5.006 5.006 0 0 1 -5 5z"/><path d="m46 2h-28a5.006 5.006 0 0 0 -5 5v12h2v-12a3 3 0 0 1 3-3h2v3a3 3 0 0 0 3 3h18a3 3 0 0 0 3-3v-3h2a3 3 0 0 1 3 3v12h2v-12a5.006 5.006 0 0 0 -5-5zm-4 5a1 1 0 0 1 -1 1h-18a1 1 0 0 1 -1-1v-3h20z"/><path d="m51 27h-4.856a14.924 14.924 0 0 0 -.612-1.468l3.435-3.432a1 1 0 0 0 0-1.414l-5.65-5.65a1 1 0 0 0 -.707-.293 1 1 0 0 0 -.707.294l-3.428 3.433a15.205 15.205 0 0 0 -1.475-.614v-4.856a1 1 0 0 0 -1-1h-8a1 1 0 0 0 -1 1v4.856a15.043 15.043 0 0 0 -1.474.614l-3.426-3.436a1 1 0 0 0 -.707-.294 1 1 0 0 0 -.707.293l-5.65 5.65a1 1 0 0 0 0 1.414l3.435 3.435a14.924 14.924 0 0 0 -.615 1.468h-4.856a1 1 0 0 0 -1 1v8a1 1 0 0 0 1 1h4.856a15.043 15.043 0 0 0 .614 1.474l-3.436 3.426a1 1 0 0 0 0 1.415l5.65 5.65a1 1 0 0 0 1.414 0l3.95-3.95a1 1 0 0 0 -1.415-1.415l-3.243 3.246-4.235-4.235 3.245-3.233a1.024 1.024 0 0 0 .294-.718.994.994 0 0 0 -.123-.48 12.858 12.858 0 0 1 -1.029-2.468 1 1 0 0 0 -.962-.712h-4.58v-6h4.58a1 1 0 0 0 .958-.712 12.858 12.858 0 0 1 1.029-2.468 1 1 0 0 0 -.17-1.187l-3.243-3.243 4.235-4.235 3.233 3.245a1.033 1.033 0 0 0 1.2.171 12.858 12.858 0 0 1 2.468-1.029 1 1 0 0 0 .71-.962v-4.58h6v4.58a1 1 0 0 0 .712.958 12.842 12.842 0 0 1 2.468 1.029 1.034 1.034 0 0 0 1.2-.171l3.233-3.241 4.235 4.235-3.248 3.243a1 1 0 0 0 -.17 1.187 13.047 13.047 0 0 1 1.03 2.469 1 1 0 0 0 .96.711h4.58v6h-4.58a1 1 0 0 0 -.957.711 13.047 13.047 0 0 1 -1.03 2.469 1.032 1.032 0 0 0 -.123.49 1 1 0 0 0 .294.708l3.241 3.233-4.235 4.235-3.243-3.246a1 1 0 1 0 -1.414 1.414l3.95 3.95a1 1 0 0 0 1.414 0l5.65-5.65a1 1 0 0 0 0-1.415l-3.437-3.428a14.947 14.947 0 0 0 .614-1.471h4.856a1 1 0 0 0 1-1v-8a1 1 0 0 0 -1-1z"/><path d="m35 44h-2v-3.059a9 9 0 1 0 -2 0v3.059h-2a1 1 0 0 0 -1 1v11a3.6 3.6 0 0 0 3.6 3.6h.8a3.6 3.6 0 0 0 3.6-3.6v-11a1 1 0 0 0 -1-1zm-3.847-10 .714-5h.266l.714 5zm-6.153-2a7 7 0 1 1 8 6.92v-2.92h1a1 1 0 0 0 .99-1.142l-1-7a1 1 0 0 0 -.99-.858h-2a1 1 0 0 0 -.99.858l-1 7a1 1 0 0 0 .99 1.142h1v2.92a7 7 0 0 1 -6-6.92zm9 24a1.6 1.6 0 0 1 -1.6 1.6h-.8a1.6 1.6 0 0 1 -1.6-1.6v-10h4z"/><path d="m31 48v8a1 1 0 0 0 2 0v-8a1 1 0 0 0 -2 0z"/></svg>