<?xml version="1.0" encoding="iso-8859-1"?>
<!-- Generator: Adobe Illustrator 19.0.0, SVG Export Plug-In . SVG Version: 6.00 Build 0)  -->
<svg version="1.1" id="Layer_1" xmlns="http://www.w3.org/2000/svg" xmlns:xlink="http://www.w3.org/1999/xlink" x="0px" y="0px"
	 viewBox="0 0 481.882 481.882" style="enable-background:new 0 0 481.882 481.882;" xml:space="preserve">
<polygon style="fill:#F6C358;" points="157.816,189.139 157.816,292.744 240.941,326.475 240.941,223.473 "/>
<polygon style="fill:#DC8744;" points="240.941,223.473 240.941,223.473 240.941,326.475 240.941,326.475 324.066,292.744 
	324.066,189.139 "/>
<polygon style="fill:#FCD462;" points="240.941,223.473 324.066,189.139 240.941,155.407 157.816,189.139 "/>
<g>
	<path style="fill:#3A556A;" d="M240.941,369.845v-13.252c5.421,0,10.842-0.602,16.264-1.205l1.807,13.252
		C253.591,369.242,246.965,369.845,240.941,369.845z M222.871,368.64c-6.024-0.602-12.047-2.409-18.071-3.614l3.614-12.649
		c5.421,1.807,10.842,2.409,16.264,3.614L222.871,368.64z M277.685,364.424l-4.216-12.047c5.421-1.807,10.24-3.614,15.661-6.024
		l5.421,12.047C289.129,360.809,283.106,363.219,277.685,364.424z M187.332,358.4c-5.421-2.409-10.842-5.421-16.264-9.035
		l7.228-10.842c4.819,3.012,9.638,5.421,14.456,7.831L187.332,358.4z M310.814,349.365l-7.228-10.842
		c4.819-3.012,9.035-6.024,13.252-9.638l8.433,9.638C321.054,342.136,315.633,346.353,310.814,349.365z M156.612,338.522
		c-4.819-4.216-9.035-8.433-13.252-13.252l9.638-8.433c3.614,4.216,7.831,7.831,11.445,11.445L156.612,338.522z M338.522,325.271
		l-10.24-8.433c3.614-4.216,7.228-8.433,9.638-13.252l10.842,7.228C346.353,315.633,342.739,321.054,338.522,325.271z
		 M132.518,310.814c-3.614-5.421-6.024-10.842-9.035-16.264l12.047-5.421c2.409,4.819,4.819,9.638,7.831,14.456L132.518,310.814z
		 M358.4,294.551l-12.047-5.421c2.409-4.819,4.216-10.24,6.024-15.661l12.649,3.614C363.219,283.106,360.809,289.129,358.4,294.551z
		 M117.459,277.685c-1.807-6.024-3.012-12.047-4.216-18.071l13.252-1.807c0.602,5.421,1.807,10.842,3.614,16.264L117.459,277.685z
		 M368.64,259.012l-13.252-1.807c0.602-5.421,1.205-10.842,1.205-16.264l10.24-0.602h3.012
		C369.845,246.965,369.242,252.988,368.64,259.012z M112.038,240.941L112.038,240.941c0-6.024,0.602-12.649,1.205-18.071
		l13.252,1.807c-0.602,5.421-1.205,10.842-1.205,16.264H112.038z M355.388,224.075c-0.602-5.421-1.807-10.842-3.614-16.264
		l12.649-3.614c1.807,6.024,3.012,12.047,4.216,18.071L355.388,224.075z M129.506,208.414l-12.649-3.614
		c1.807-6.024,3.614-11.445,6.626-17.468l12.047,5.421C133.12,198.174,131.313,202.993,129.506,208.414z M346.353,192.151
		c-2.409-4.819-4.819-9.638-7.831-14.456l10.842-7.228c3.614,5.421,6.626,10.842,9.035,16.264L346.353,192.151z M143.36,178.296
		l-10.842-6.626c3.012-5.421,7.228-10.24,10.842-14.456l10.24,8.433C149.384,169.261,146.372,174.08,143.36,178.296z
		 M328.282,165.045c-3.614-4.216-7.831-7.831-11.445-11.445l8.433-10.24c4.819,4.216,9.035,8.433,13.252,13.252L328.282,165.045z
		 M165.045,153.6l-8.433-9.638c4.819-4.216,9.638-7.831,14.456-10.842l7.228,10.842C173.478,146.372,169.261,149.986,165.045,153.6z
		 M302.984,143.36c-4.819-3.012-9.638-5.421-14.456-7.831l5.421-12.047c5.421,2.409,10.842,5.421,16.264,9.035L302.984,143.36z
		 M192.753,135.529l-5.421-12.047c5.421-2.409,11.445-4.819,17.468-6.626l3.614,12.649
		C202.993,131.313,197.572,133.12,192.753,135.529z M273.468,129.506c-5.421-1.807-10.842-2.409-16.264-3.614l1.807-13.252
		c6.024,0.602,12.047,2.409,18.071,3.614L273.468,129.506z M224.075,126.494l-1.807-13.252c6.024-0.602,12.047-1.205,18.071-1.205
		v13.252C234.918,125.289,229.496,125.289,224.075,126.494z"/>
	<polygon style="fill:#3A556A;" points="283.106,42.165 240.941,0 198.776,42.165 207.812,51.802 234.315,25.299 234.315,88.546 
		247.567,88.546 247.567,25.299 274.071,51.802 	"/>
	<polygon style="fill:#3A556A;" points="198.776,439.718 240.941,481.882 283.106,439.718 274.071,430.08 247.567,456.584 
		247.567,393.336 234.315,393.336 234.315,456.584 207.812,430.08 	"/>
	<polygon style="fill:#3A556A;" points="439.718,283.106 481.882,240.941 439.718,198.776 430.08,207.812 456.584,234.315 
		393.336,234.315 393.336,247.567 456.584,247.567 430.08,274.071 	"/>
	<polygon style="fill:#3A556A;" points="42.165,198.776 0,240.941 42.165,283.106 51.802,274.071 25.299,247.567 88.546,247.567 
		88.546,234.315 25.299,234.315 51.802,207.812 	"/>
	<polygon style="fill:#3A556A;" points="411.407,130.108 411.407,70.475 351.774,70.475 351.774,83.727 389.12,83.727 
		343.944,128.301 353.581,137.939 398.155,92.762 398.155,130.108 	"/>
	<polygon style="fill:#3A556A;" points="70.475,351.774 70.475,411.407 130.108,411.407 130.108,398.155 92.762,398.155 
		137.939,353.581 128.301,343.944 83.727,389.12 83.727,351.774 	"/>
	<polygon style="fill:#3A556A;" points="351.774,411.407 411.407,411.407 411.407,351.774 398.155,351.774 398.155,389.12 
		353.581,343.944 343.944,353.581 389.12,398.155 351.774,398.155 	"/>
	<polygon style="fill:#3A556A;" points="130.108,70.475 70.475,70.475 70.475,130.108 83.727,130.108 83.727,92.762 
		128.301,137.939 137.939,128.301 92.762,83.727 130.108,83.727 	"/>
</g>
<g>
</g>
<g>
</g>
<g>
</g>
<g>
</g>
<g>
</g>
<g>
</g>
<g>
</g>
<g>
</g>
<g>
</g>
<g>
</g>
<g>
</g>
<g>
</g>
<g>
</g>
<g>
</g>
<g>
</g>
</svg>
