<?xml version="1.0" encoding="utf-8"?>
<!-- Generator: Adobe Illustrator 16.0.0, SVG Export Plug-In . SVG Version: 6.00 Build 0)  -->
<!DOCTYPE svg PUBLIC "-//W3C//DTD SVG 1.1//EN" "http://www.w3.org/Graphics/SVG/1.1/DTD/svg11.dtd">
<svg version="1.1" id="Layer_35" xmlns="http://www.w3.org/2000/svg" xmlns:xlink="http://www.w3.org/1999/xlink" x="0px" y="0px"
	 width="512px" height="512px" viewBox="0 0 512 512" enable-background="new 0 0 512 512" xml:space="preserve">
<path fill="#E6E9ED" d="M279.68,64H176c-17.682,0-32,14.32-32,32v64v80H80c-35.36,0-64-28.64-64-64s28.64-64,64-64
	c2.88,0,5.6,0.24,8.398,0.64C92.16,58.64,137.04,16,192,16C228.8,16,261.2,35.12,279.68,64z"/>
<path fill="#FDB800" d="M336,64h-56.32H176c-17.682,0-32,14.32-32,32v64v80v16v96l0.479,0.24C155.44,333.04,176.24,320,200,320
	c10.24,0,19.84,2.4,28.398,6.641l0.16-0.24C246.16,294,280.48,272,320,272c17.358,0,33.68,4.24,48,11.68V256v-64v-32v-16V96
	C368,78.32,353.68,64,336,64z"/>
<path fill="#E6E9ED" d="M137.84,368.721c1.438-5.841,3.68-11.441,6.64-16.479C155.44,333.04,176.24,320,200,320
	c10.24,0,19.84,2.4,28.398,6.641l0.16-0.24C246.16,294,280.48,272,320,272c17.358,0,33.68,4.24,48,11.68
	c21.52,11.28,38.64,29.84,48,52.48c4.158,10.08,6.8,21.04,7.6,32.48c2.8-0.4,5.52-0.642,8.4-0.642c19.118,0,36.318,8.399,48,21.681
	c9.92,11.279,16,26.079,16,42.319c0,35.36-28.642,64-64,64H128c-35.36,0-64-28.64-64-64c0-35.358,28.64-64,64-64
	C131.36,368,134.64,368.24,137.84,368.721L137.84,368.721z"/>
<g>
	<circle fill="#7DB800" cx="480" cy="288" r="16"/>
	<circle fill="#7DB800" cx="464" cy="32" r="16"/>
	<circle fill="#7DB800" cx="416" cy="96" r="16"/>
	<circle fill="#7DB800" cx="416" cy="240" r="16"/>
</g>
<circle fill="#F04F20" cx="320" cy="208" r="16"/>
<circle fill="#F04F20" cx="192" cy="112" r="16"/>
<circle fill="#F04F20" cx="192" cy="304" r="16"/>
<circle fill="#7DB800" cx="96" cy="328" r="16"/>
<circle fill="#7DB800" cx="32" cy="368" r="16"/>
<path d="M168,112c0,13.232,10.768,24,24,24c13.23,0,24-10.768,24-24s-10.77-24-24-24C178.768,88,168,98.768,168,112z M192,104
	c4.408,0,8,3.592,8,8s-3.592,8-8,8s-8-3.592-8-8S187.592,104,192,104z"/>
<path d="M328,88h16v48h-16V88z"/>
<path d="M296,88h16v48h-16V88z"/>
<path d="M320,184c-13.232,0-24,10.768-24,24s10.768,24,24,24c13.23,0,24-10.768,24-24S333.232,184,320,184z M320,216
	c-4.408,0-8-3.592-8-8s3.592-8,8-8c4.406,0,8,3.592,8,8S324.406,216,320,216z"/>
<path d="M168,184h16v48h-16V184z"/>
<path d="M200,184h16v48h-16V184z"/>
<path fill="#003399" d="M40,345.473V256H24v89.473C14.712,348.784,8,357.584,8,368c0,13.232,10.768,24,24,24
	c13.23,0,24-10.768,24-24C56,357.584,49.288,348.784,40,345.473z M32,376c-4.408,0-8-3.592-8-8s3.592-8,8-8s8,3.592,8,8
	S36.408,376,32,376z"/>
<path fill="#003399" d="M88,264v41.473c-9.288,3.313-16,12.111-16,22.527c0,13.232,10.768,24,24,24c13.23,0,24-10.768,24-24
	c0-10.416-6.712-19.216-16-22.527V264H88z M96,336c-4.408,0-8-3.592-8-8s3.592-8,8-8s8,3.592,8,8S100.408,336,96,336z"/>
<path fill="#003399" d="M488,310.527c9.286-3.313,16-12.111,16-22.527c0-13.232-10.77-24-24-24c-13.232,0-24,10.768-24,24
	c0,10.416,6.712,19.216,16,22.527v61.647C460.552,364.496,446.79,360,432,360c-0.416,0-0.832,0-1.258,0.008
	c-1.248-8.712-3.606-17.04-6.742-24.968v-72.513c9.286-3.313,16-12.111,16-22.527c0-13.232-10.77-24-24-24
	c-13.232,0-24,10.768-24,24c0,10.416,6.712,19.216,16,22.527v44.568c-8.802-11.207-19.664-20.688-32-27.881V200h72
	c13.23,0,24-10.768,24-24V54.528c9.286-3.312,16-12.112,16-22.528c0-13.232-10.77-24-24-24c-13.232,0-24,10.768-24,24
	c0,10.416,6.712,19.216,16,22.528V176c0,4.408-3.594,8-8,8h-72v-32h24c13.23,0,24-10.768,24-24v-9.472
	c9.286-3.312,16-12.112,16-22.528c0-13.232-10.77-24-24-24c-13.232,0-24,10.768-24,24c0,10.416,6.712,19.216,16,22.528V128
	c0,4.408-3.594,8-8,8h-24V96c0-22.056-17.944-40-40-40h-52.313C262.696,25.944,228.84,8,192,8C136.24,8,89.072,49.56,81.256,104.008
	C80.832,104,80.416,104,80,104c-39.696,0-72,32.304-72,72s32.304,72,72,72h56v103.016c-1.514,2.944-2.84,6.008-3.952,9.192
	c-1.344-0.08-2.68-0.208-4.048-0.208c-39.696,0-72,32.305-72,72c0,39.696,32.304,72,72,72h304c39.694,0,72-32.304,72-72
	c0-17.088-6.018-32.792-16-45.152V310.527z M416,232c4.406,0,8,3.592,8,8s-3.594,8-8,8c-4.408,0-8-3.592-8-8S411.592,232,416,232z
	 M464,24c4.406,0,8,3.592,8,8s-3.594,8-8,8c-4.408,0-8-3.592-8-8S459.592,24,464,24z M416,88c4.406,0,8,3.592,8,8s-3.594,8-8,8
	c-4.408,0-8-3.592-8-8S411.592,88,416,88z M480,280c4.406,0,8,3.592,8,8s-3.594,8-8,8c-4.408,0-8-3.592-8-8S475.592,280,480,280z
	 M320,264c-38.77,0-74.521,19.992-94.944,52.592c-3.552-1.32-7.2-2.432-10.984-3.184c1.24-2.896,1.93-6.072,1.93-9.408
	c0-13.232-10.77-24-24-24c-13.232,0-24,10.768-24,24c0,5.04,1.576,9.712,4.24,13.576c-7.44,3.096-14.28,7.4-20.24,12.729V264H320h40
	v7.464C347.534,266.648,334.038,264,320,264z M184,304c0-4.408,3.592-8,8-8s8,3.592,8,8s-3.592,8-8,8S184,308.408,184,304z M152,168
	h208v80H152V168z M360,96v56H152V96c0-13.232,10.768-24,24-24h160C349.232,72,360,82.768,360,96z M80,232c-30.88,0-56-25.12-56-56
	s25.12-56,56-56c2.176,0,4.504,0.168,7.336,0.544l8.416,1.096l0.6-8.472C99.88,63.168,141.888,24,192,24
	c27.64,0,53.312,11.808,71.376,32H176c-22.058,0-40,17.944-40,40v136H80z M432,488H128c-30.88,0-56-25.12-56-56s25.12-56,56-56
	s56,25.12,56,56h16c0-32.688-21.92-60.313-51.81-69.064C156.64,342.048,176.864,328,200,328c30.88,0,56,25.12,56,56h16
	c0-25.08-12.904-47.176-32.408-60.072C257.224,296.744,287.28,280,320,280c50.11,0,92.118,39.168,95.646,89.168l0.6,8.473
	l8.416-1.097c2.832-0.376,5.16-0.544,7.338-0.544c30.88,0,56,25.12,56,56S462.88,488,432,488z"/>
<path fill="#003399" d="M320,296v16c35.286,0,64,28.712,64,64h16C400,331.889,364.112,296,320,296z"/>
<path fill="#003399" d="M104,432c0-13.232,10.768-24,24-24v-16c-22.058,0-40,17.943-40,40c0,22.056,17.942,40,40,40h112v-16H128
	C114.768,456,104,445.232,104,432z"/>
<path fill="#003399" d="M256,456h16v16h-16V456z"/>
<path fill="#003399" d="M288,456h16v16h-16V456z"/>
<path fill="#003399" d="M440,400v16c8.822,0,16,7.176,16,16h16C472,414.352,457.648,400,440,400z"/>
<path fill="#003399" d="M56,176H40c0,22.056,17.942,40,40,40h8v-16h-8C66.768,200,56,189.232,56,176z"/>
<path fill="#003399" d="M104,200h16v16h-16V200z"/>
</svg>
