<svg height="512pt" viewBox="0 0 512 512" width="512pt" xmlns="http://www.w3.org/2000/svg"><path d="m336.128906 512h-325.722656c-5.746094 0-10.40625-4.660156-10.40625-10.40625v-43.707031c0-5.746094 4.660156-10.40625 10.40625-10.40625h325.722656zm0 0" fill="#ff933b"/><path d="m313.234375 447.480469c-4.703125 10.484375-7.28125 22.027343-7.28125 34.007812v.332031c0 4.597657-3.726563 8.324219-8.324219 8.324219h-297.628906v11.449219c0 5.746094 4.660156 10.40625 10.40625 10.40625h325.722656v-64.519531zm0 0" fill="#f27d27"/><path d="m463.089844 356.941406c0-24.136718-19.570313-43.707031-43.707032-43.707031-24.140624 0-43.707031 19.570313-43.707031 43.707031v20.816406c0 24.136719 19.566407 43.707032 43.707031 43.707032 24.136719 0 43.707032-19.570313 43.707032-43.707032zm0 0" fill="#feccc1"/><path d="m419.382812 313.234375c-3.03125 0-5.988281.3125-8.847656.898437 19.898438 4.089844 34.863282 21.703126 34.863282 42.808594v20.816406c0 21.105469-14.964844 38.71875-34.863282 42.808594 2.859375.585938 5.816406.898438 8.847656.898438 24.136719 0 43.707032-19.570313 43.707032-43.707032v-20.816406c0-24.136718-19.570313-43.707031-43.707032-43.707031zm0 0" fill="#f9b3a7"/><path d="m512 501.59375v-20.105469c0-26.589843-16.839844-50.261719-41.957031-58.984375l-22.285157-7.734375c-7.074218-2.457031-14.507812-3.710937-21.996093-3.710937h-12.757813c-7.488281 0-14.925781 1.253906-21.996094 3.710937l-22.285156 7.734375c-25.117187 8.722656-41.957031 32.394532-41.957031 58.984375v30.511719h174.828125c5.746094 0 10.40625-4.660156 10.40625-10.40625zm0 0" fill="#636363"/><path d="m470.042969 422.503906-5.835938-2.027344c15.386719 11.582032 24.898438 29.914063 24.898438 49.898438v41.625h12.488281c5.746094 0 10.40625-4.660156 10.40625-10.40625v-20.105469c0-26.589843-16.839844-50.261719-41.957031-58.984375zm0 0" fill="#494949"/><path d="m225.488281 357.984375-15.277343-5.304687v.101562l-35.382813 61.398438-35.382813-61.398438-.011718-.097656-15.265625 5.300781c-25.117188 8.722656-41.957031 32.394531-41.957031 58.984375v30.511719h185.234374v-30.511719c0-26.589844-16.835937-50.261719-41.957031-58.984375zm0 0" fill="#636363"/><path d="m225.488281 357.984375-5.835937-2.027344c15.386718 11.582031 24.902344 29.914063 24.902344 49.898438v41.625h22.890624v-30.511719c0-26.589844-16.835937-50.261719-41.957031-58.984375zm0 0" fill="#494949"/><path d="m139.445312 352.78125 35.382813 61.398438 35.382813-61.398438v-.101562l-17.691407-6.144532h-35.382812l-17.703125 6.148438zm0 0" fill="#ddf5ff"/><path d="m218.535156 292.421875c0-24.136719-19.566406-43.707031-43.707031-43.707031-24.136719 0-43.707031 19.570312-43.707031 43.707031v20.8125c0 24.140625 19.570312 43.707031 43.707031 43.707031 24.140625 0 43.707031-19.566406 43.707031-43.707031zm0 0" fill="#feccc1"/><path d="m174.828125 248.714844c-3.027344 0-5.988281.308594-8.84375.894531 19.898437 4.089844 34.859375 21.703125 34.859375 42.8125v20.8125c0 21.109375-14.960938 38.722656-34.859375 42.8125 2.855469.585937 5.8125.894531 8.84375.894531 24.140625 0 43.707031-19.566406 43.707031-43.707031v-20.8125c0-24.136719-19.566406-43.707031-43.707031-43.707031zm0 0" fill="#f9b3a7"/><path d="m264.324219 0h-222.699219c-22.988281 0-41.625 18.636719-41.625 41.625v108.230469c0 22.988281 18.636719 41.625 41.625 41.625h22.894531l37.820313 37.820312c5.246094 5.246094 14.214844 1.53125 14.214844-5.886719v-31.933593h147.769531c22.988281 0 41.625-18.636719 41.625-41.625v-108.230469c0-22.988281-18.632813-41.625-41.625-41.625zm0 0" fill="#8db0ff"/><path d="m264.324219 0h-222.699219c-22.988281 0-41.625 18.636719-41.625 41.625v108.230469c0 22.988281 18.636719 41.625 41.625 41.625h22.894531l37.820313 37.820312c5.246094 5.246094 14.214844 1.53125 14.214844-5.886719v-31.933593h147.769531c22.988281 0 41.625-18.636719 41.625-41.625v-108.230469c0-22.988281-18.632813-41.625-41.625-41.625zm0 0" fill="#8db0ff"/><path d="m41.625 170.667969c-22.988281 0-41.625-18.636719-41.625-41.628907v20.816407c0 22.988281 18.636719 41.625 41.625 41.625h22.894531l37.820313 37.820312c5.246094 5.246094 14.214844 1.53125 14.214844-5.886719v-.714843l-45.9375-45.9375c-3.902344-3.902344-9.199219-6.09375-14.71875-6.09375zm0 0" fill="#669af7"/><path d="m264.324219 0h-26.015625c14.8125 0 27.8125 7.734375 35.191406 19.386719 4.390625 6.9375-.578125 15.996093-8.785156 15.996093h-17.039063c-34.484375 0-62.441406 27.953126-62.441406 62.4375v62.441407c0 5.746093-4.65625 10.40625-10.40625 10.40625h-37.460937c-11.496094 0-20.8125 9.316406-20.8125 20.8125h147.769531c22.988281 0 41.625-18.636719 41.625-41.625v-108.230469c0-22.988281-18.632813-41.625-41.625-41.625zm0 0" fill="#669af7"/><path d="m247.675781 56.195312h222.699219c22.988281 0 41.625 18.636719 41.625 41.625v108.230469c0 22.988281-18.636719 41.625-41.625 41.625h-107.1875v31.933594c0 7.417969-8.96875 11.128906-14.210938 5.886719l-37.820312-37.820313h-63.480469c-22.988281 0-41.625-18.636719-41.625-41.625v-108.230469c0-22.988281 18.632813-41.625 41.625-41.625zm0 0" fill="#ffd664"/><g fill="#f9c646"><path d="m247.675781 224.78125c-22.988281 0-41.625-18.636719-41.625-41.628906v22.894531c0 22.988281 18.636719 41.628906 41.625 41.628906h63.480469l37.820312 37.820313c5.242188 5.242187 14.210938 1.527344 14.210938-5.886719v-2.796875l-45.9375-45.9375c-3.902344-3.902344-9.195312-6.09375-14.71875-6.09375zm0 0"/><path d="m470.375 56.195312h-26.015625c22.988281 0 41.625 18.636719 41.625 41.625v106.148438c0 11.492188-9.320313 20.8125-20.8125 20.8125h-81.171875c-11.496094 0-20.8125 9.316406-20.8125 20.8125v2.082031h107.1875c22.988281 0 41.625-18.640625 41.625-41.628906v-108.226563c0-22.988281-18.636719-41.625-41.625-41.625zm0 0"/></g></svg>