<svg height="512" viewBox="0 0 64 64" width="512" xmlns="http://www.w3.org/2000/svg"><path d="m59 5v54a2.006 2.006 0 0 1 -2 2h-36v-58h36a2.006 2.006 0 0 1 2 2z" fill="#e6e7e8"/><path d="m31 36.77a2.965 2.965 0 0 0 -2-.77v-5a2.015 2.015 0 0 1 2 2z" fill="#d1d3d4"/><path d="m34 41a3 3 0 0 1 -3 3v5a2 2 0 0 1 -4 0 2.006 2.006 0 0 0 2-2v-5a3 3 0 0 0 3-3 3.1 3.1 0 0 0 -.13-.87 2.982 2.982 0 0 1 2.13 2.87z" fill="#d1d3d4"/><path d="m13 3h8v58h-8z" fill="#3d9ae2"/><path d="m21 45.4v1.2l-3-1.2v9.6h-5v-2h3v-9.6z" fill="#1e81ce"/><path d="m25 47-4-1.6v1.2l4.64 1.858a2.018 2.018 0 0 1 -.64-1.458z" fill="#d1d3d4"/><path d="m53 3v10l-3-4-3 4v-10z" fill="#ff5023"/><path d="m29 36a3 3 0 0 1 0 6z" fill="#ffd422"/><path d="m29 42v5a2 2 0 0 1 -4 0v-16a2.006 2.006 0 0 1 2-2 2.015 2.015 0 0 1 2 2z" fill="#ee8700"/><g fill="#ff9811"><path d="m21 32.6-6 2.4v8l1 .4 5 2 4 1.6v-16z"/><path d="m11 35v8h-2a2.006 2.006 0 0 1 -2-2v-4a2.006 2.006 0 0 1 2-2z"/><path d="m15 43h-2-2-1v10h3 3v-9.6z"/></g><path d="m13 35h-2v8h2 2v-8z" fill="#ee8700"/><path d="m35 38h6v2h-6z"/><path d="m32.364 31.636h6v2h-6z" transform="matrix(.707 -.707 .707 .707 -12.719 34.565)"/><path d="m34.364 42.364h2v6h-2z" transform="matrix(.707 -.707 .707 .707 -21.72 38.296)"/><path d="m57 2h-44a1 1 0 0 0 -1 1v31h-3a3 3 0 0 0 -3 3v4a3 3 0 0 0 3 3v9a1 1 0 0 0 1 1h2v7a1 1 0 0 0 1 1h44a3 3 0 0 0 3-3v-54a3 3 0 0 0 -3-3zm-9 2h4v6l-1.2-1.6a1.036 1.036 0 0 0 -1.6 0l-1.2 1.6zm-24 41.523-8-3.2v-6.646l8-3.2zm-10-41.523h6v27.923l-5.193 2.077h-.807zm-2 32h2v6h-2zm-4 5v-4a1 1 0 0 1 1-1h1v6h-1a1 1 0 0 1 -1-1zm3 3h3.807l.193.077v7.923h-4zm3 10h2a1 1 0 0 0 1-1v-8.123l3 1.2v13.923h-6zm44 5a1 1 0 0 1 -1 1h-35v-13.123l2.1.839a2.995 2.995 0 0 0 5.9-.716v-4.142a3.981 3.981 0 0 0 0-7.716v-4.142a2.995 2.995 0 0 0 -5.9-.716l-2.1.839v-27.123h24v9a1 1 0 0 0 1.8.6l2.2-2.933 2.2 2.933a1 1 0 0 0 .8.4 1.019 1.019 0 0 0 .316-.051 1 1 0 0 0 .684-.949v-9h3a1 1 0 0 1 1 1zm-32-12v-16a1 1 0 0 1 2 0v16a1 1 0 0 1 -2 0zm4-9.722a1.983 1.983 0 0 1 0 3.444z"/><path d="m26 12h16v2h-16z"/><path d="m26 8h4v2h-4z"/><path d="m32 8h10v2h-10z"/><path d="m26 18h10v2h-10z"/><path d="m38 18h16v2h-16z"/><path d="m26 22h16v2h-16z"/><path d="m44 22h10v2h-10z"/><path d="m30 26h24v2h-24z"/><path d="m44 30h10v2h-10z"/><path d="m44 34h10v2h-10z"/><path d="m44 38h10v2h-10z"/><path d="m44 42h10v2h-10z"/><path d="m44 46h10v2h-10z"/><path d="m32 50h16v2h-16z"/><path d="m50 50h4v2h-4z"/><path d="m26 54h28v2h-28z"/></svg>