<?xml version="1.0" encoding="utf-8"?>
<!-- Generator: Adobe Illustrator 16.0.0, SVG Export Plug-In . SVG Version: 6.00 Build 0)  -->
<!DOCTYPE svg PUBLIC "-//W3C//DTD SVG 1.1//EN" "http://www.w3.org/Graphics/SVG/1.1/DTD/svg11.dtd">
<svg version="1.1" id="Layer_1" xmlns="http://www.w3.org/2000/svg" xmlns:xlink="http://www.w3.org/1999/xlink" x="0px" y="0px"
	 width="600px" height="600px" viewBox="0 0 600 600" enable-background="new 0 0 600 600" xml:space="preserve">
<g>
	<path opacity="0.3" fill-rule="evenodd" clip-rule="evenodd" fill="#003399" d="M0,12.5c11.197,3.59,20.879,10.115,30.691,16.261
		c15.483,9.696,29.843,20.875,43.41,33.188c27.395,24.863,50.082,53.406,68.781,85.24c10.791,18.37,18.288,38.003,21.722,58.984
		c2.217,13.544,2.798,27.173,1.688,41.066c-2.45,30.664-12.678,58.768-25.27,86.37c-11.679,25.602-25.983,49.761-39.646,74.286
		c-21.111,37.897-41.706,75.989-55.088,117.59c-6.311,19.619-19.044,35.177-36.138,46.946C6.897,574.674,3.869,577.289,0,578.5
		C0,389.833,0,201.167,0,12.5z"/>
	<path fill-rule="evenodd" clip-rule="evenodd" fill="#E1E7ED" d="M2051.479,20.535c-0.001,3.99-0.001,7.98-0.001,11.97
		c-0.923,1.729-0.469,3.599-0.47,5.396c-0.027,52.784-0.021,105.569-0.023,158.354c-0.001,6.252-0.44,6.819-6.752,6.854
		c-17.983,0.099-35.967,0.063-53.95,0.013c-1.992-0.006-4.018-0.004-5.78-1.192c-1.745-1.909-1.588-4.312-1.591-6.618
		c-0.044-38.448-0.037-76.897-0.023-115.346c0.001-3.231,0.452-6.312,2.419-8.992c1.92-2.616,1.308-5.763,1.833-8.656
		c0.242-2.64,2.085-3.94,4.188-5.124c16.187-9.108,32.367-18.229,48.603-27.25c3.823-2.125,7.495-4.274,9.563-8.362
		C2049.865,20.846,2050.477,20.236,2051.479,20.535z"/>
	<path fill-rule="evenodd" clip-rule="evenodd" fill="#F1F4F6" d="M2051.489,284.495c0.004,52.771-0.053,105.543,0.117,158.313
		c0.015,4.669-1.344,5.853-5.877,5.793c-18.475-0.243-36.956-0.238-55.432-0.004c-4.485,0.057-5.926-1.046-5.906-5.763
		c0.188-44.114,0.116-88.229,0.119-132.344c2.246-1.938,4.994-1.572,7.619-1.579c16.29-0.041,32.58-0.005,48.87-0.025
		c7.762-0.011,7.851-0.125,7.895-7.693c0.022-3.989-0.167-7.985,0.112-11.964C2049.134,287.394,2048.733,285.05,2051.489,284.495z"
		/>
	<path fill-rule="evenodd" clip-rule="evenodd" fill="#F8FAFB" d="M1730.5,38.499c-8.965-3.522-16.614-9.453-25.15-13.769
		c-3.088-1.562-5.892-3.688-8.987-5.229c-4.356-2.17-7.852-5.268-10.867-9c-2.894,0.373-2.646,0.308-3.437-2.685
		c-0.646-2.441-2.8-3.248-5.274-3.84c-19.751-4.725-39.831-3.053-59.772-2.785c-7.504,0.101-15.096,1.486-22.687,2.068
		c-7.32,0.562-14.597,0.673-21.903,0.552c-7.565-2.316-13.921-6.949-20.634-10.892c-2.005-1.178-2.408-3.476-3.288-5.416
		c-0.349-6.931,1.753-12.178,8.795-15.054c4.411-1.802,8.419-4.628,12.527-7.127c2.699-1.642,5.65-2.45,8.594-1.705
		c5.276,1.338,10.58,0.813,15.871,0.84c5.123,0.026,9.063,4.339,14.346,3.712c0.758-0.09,1.498,0.697,0.904,1.756
		c-0.338,0.604,0.104,1.65,0.289,1.366c2.579-3.954,4.745,0.673,7.14,0.249c3.393-0.601,5.833,2.153,8.877,2.853
		c0.585,0.135,1.251-0.08,1.851-0.131c0.112-1.689-1.623-1.488-2.753-2.765c5.455,0,10.221,0.024,14.985-0.013
		c1.779-0.014,3.874,0.498,2.757-2.824c-1.026-3.052,1.208-3.934,3.802-4.162c19.908-1.758,39.873-1.219,59.787-0.737
		c7.028,0.171,12.922,5.546,18.977,9.187c2.123,1.277,0.62,2.719-1.035,3.696c-4.369,2.58-8.684,5.252-12.865,8.854
		c5.205,0,10.41,0.01,15.615-0.003c4.316-0.01,8.666,0.09,12.463,2.403c2.065,1.259,3.559-1.59,4.344-0.894
		c4.48,3.974,10.918,2.152,15.528,5.618c1.694,1.274,3.739,1.85,4.163,4.453c0.257,1.57,2.031,1.341,3.361,1.437
		c1.596,0.114,3.379-0.563,4.678,0.984c0.566,2.587,1.038,5.157,3.465,6.888c1.12,0.799,1.572,2.141,0.583,3.51
		c-2.921,6.136-8.769,5.224-13.988,5.792c-1.613,0.175-0.179,0.646-0.214,1.011c-0.509,5.322-4.573,10.657-10.916,10.152
		c-5.477-0.436-9.381,2.57-11.266,7.908c-0.674,1.908-1.678,2.594-3.533,2.759C1733.902,37.673,1731.944,36.814,1730.5,38.499z"/>
	<path fill-rule="evenodd" clip-rule="evenodd" fill="#E7EBF0" d="M2051.489,284.495c-2.223,5.781-0.684,11.778-0.92,17.665
		c-0.381,9.461,1.146,8.299-8.168,8.323c-19.297,0.052-38.594,0.011-57.891,0.008c-0.007-5.33-0.013-10.66-0.02-15.989
		c-2.17-16.229-1.767-32.535-1.436-48.838c0.16-9.672-0.521-19.346,0.005-29.019c0.585-5.038-1.637-10.346,1.44-15.146
		c19.984,0,39.972-0.147,59.953,0.109c4.732,0.061,6.173-1.139,6.156-6.027c-0.176-52.46-0.118-104.92-0.075-157.38
		c0.001-1.909-0.745-4.031,0.943-5.696C2051.481,116.502,2051.485,200.499,2051.489,284.495z"/>
	<path fill-rule="evenodd" clip-rule="evenodd" fill="#F5F7F9" d="M1951.5,294.499c-4.956-0.998-7.691-5.032-10.961-8.251
		c-0.637-0.627-1.111-1.348-1.962-1.901c-7.05-4.588-8.707-16.959-3.666-23.879c1.311-1.8,1.692-5.385-0.585-6.525
		c-2.675-1.341-2.539-3.223-2.572-5.205c-0.166-9.816,0.126-19.652-0.367-29.45c-0.308-6.12-1.283-12.676,0.757-18.098
		c2.847-7.563,2.712-15.029,2.225-22.492c-1.847-28.268-0.382-56.546-0.777-84.813c-0.046-3.29-1.331-4.849-4.1-5.884
		c-6.418-2.396-11.946-6.434-17.878-9.729c-2.584-1.436-3.57-3.396-3.087-6.113c0.771-4.332-1.454-6.666-4.948-8.653
		c-18.034-10.255-36.001-20.628-53.977-30.985c-1.121-0.646-2.119-1.505-4.227-3.023c47.15,0,93.135,0,139.12,0
		c1.227,1.096,1.485,2.592,1.493,4.088c0.046,9.291,0.482,18.587-0.248,27.863c-0.949,3.713-4.344,4.854-7.149,6.439
		c-3.59,2.026-6.135,4.382-5.792,8.933c0.238,3.143-1.543,5.317-4.151,6.853c-4.727,2.783-9.534,5.39-14.853,6.907
		c-6.155,1.756-6.51,2.065-6.795,8.496c-0.324,7.296-0.014,14.604-0.149,21.904c-0.021,1.163-0.122,2.32-0.363,3.462
		c-1.049,10.031-2.57,19.974-1.928,30.183c0.445,7.078-2.081,14.108-2.344,21.235c-0.46,12.508-5.508,24.748-1.819,37.52
		c2.162,7.481,4.48,14.921,6.616,22.411c1.064,3.735,2.005,7.321,1.878,11.177c-0.054,2.681,1.032,5.754-2.843,7.018
		c-0.941,0.307-0.732,1.751-0.667,2.735c0.686,10.325,2.385,20.455,5.782,30.268C1952.01,289.433,1953.552,291.9,1951.5,294.499z"/>
	<path fill-rule="evenodd" clip-rule="evenodd" fill="#F4F6F8" d="M1571.5,2.5c12.438,0.746,25.056,0.286,37.15-1.52
		c17.927-2.677,35.704-0.357,53.505-1.415c2.213-0.132,4.737-1.01,6.349,2.318c0.82,1.694,3.992,0.538,6.087,0.577
		c6.015,0.114,5.942,0.059,7.216,6.281c0.381,1.862,2.176,1.748,3.688,1.76c0,0.999,0,1.997,0,2.996
		c-2.628,2.916-6.141,4.589-9.472,6.419c-8.173,4.49-15.921,9.742-24.393,13.682c-2.405,1.119-3.048,2.813-2.653,5.243
		c0.206,1.267,1.228,2.448,0.464,3.841c-3.93,2.097-4.854,5.527-4.482,9.664c1.802,20.088,0.12,40.293,2.051,60.386
		c0.836,8.702,1.153,9.236,9.989,10.12c3.494,0.35,6.992-0.004,10.487,0.021c3.129,0.023,6.117,0.563,7.002,4.274
		c0.568,2.386,2.386,1.784,3.978,1.912c2.565,0.205,5.413-0.707,7.438,1.785c0.187,21.334-0.057,42.663,0.161,63.989
		c0.038,3.781-1.496,5.108-4.895,5.163c-9.996,0.161-19.993,0.077-29.991,0.043c-4.264-0.015-6.415-2.319-7.177-6.207
		c-1.408-7.188-3.249-14.321-3.757-21.645c-1.128-16.282-3.232-32.469-4.494-48.741c-1.559-20.115-2.045-40.238-1.844-60.395
		c0.017-1.667-0.172-3.354,0.032-4.996c0.931-7.458-0.021-13.894-8.44-16.559c-13.827-7.587-27.649-15.183-41.489-22.746
		c-1.037-0.567-2.029-1.099-2.516-2.244c0.297-4.819-1.726-8.08-6.2-10.103C1573.714,5.691,1571.423,5.081,1571.5,2.5z"/>
	<path fill-rule="evenodd" clip-rule="evenodd" fill="#EEF1F5" d="M1838.495,189.498c-0.001,39.332-0.001,78.665-0.001,117.997
		c-1.855,1.292-3.726,2.502-5.577,0.021c-0.464-0.621-1.038-0.953-1.676-0.523c-2.835,1.907-6.15,0.872-9.093,1.561
		c-5.641,1.32-11.274,2.649-16.97,3.708c-4.236,0.788-5.969-0.371-6.6-4.436c-3.143-20.233-4.765-40.571-5.666-61.047
		c-0.762-17.32-0.709-34.614-0.681-51.917c0.014-8.137-0.018-16.298,0.473-24.44c0.787-11.589,2.286-23.123,2.409-34.758
		c0.033-3.14-0.413-6.321,0.562-9.403c1.733-2.472,2.951-0.736,4.363,0.466c4.33,3.688,4.69,9.025,5.483,13.979
		c0.862,5.387,0.529,10.984,4.177,15.618c0.629,0.797,0.485,1.902,0.419,2.906c-0.268,4.075,1.992,6.47,5.418,8.045
		c0.89,0.409,2.753,0.636,2.591,1.117c-2.751,8.189,6.792,4.622,8.597,8.969c1.016,2.446,4.418,3.956,6.313,6.635
		C1834.38,185.892,1837.565,186.679,1838.495,189.498z"/>
	<path fill-rule="evenodd" clip-rule="evenodd" fill="#F8FAFB" d="M1649.5,41.502c-3.029-2.88-2.88-7.163,0.425-8.639
		c10.89-4.863,20.726-11.598,31.083-17.405c1.445-0.811,2.763-1.825,4.487-1.96c2.278,71.573,0.581,143.165,0.805,214.748
		c0.036,11.583-0.71,23.228-0.816,34.852c-0.012,1.294,0.231,2.998-1.569,3.188c-2.604,0.274-5.455,1.016-7.779-0.482
		c-1.509-0.972,0.03-2.667,0.408-4.302c-5.108,0-10.106,0.237-15.068-0.084c-3.328-0.215-4.982,2.313-7.418,3.529
		c-2.62,1.31-4.261,4.124-6.442-1.571c-1.268-3.309-1.887-7.961-5.665-10.855c-2.021-1.547-3.285-5.07-2.861-8.544
		c0.286-2.35,0.101-4.925-1.937-6.919c-0.761-0.744-1.237-2.066-1.323-3.166c-0.978-12.393-3.371-24.613-3.707-37.113
		c-0.263-9.817-0.401-19.729-2.183-29.472c-0.179-0.976-0.392-1.96-0.417-2.945c-0.358-13.449-0.18-26.936-1.138-40.341
		c-1.521-21.284-0.116-42.584-1.114-63.833c-0.291-6.176,0.322-12.614-1.77-18.688c10,2.685,10,2.685,10,13.093
		c0,13.31-0.565,26.65,0.145,39.922c0.865,16.154,1.381,32.346,3.638,48.431c1.604,11.436,1.979,23.038,3.3,34.521
		c0.694,6.04,2.23,11.983,3.401,17.967c0.453,2.316,1.793,3.148,4.228,3.119c10.479-0.123,20.965-0.181,31.442,0.017
		c3.732,0.069,3.885-1.88,3.878-4.682c-0.058-21.129-0.031-42.259-0.031-63.388c-2.034-2.435-1.479-5.373-1.481-8.151
		c-0.036-30.469-0.021-60.938-0.024-91.407c-0.001-5.654-0.058-5.726-4.869-3.033c-7.409,4.146-14.843,8.247-22.271,12.357
		C1654.605,41.508,1652.336,43.408,1649.5,41.502z"/>
	<path fill-rule="evenodd" clip-rule="evenodd" fill="#F1F4F6" d="M1796.5,125.499c0.965,14.035-1.771,27.929-1.65,41.936
		c0.01,1.035-0.186,2.362-1.35,3.065c-1.87-0.642-3.313,0.97-5.074,0.955c-1.617-1.815-1.332-4.062-1.299-6.182
		c0.28-17.621-1.335-35.194-1.512-52.768c-0.098-9.683-0.831-19.146-2.066-28.667c-0.354-2.733-0.736-5.249-3.481-6.714
		c-2.127-1.134-2.986-3.131-2.887-5.426c0.161-3.688-1.751-5.66-4.859-7.305c-10.14-5.363-19.729-11.692-29.727-17.313
		c-1.631-0.918-2.924-2.168-4.095-3.584c-2.508-1.92-4.527-4.622-8-4.999c-0.229-3.935,2.882-1.982,4.365-2.162
		c1.67-0.201,2.631,0.618,2.93-2.183c0.503-4.723,6.153-8.625,11.003-8.658c2.886-0.021,5.741,0.414,8.23-2.004
		c1.802-1.75,2.711-4.346,1.919-7.119c-0.523-1.833,1.742-1.25,2.394-1.491c2.286-0.846,4.824-1.089,7.289-1.35
		c2.407-0.255,2.21-0.231,3.362-2.912c0.318-0.739,2.293-0.767,3.508-1.12c3.773,0.418,7.54,0.788,11.352,0.809
		c3.098,0.018,13.403,6.735,14.896,9.473c0.635,1.162,1.061,2.811,2.441,2.946c6.195,0.609,10.305,5.829,15.611,7.379
		c6.361,1.857,11.674,6.746,18.699,6.396c-0.002,3.334-0.003,6.668-0.005,10.002c-1.002,1.129-2.09,2.156-3.472,2.81
		c-4.246,2.006-7.148,4.827-6.266,10.048c0.107,0.64-0.109,1.332-0.348,1.954c-0.428,1.119-1.007,2.318-2.395,2.122
		c-1.356-0.191-0.923-1.524-0.979-2.431c-0.061-0.979-0.084-1.97-0.051-2.276c1.338,4.934-1.383,8.071-6.149,10.604
		c-5.883,3.127-11.473,6.832-17.972,8.613c-3.189,0.875-4.082,2.906-3.995,5.95c0.33,11.644,1.573,23.261,1.017,34.93
		C1797.778,121.122,1798.259,123.545,1796.5,125.499z"/>
	<path fill-rule="evenodd" clip-rule="evenodd" fill="#E9EEF2" d="M1796.5,125.499c0.232-14.1-0.043-28.191-1.059-42.255
		c-0.267-3.702,0.589-5.707,4.577-6.563c8.438-1.809,15.212-7.204,22.603-11.263c1.78-0.979,1.901-2.542,1.883-4.258
		c-0.024-2.214-0.006-4.429-0.006-7.874c2.461,3.735-0.365,6.903,1.803,9.581c3.204-3.271-1.126-8.104,2.272-10.917
		c2.912-2.409,6.029-4.704,9.922-5.447c0,47.665,0,95.329,0,142.994c-5.693-3.857-10.407-8.801-15.116-13.736
		c-0.89-0.933-2.287-0.765-2.682-0.482c-2.819,2.012-3.642-1.385-4.84-2.189c-1.705-1.144,1.496-2.248,1.435-4.15
		c-2.613,0.394-5.006-1.054-6.319-3.235c-1.146-1.905-3.849-3.71-2.04-6.723c0.364-0.608,0.435-1.516-0.216-2.316
		c-5.473-6.741-3.448-15.174-5.288-22.717C1802.632,130.68,1800.137,127.23,1796.5,125.499z"/>
	<path fill-rule="evenodd" clip-rule="evenodd" fill="#F8FAFB" d="M1738.5,43.498c10.139,4.922,19.479,11.231,29.246,16.8
		c1.584,0.903,3.078,2.072,4.773,2.65c4.486,1.53,6.976,4.128,6.018,9.192c-0.289,1.527,0.013,3.393,1.786,3.641
		c4.395,0.614,4.625,4.188,4.64,7.061c0.024,4.86,1.374,9.399,2.159,14.078c0.272,1.623,0.59,3.352,0.32,4.936
		c-1.093,6.415-0.45,12.771-0.003,19.188c1.07,15.402,1.273,30.838,1.078,46.277c-0.019,1.444-0.416,3.041,0.982,4.179
		c1.516,1.436,1.388,3.325,1.297,5.133c-0.543,10.782-0.131,21.64-1.501,32.342c-1.562,12.208-2.83,24.381-2.298,36.701
		c0.668,15.429,0.592,30.893,2.662,46.253c0.516,3.833,1.426,7.944-1.16,11.572c-2.631-1.55-3.498-4.468-4.62-6.903
		c-0.937-2.034-1.954-3.605-3.607-5.067c-3.352-2.963-2.444-7.426-2.562-10.998c-0.582-17.631-1.063-35.286,1.615-52.863
		c0.598-3.923,0.738-8.239-1.247-12.118c-0.962-1.878-0.563-3.927-0.563-5.901c-0.021-42.796-0.07-85.592,0.078-128.387
		c0.013-3.866-1.082-5.889-4.595-7.658c-10.821-5.449-21.174-11.763-31.546-18.032c-2.141-1.294-3.186-2.584-2.991-5.083
		C1738.643,48.172,1738.5,45.83,1738.5,43.498z"/>
	<path fill-rule="evenodd" clip-rule="evenodd" fill="#F1F4F6" d="M1984.5,62.501c-0.002-11.001-0.003-22.003-0.005-33.005
		c0.003-3.489,0.096-6.982-0.021-10.468c-0.084-2.519,0.824-3.567,3.452-3.559c19.775,0.065,39.551,0.083,59.325-0.01
		c3.783-0.018,4.51,1.977,4.228,5.075c-2.68,7.533-9.824,9.883-15.864,13.327c-15.259,8.699-30.686,17.103-46.035,25.642
		c-0.417,0.232-0.726,0.658-1.084,0.994C1987.504,61.846,1986.585,63.337,1984.5,62.501z"/>
	<path fill-rule="evenodd" clip-rule="evenodd" fill="#F4F6F8" d="M1951.5,294.499c0.105-2.702-0.724-5.188-1.662-7.675
		c-2.99-7.925-4.632-16.184-5.221-24.585c-0.213-3.036-1.838-6.128-0.207-9.26c0.354-0.679,0.194-2.158,1.072-1.942
		c5.179,1.271,0.629-2.803,2.018-3.539c1.445-2.191,3.242-3.506,6.105-3.439c3.484,0.081,7.079-2.509,9.962-1.978
		c4.545,0.839,9.272,0.188,13.608,1.736c3.115,1.111,4.271,0.508,4.137-2.842c-0.066-1.677-0.178-3.615,2.079-4.775
		c1.408,3.164-0.229,6.437,1.104,9.299c-0.002,16.334-0.003,32.669-0.005,49.003c-2.275-2.681,0.006-6.126-1.468-9.014
		c-0.187,0.33-0.441,0.581-0.462,0.85c-0.619,8.278-0.64,8.792-9.152,8.386c-7.054-0.337-13.97,0.199-20.922,0.882
		C1951.308,295.721,1951.662,295.007,1951.5,294.499z"/>
	<path fill-rule="evenodd" clip-rule="evenodd" fill="#F5F7F9" d="M1838.5,36.502c-2.117,1.62-9.796,0.689-11.78-2.441
		c-1.058-1.669-1.827-1.354-2.948-1.556c-2.681-0.48-6.192,0.775-7.07-3.424c-4.787,0.889-6.342-6.097-11.482-4.648
		c-1.831,0.516-3.466,0.017-3.869-2.553c-0.519-3.311-3.748-4.176-5.967-6.05c-4.932-4.169-10.487-4.798-16.512-4.468
		c-1.245,0.068-2.54-0.705-3.371-1.862c-0.024-1.499-0.849-2.396-2.125-3.078c-3.037-1.624-3.239-4.075-1.875-6.923
		c28.643,0,57.286,0,87.28,0c-4.64,2.857-7.965,5.283-11.605,7.063c-6.371,3.115-8.533,8.435-8.655,14.988
		C1838.426,26.533,1838.5,31.518,1838.5,36.502z"/>
	<path fill-rule="evenodd" clip-rule="evenodd" fill="#F4F6F8" d="M1788.5,303.501c-0.912-15.177-2.057-30.345-2.666-45.535
		c-0.545-13.589-1.554-27.29,0.796-40.757c2.648-15.178,1.694-30.491,2.87-45.709c0.232-1.154-0.652-2.918,0.834-3.335
		c1.525-0.428,1.666,2.093,3.166,2.335c0.203,5.635,1.019,11.26,0.213,16.912c-0.164,1.145-0.2,2.314-0.205,3.474
		c-0.087,22.427-0.178,44.855,1.01,67.261c0.899,16.961,3.223,33.775,5.324,50.614c0.247,1.977,2.471,3.09,2.693,2.934
		c4.058-2.849,9.812,0.165,13.415-3.934c0.444-0.505,1.114-1.109,1.249,0.136c0.331,3.039,1.733,1.431,2.136,0.328
		c1.099-3.01,3.845-0.538,5.346-1.875c1.652,3.127,3.465-0.612,4.904,0.092c1.432,0.699,4.162-5.891,4.475,0.882
		c0.052,1.127,2.901-0.268,4.435,0.172c-0.08,1.313-0.159,2.626-0.238,3.939c-3.517-1.477-5.875,1.835-9.083,2.325
		c-7.086,1.081-14.714-1.015-21.334,3.682c-4.177,2.962-10.783,0.158-12.468-4.571c-0.26-0.729-0.742-1.711-1.352-1.928
		C1790.459,309.677,1789.269,306.771,1788.5,303.501z"/>
	<path fill-rule="evenodd" clip-rule="evenodd" fill="#EEF1F5" d="M1571.5,2.5c2.313,1.489,4.515,3.202,6.963,4.419
		c4.468,2.22,5.189,5.392,3.032,9.59c-10.227-4.322-19.752-9.977-29.11-15.857c-4.76-2.99-3.872-8.369-3.885-13.146
		C1554.403-4.79,1563.49-1.972,1571.5,2.5z"/>
	<path fill-rule="evenodd" clip-rule="evenodd" fill="#E9EEF2" d="M1984.5,62.501c1.332-0.667,2.663-1.335,3.995-2.003
		c-0.431,4.558,1.601,9.622-3.317,13.229c-1.464,1.074-0.658,3.483-0.659,5.283c-0.024,40.83-0.019,81.659-0.019,122.488
		c0,5.001,0,10.002,0,15.003c-6.435,3.343-13.134-0.589-19.668,0.683c-1.237,0.24-2.625-0.202-3.968-0.119
		c-6.593,0.404-8.713-1.194-9.591-7.78c-1.317-9.889-2.724-19.789-3.761-29.684c-1.366-13.039-2.528-26.175-2.334-39.328
		c0.078-5.255-0.265-10.527,0.316-15.773c0.474-10.227-0.775-20.477,0.703-30.72c0.337-2.328,0.688-2.997,2.862-3.403
		c6.912-1.291,13.106-4.389,19.112-7.957c2.38-1.414,3.894-3.102,3.309-5.963c-0.983-4.811,1.622-7.279,5.509-9.247
		C1979.615,65.881,1982.005,64.087,1984.5,62.501z"/>
	<path fill-rule="evenodd" clip-rule="evenodd" fill="#F1F4F6" d="M1945.495,124.5c1.004,17.988,1.456,36.03,3.219,53.943
		c1.046,10.632,2.817,21.229,3.983,31.886c0.594,5.435,2.506,5.996,8.223,5.311c5.168-0.62,10.533,1.436,15.675-0.844
		c0.193-0.086,0.696,0.167,0.85,0.398c3.612,5.448,4.454,1.433,5.601-1.647c0.828,0.824,0.186,2.371,1.455,2.955
		c-0.002,9.666-0.003,19.331-0.005,28.997c-2.128-2.344-0.191-5.466-1.489-8.276c-1.227,3.106,0.887,6.847-1.194,8.816
		c-2.268,2.146-4.583-1.709-7.466-1.773c-3.248-0.072-6.579,0.847-10.174-1.186c-1.971-1.115-6.078,2.186-9.737,2.246
		c-2.27,0.037-4.886,0.614-6.935,2.172c0.362-9.122-3.785-17.234-6.051-25.727c-2.741-10.277-5.542-20.211-2.306-30.981
		c1.874-6.234,1.127-12.972,2.167-19.457c0.65-4.049,0.935-8.19,1.813-12.238c0.243-1.124,0.563-2.368,0.323-3.44
		c-2.179-9.765,1.127-19.305,1.11-28.975C1944.556,125.953,1945.168,125.227,1945.495,124.5z"/>
	<path fill-rule="evenodd" clip-rule="evenodd" fill="#EEF1F5" d="M1649.5,41.502c2.846,0.114,4.992-1.552,7.299-2.838
		c9.36-5.219,18.732-10.416,28.701-15.955c0,36.428,0,72.108,0,107.789c-2.491,0-4.983,0.049-7.473-0.012
		c-2.398-0.059-5.22,1.082-4.843-3.631c0.244-3.052-3.587-2.933-5.505-2.64c-6.194,0.944-12.2-0.377-18.284-0.703
		c-1.753-0.094-2.745-0.599-2.898-2.55c-0.607-7.725-1.83-15.438-1.89-23.161c-0.119-15.35-0.135-30.698-1.19-46.012
		C1643.063,46.648,1643.936,42.85,1649.5,41.502z"/>
</g>
</svg>
