<?xml version="1.0" encoding="utf-8"?>
<!-- Generator: Adobe Illustrator 16.0.0, SVG Export Plug-In . SVG Version: 6.00 Build 0)  -->
<!DOCTYPE svg PUBLIC "-//W3C//DTD SVG 1.1//EN" "http://www.w3.org/Graphics/SVG/1.1/DTD/svg11.dtd">
<svg version="1.1" id="Capa_1" xmlns="http://www.w3.org/2000/svg" xmlns:xlink="http://www.w3.org/1999/xlink" x="0px" y="0px"
	 width="400px" height="400px" viewBox="0 0 400 400" enable-background="new 0 0 400 400" xml:space="preserve">
<g>
	<g>
		<path fill="#FFFFFF" d="M392.188,161.328h-64.063v-16.537c0-4.315-3.499-7.813-7.813-7.813h-168.75
			c-4.313,0-7.813,3.498-7.813,7.813s3.498,7.813,7.813,7.813H312.5v59.895c0,52.616-28.092,101.519-73.452,128.125H89.076
			c-45.36-26.606-73.451-75.509-73.451-128.124v-59.896h52.344c4.313,0,7.813-3.498,7.813-7.813c0-4.314-3.499-7.813-7.813-7.813
			H7.813c-4.313,0-7.813,3.498-7.813,7.813V212.5c0,29.531,7.938,58.486,22.954,83.736c10.128,17.029,23.269,32.065,38.655,44.389
			H7.813c-4.313,0-7.813,3.498-7.813,7.813C0,376.869,23.13,400,51.563,400h243.75c28.432,0,51.563-23.131,51.563-51.563
			c0-4.314-3.498-7.813-7.813-7.813h-72.549c14.163-11.341,26.416-24.985,36.174-40.365h22.052C366.239,300.26,400,266.498,400,225
			v-55.859C400,164.826,396.502,161.328,392.188,161.328z M330.395,356.25c-3.577,16.072-17.949,28.125-35.082,28.125H51.563
			c-17.134,0-31.505-12.053-35.082-28.125h70.503h154.158H330.395z M328.125,212.5v-4.297h25V225
			c0,15.65-12.734,28.385-28.387,28.385h-1.773C326.375,240.1,328.125,226.363,328.125,212.5z M384.375,225
			c0,32.883-26.754,59.635-59.637,59.635h-13.297c2.495-5.094,4.723-10.31,6.67-15.625h6.627c24.27,0,44.012-19.742,44.012-44.01
			v-24.609c0-4.315-3.499-7.813-7.813-7.813h-32.813v-15.625h56.25L384.375,225L384.375,225z"/>
	</g>
</g>
<g>
	<g>
		<path fill="#FFFFFF" d="M171.523,43.237l-4.063-5.104c-5.968-7.491-5.978-17.962-0.021-25.463
			c2.684-3.379,2.117-8.293-1.263-10.976c-3.38-2.684-8.294-2.117-10.978,1.262c-10.501,13.231-10.484,31.699,0.038,44.912
			l4.065,5.104c7.798,9.789,7.81,23.473,0.028,33.277l-4.166,5.249c-2.684,3.379-2.117,8.293,1.263,10.976
			c1.437,1.14,3.149,1.694,4.852,1.694c2.303,0,4.582-1.013,6.125-2.957l4.165-5.248C183.896,80.429,183.878,58.748,171.523,43.237z
			"/>
	</g>
</g>
<g>
	<g>
		<path fill="#FFFFFF" d="M214.826,60.802l-4.064-5.103c-5.968-7.491-5.976-17.962-0.021-25.464
			c2.683-3.38,2.116-8.294-1.264-10.976c-3.38-2.684-8.293-2.117-10.977,1.263C188,33.753,188.016,52.221,198.54,65.435l4.063,5.104
			c7.797,9.79,7.81,23.475,0.027,33.277l-4.165,5.248c-2.683,3.379-2.117,8.293,1.263,10.976c1.438,1.14,3.15,1.693,4.853,1.693
			c2.302,0,4.583-1.013,6.125-2.956l4.164-5.248C227.199,97.996,227.181,76.315,214.826,60.802z"/>
	</g>
</g>
<g>
	<g>
		<path fill="#FFFFFF" d="M128.219,60.803l-4.065-5.103c-5.967-7.491-5.976-17.963-0.021-25.464
			c2.683-3.379,2.117-8.293-1.263-10.977c-3.381-2.683-8.294-2.116-10.978,1.263c-10.501,13.231-10.484,31.7,0.039,44.913
			l4.065,5.104c7.797,9.79,7.809,23.475,0.026,33.277l-4.165,5.248c-2.683,3.38-2.117,8.294,1.263,10.977
			c1.437,1.14,3.148,1.694,4.852,1.694c2.302,0,4.582-1.013,6.124-2.956l4.166-5.249C140.591,97.997,140.573,76.315,128.219,60.803z
			"/>
	</g>
</g>
<g>
	<g>
		<path fill="#FFFFFF" d="M117.406,139.266c-1.452-1.453-3.469-2.289-5.522-2.289s-4.07,0.836-5.523,2.289
			c-1.451,1.461-2.289,3.469-2.289,5.523c0,2.054,0.837,4.07,2.289,5.531c1.453,1.453,3.47,2.281,5.523,2.281
			s4.07-0.828,5.522-2.281c1.461-1.461,2.289-3.469,2.289-5.531C119.696,142.734,118.866,140.719,117.406,139.266z"/>
	</g>
</g>
<g>
	<g>
		<path fill="#FFFFFF" d="M282.813,204.688c-4.313,0-7.813,3.498-7.813,7.813c0,28.999-11.764,57.498-32.272,78.188
			c-3.037,3.064-3.015,8.013,0.05,11.05c1.523,1.51,3.513,2.264,5.5,2.264c2.012,0,4.021-0.772,5.55-2.313
			c23.386-23.594,36.799-56.102,36.799-89.188C290.625,208.186,287.126,204.688,282.813,204.688z"/>
	</g>
</g>
<g>
	<g>
		<path fill="#FFFFFF" d="M229.598,311.895c-2.12-3.759-6.886-5.086-10.644-2.967l-0.179,0.102
			c-3.759,2.121-5.086,6.886-2.967,10.644c1.438,2.545,4.084,3.976,6.813,3.976c1.3,0,2.618-0.324,3.831-1.008l0.178-0.103
			C230.39,320.417,231.717,315.652,229.598,311.895z"/>
	</g>
</g>
</svg>
