<?xml version="1.0" encoding="utf-8"?>
<!-- Generator: Adobe Illustrator 16.0.0, SVG Export Plug-In . SVG Version: 6.00 Build 0)  -->
<!DOCTYPE svg PUBLIC "-//W3C//DTD SVG 1.1//EN" "http://www.w3.org/Graphics/SVG/1.1/DTD/svg11.dtd">
<svg version="1.1" id="Layer_1" xmlns="http://www.w3.org/2000/svg" xmlns:xlink="http://www.w3.org/1999/xlink" x="0px" y="0px"
	 width="600px" height="600px" viewBox="0 0 600 600" enable-background="new 0 0 600 600" xml:space="preserve">
<path opacity="0.3" fill="#FDB800" enable-background="new    " d="M575.418,540.228c-4.226,0-8.454,0-12.678,0
	c-1.228-0.603-2.615-0.435-3.857-0.436c-6.077-0.002-11.426-2.518-17.003-4.401c-6.392-2.167-12.295-5.321-18.034-8.675
	c-7.8-4.563-15.429-9.423-22.633-14.979c-8.019-6.184-16.019-12.367-23.748-18.899c-5.17-4.369-10.014-9.079-14.859-13.806
	c-6.675-6.506-13.77-12.594-20.168-19.375c-13.333-14.124-27.55-27.465-38.834-43.435c-4.825-6.831-9.751-13.614-13.584-21.044
	c-2.488-4.825-4.616-9.895-6.101-15.159c-0.661-2.343-0.105-4.88-0.797-7.259c0-3.697,0-7.395,0-11.094
	c0.721-13.329,8.992-22.256,18.043-30.648c6.073-5.631,12.999-10.217,19.45-15.384c9.948-7.968,20.38-15.385,29.225-24.651
	c10.903-11.422,19.484-24.367,23.972-39.589c2.128-7.215,3.288-14.722,3.735-22.327c0.661-11.324-1.1-22.396-2.384-33.57
	c-1.455-12.65-1.963-25.354-0.613-38.153c0.909-8.624,3.103-16.803,6.102-24.758c3.271-8.676,8.317-16.417,14.294-23.578
	c6.18-7.404,13.622-13.333,21.718-18.28c10.137-6.195,20.963-11.078,32.602-13.962c4.865-1.206,9.689-2.594,14.58-3.706
	c8.613-1.96,17.406-2.26,26.18-2.742c1.296-0.072,2.622,0.313,3.884-0.262c1.935,0,4.628-0.755,5.599,0.214
	c0.967,0.967,0.213,3.66,0.213,5.598c0,151.969,0,303.941,0,455.909c-5.815,3.779-11.729,7.324-18.878,7.919
	C579.032,539.843,577.2,539.787,575.418,540.228z"/>
</svg>
