<svg height="512pt" viewBox="0 0 512 512" width="512pt" xmlns="http://www.w3.org/2000/svg"><path d="m438.625 128h-374.625v-128h374.625l64 64zm0 0" fill="#64b5f6"/><path d="m438.625 288h-374.625v-128h374.625l64 64zm0 0" fill="#651fff"/><path d="m438.625 448h-374.625v-128h374.625l64 64zm0 0" fill="#ef5350"/><path d="m512 512h-512v-512h32v480h480zm0 0" fill="#b0bec5"/><path d="m64 0h144v128h-144zm0 0" fill="#fdd835"/><path d="m64 160h112v128h-112zm0 0" fill="#8bc34a"/><path d="m176 160h96v128h-96zm0 0" fill="#fdd835"/><path d="m64 320h176v128h-176zm0 0" fill="#64b5f6"/><path d="m240 320h128v128h-128zm0 0" fill="#fdd835"/><g fill="#fff"><path d="m256 48h32v32h-32zm0 0"/><path d="m320 48h32v32h-32zm0 0"/></g></svg>