<?xml version="1.0" encoding="utf-8"?>
<!-- Generator: Adobe Illustrator 16.0.0, SVG Export Plug-In . SVG Version: 6.00 Build 0)  -->
<!DOCTYPE svg PUBLIC "-//W3C//DTD SVG 1.1//EN" "http://www.w3.org/Graphics/SVG/1.1/DTD/svg11.dtd">
<svg version="1.1" id="Layer_1" xmlns="http://www.w3.org/2000/svg" xmlns:xlink="http://www.w3.org/1999/xlink" x="0px" y="0px"
	 width="500px" height="300px" viewBox="0 0 500 300" enable-background="new 0 0 500 300" xml:space="preserve">
<g opacity="0.24">
	<g>
		<g>
			<defs>
				<rect id="SVGID_1_" x="175.887" y="166.35" width="53.609" height="108.238"/>
			</defs>
			<clipPath id="SVGID_2_">
				<use xlink:href="#SVGID_1_"  overflow="visible"/>
			</clipPath>
			<path clip-path="url(#SVGID_2_)" fill="#F2643F" d="M195.21,274.146c-2.781-12.14-1.859-24.859,2.62-36.479
				c0.165-0.424-0.52-0.608-0.681-0.188c-4.523,11.735-5.431,24.599-2.622,36.854C194.629,274.777,195.311,274.591,195.21,274.146"
				/>
		</g>
		<g>
			<defs>
				<rect id="SVGID_3_" x="175.887" y="166.35" width="53.609" height="108.238"/>
			</defs>
			<clipPath id="SVGID_4_">
				<use xlink:href="#SVGID_3_"  overflow="visible"/>
			</clipPath>
			<path clip-path="url(#SVGID_4_)" fill="#F2643F" d="M197.844,238.044c1.067-9.839,5.839-19.146,13.306-25.664
				c2.042-1.782,4.445-3.589,7.231-3.849c1.916-0.178,4.002,0.503,4.442,2.59c0.301,1.422-0.229,2.96-0.893,4.195
				c-2.391,4.468-7.306,7.556-11.093,10.746c-4.577,3.857-9.122,7.754-13.599,11.73c-0.341,0.303,0.161,0.803,0.5,0.499
				c4.867-4.322,9.816-8.558,14.803-12.742c3.924-3.295,10.029-7.034,10.962-12.53c0.908-5.362-4.854-6.029-8.572-4.174
				c-4.839,2.417-8.833,7.197-11.686,11.687c-3.364,5.289-5.436,11.286-6.111,17.512
				C197.087,238.495,197.795,238.492,197.844,238.044"/>
		</g>
		<g>
			<defs>
				<rect id="SVGID_5_" x="175.887" y="166.35" width="53.609" height="108.238"/>
			</defs>
			<clipPath id="SVGID_6_">
				<use xlink:href="#SVGID_5_"  overflow="visible"/>
			</clipPath>
			<path clip-path="url(#SVGID_6_)" fill="#F2643F" d="M197.286,238.044c-0.784-6.721-2.497-13.292-5.174-19.512
				c-2.691-6.257-6.798-11.743-9.564-17.946c-1.404-3.146-3.283-7.801-1.528-11.131c2.451-4.65,7.395-1.199,9.333,1.93
				c1.629,2.633,2.39,5.696,3.1,8.676c0.898,3.778,1.757,7.569,2.462,11.391c1.619,8.773,2.222,17.669,0.678,26.499
				c-0.078,0.444,0.604,0.636,0.683,0.188c1.448-8.281,1.063-16.63-0.328-24.893c-0.717-4.264-1.661-8.486-2.652-12.694
				c-0.768-3.259-1.542-6.646-3.33-9.522c-1.334-2.147-3.647-4.57-6.365-4.624c-2.7-0.054-4.518,2.405-4.861,4.87
				c-0.467,3.35,0.96,6.953,2.322,9.938c1.575,3.457,3.63,6.664,5.53,9.946c4.792,8.286,7.879,17.369,8.992,26.884
				C196.632,238.49,197.339,238.495,197.286,238.044"/>
		</g>
		<g>
			<defs>
				<rect id="SVGID_7_" x="175.887" y="166.35" width="53.609" height="108.238"/>
			</defs>
			<clipPath id="SVGID_8_">
				<use xlink:href="#SVGID_7_"  overflow="visible"/>
			</clipPath>
			<path clip-path="url(#SVGID_8_)" fill="#F2643F" d="M194.743,246.006c-9.188-6.094-16.969-17.058-18.027-28.193
				c-0.277-2.916-0.094-5.887,0.638-8.726c0.454-1.757,1.338-4.351,3.6-3.016c1.441,0.851,2.476,2.284,3.327,3.708
				c1.496,2.498,2.339,5.396,3.183,8.167c0.88,2.894,1.626,5.825,2.309,8.772c1.52,6.553,2.744,13.176,4.453,19.687
				c0.116,0.438,0.798,0.254,0.681-0.188c-1.822-6.943-3.091-14.014-4.76-20.992c-0.835-3.492-1.776-6.957-2.932-10.358
				c-0.965-2.835-2.073-5.552-4.063-7.839c-1.236-1.424-3.371-3.137-5.071-1.346c-1.657,1.738-1.912,5.104-2.103,7.37
				c-0.523,6.279,1.268,12.528,4.321,17.978c3.401,6.067,8.276,11.734,14.088,15.588
				C194.767,246.868,195.121,246.257,194.743,246.006"/>
		</g>
		<g>
			<defs>
				<rect id="SVGID_9_" x="175.887" y="166.35" width="53.609" height="108.238"/>
			</defs>
			<clipPath id="SVGID_10_">
				<use xlink:href="#SVGID_9_"  overflow="visible"/>
			</clipPath>
			<path clip-path="url(#SVGID_10_)" fill="#F2643F" d="M206.959,274.068c3.444-17.676,4.147-35.793,2.067-53.681
				c-0.052-0.446-0.761-0.452-0.708,0c2.073,17.823,1.391,35.878-2.043,53.493C206.189,274.327,206.872,274.518,206.959,274.068"/>
		</g>
		<g>
			<defs>
				<rect id="SVGID_11_" x="175.887" y="166.35" width="53.609" height="108.238"/>
			</defs>
			<clipPath id="SVGID_12_">
				<use xlink:href="#SVGID_11_"  overflow="visible"/>
			</clipPath>
			<path clip-path="url(#SVGID_12_)" fill="#F2643F" d="M210.272,233.248c-8.78-9.826-13.752-22.773-13.935-35.941
				c-0.047-3.315,0.203-6.646,0.793-9.912c0.259-1.429,0.617-3.094,1.718-4.134c2.333-2.208,4.185,1.226,4.818,3.093
				c2.343,6.901,2.972,14.633,3.728,21.836c0.883,8.426,1.421,16.881,2.274,25.309c0.046,0.448,0.754,0.454,0.707,0
				c-0.886-8.758-1.431-17.546-2.378-26.299c-0.452-4.165-0.987-8.321-1.711-12.448c-0.619-3.528-1.007-7.909-2.997-10.985
				c-1.192-1.842-3.438-2.617-5.086-0.845c-1.923,2.063-2.037,5.603-2.308,8.255c-0.736,7.254,0.039,14.652,2.146,21.631
				c2.338,7.743,6.341,14.912,11.729,20.942C210.076,234.088,210.575,233.586,210.272,233.248"/>
		</g>
		<g>
			<defs>
				<rect id="SVGID_13_" x="175.887" y="166.35" width="53.609" height="108.238"/>
			</defs>
			<clipPath id="SVGID_14_">
				<use xlink:href="#SVGID_13_"  overflow="visible"/>
			</clipPath>
			<path clip-path="url(#SVGID_14_)" fill="#F2643F" d="M210.17,242.268c3.55-5.945,4.868-12.803,5.289-19.641
				c0.506-8.212-0.509-16.681,0.908-24.82c0.334-1.926,1.094-4.006,3.256-4.421c2.396-0.463,4.413,1.3,5.482,3.269
				c1.717,3.154,2.428,7.232,3.061,10.738c1.31,7.252,0.344,14.479-2.443,21.279c-1.327,3.233-2.966,7.358-5.764,9.608
				c-2.736,2.198-6.625,3.307-10.094,3.454c-0.454,0.02-0.457,0.727,0,0.707c3.086-0.131,6.26-1.004,8.947-2.537
				c2.829-1.613,4.39-4.326,5.823-7.162c3.481-6.876,5.489-14.563,4.68-22.294c-0.423-4.048-1.358-8.193-2.694-12.037
				c-0.958-2.759-2.842-5.653-6.068-5.812c-3.264-0.156-4.544,2.803-4.951,5.557c-0.682,4.617-0.632,9.354-0.641,14.011
				c-0.02,10.128-0.044,20.771-5.402,29.742C209.324,242.302,209.937,242.657,210.17,242.268"/>
		</g>
		<g>
			<defs>
				<rect id="SVGID_15_" x="175.887" y="166.35" width="53.609" height="108.238"/>
			</defs>
			<clipPath id="SVGID_16_">
				<use xlink:href="#SVGID_15_"  overflow="visible"/>
			</clipPath>
			<path clip-path="url(#SVGID_16_)" fill="#F2643F" d="M209.729,229.104c5.943-16.795-0.617-34.33-0.007-51.485
				c0.112-3.16,0.297-13.521,6.065-9.832c3.58,2.286,5.167,7.655,6.033,11.547c1.879,8.457,1.854,17.519,0.538,26.054
				c-0.699,4.534-1.516,9.736-3.692,13.824c-2.136,4.004-5.842,6.898-9.458,9.495c-0.367,0.264-0.015,0.876,0.355,0.61
				c3.162-2.271,6.313-4.713,8.578-7.922c2.568-3.635,3.482-8.319,4.332-12.608c1.811-9.13,2.039-18.699,0.381-27.872
				c-0.742-4.11-2.011-8.378-4.616-11.725c-1.728-2.223-5.173-4.317-7.363-1.435c-0.926,1.218-1.175,2.813-1.385,4.29
				c-0.355,2.527-0.506,5.081-0.517,7.633c-0.02,5.303,0.571,10.584,1.187,15.844c1.299,11.104,2.701,22.608-1.114,33.396
				C208.895,229.348,209.578,229.53,209.729,229.104"/>
		</g>
	</g>
</g>
<g opacity="0.24">
	<g>
		<g>
			<defs>
				<rect id="SVGID_17_" x="53.398" y="148.072" width="69.654" height="129.388"/>
			</defs>
			<clipPath id="SVGID_18_">
				<use xlink:href="#SVGID_17_"  overflow="visible"/>
			</clipPath>
			<path clip-path="url(#SVGID_18_)" fill="#F2643F" d="M94.82,276.072c1.692-16.832-8.887-31.703-14.765-46.688
				c-6.751-17.21-10.897-35.506-12.091-53.96c-0.51-7.873-0.417-17.273,5.226-23.484c3.211-3.536,8.018-4.305,11.352-0.465
				c2.967,3.42,2.879,8.233,2.78,12.494c-0.425,18.564-0.992,37.152,3.8,55.268c2.661,10.057,5.613,19.914,7.08,30.244
				c1.261,8.897,1.566,18.838-4.039,26.414c-0.271,0.366,0.342,0.72,0.609,0.357c4.769-6.441,5.335-14.682,4.648-22.41
				c-0.849-9.516-3.129-18.853-5.732-28.019c-2.773-9.771-4.883-19.456-5.565-29.62c-0.678-10.055-0.396-20.137-0.143-30.2
				c0.104-4.106,0.488-8.583-1.268-12.431c-1.254-2.747-3.8-5.212-6.93-5.473c-7.733-0.642-11.447,9.709-12.298,15.705
				c-1.212,8.564,0.072,17.634,1.331,26.125c1.428,9.619,3.625,19.125,6.571,28.396c3.093,9.734,7.299,18.855,11.563,28.111
				c4.282,9.301,8.212,19.199,7.161,29.637C94.067,276.523,94.774,276.521,94.82,276.072"/>
		</g>
		<g>
			<defs>
				<rect id="SVGID_19_" x="53.398" y="148.072" width="69.654" height="129.388"/>
			</defs>
			<clipPath id="SVGID_20_">
				<use xlink:href="#SVGID_19_"  overflow="visible"/>
			</clipPath>
			<path clip-path="url(#SVGID_20_)" fill="#F2643F" d="M95.249,275.563c2.059-6.59,1.729-13.614,0.612-20.351
				c-1.208-7.31-3.303-14.489-5.764-21.47c-2.622-7.438-5.637-14.74-7.877-22.309c-2.263-7.653-3.746-15.537-4.426-23.49
				c-0.772-9.053-0.496-18.172,0.79-27.166c0.063-0.443-0.619-0.637-0.683-0.188c-2.173,15.188-1.471,30.719,2.178,45.627
				c3.676,15.014,10.695,28.934,14.089,44.045c1.834,8.172,2.941,16.967,0.396,25.111C94.43,275.809,95.113,275.996,95.249,275.563"
				/>
		</g>
		<g>
			<defs>
				<rect id="SVGID_21_" x="53.398" y="148.072" width="69.654" height="129.388"/>
			</defs>
			<clipPath id="SVGID_22_">
				<use xlink:href="#SVGID_21_"  overflow="visible"/>
			</clipPath>
			<path clip-path="url(#SVGID_22_)" fill="#F2643F" d="M95.213,274.588c8.611-15.122,10.618-32.244,8.728-49.343
				c-0.962-8.704-2.791-17.267-4.788-25.782c-2.124-9.06-3.549-17.979-1.083-27.137c2.002-7.434,7.233-17.494,16.55-15.926
				c3.942,0.664,6.463,3.894,7.325,7.625c0.891,3.841,0.15,7.67-1.028,11.356c-1.258,3.933-2.934,7.743-3.578,11.849
				c-0.65,4.138-0.373,8.332-0.019,12.483c0.787,9.208,0.695,18.319,0.206,27.543c-0.514,9.663-1.585,19.468-5.57,28.392
				c-3.469,7.769-9.088,15.095-17.142,18.42c-0.416,0.172-0.233,0.854,0.188,0.681c14.92-6.16,20.852-23.577,22.513-38.334
				c1.083-9.615,1.511-19.553,1.073-29.218c-0.215-4.74-0.912-9.458-0.938-14.207c-0.025-4.866,1.101-9.276,2.71-13.828
				c2.226-6.289,4.732-14.256,0.025-20.137c-4.544-5.678-12.79-3.594-17.105,1.188c-5.424,6.012-7.417,15.319-7.333,23.196
				c0.098,9.325,3.205,18.438,5.014,27.516c2.146,10.772,3.544,21.802,2.773,32.798c-0.751,10.75-3.796,21.137-9.133,30.508
				C94.377,274.627,94.987,274.982,95.213,274.588"/>
		</g>
		<g>
			<defs>
				<rect id="SVGID_23_" x="53.398" y="148.072" width="69.654" height="129.388"/>
			</defs>
			<clipPath id="SVGID_24_">
				<use xlink:href="#SVGID_23_"  overflow="visible"/>
			</clipPath>
			<path clip-path="url(#SVGID_24_)" fill="#F2643F" d="M95.623,274.467c7.869-9.813,13.823-22.285,15.15-34.885
				c0.815-7.766,0.021-15.737-0.292-23.516c-0.317-7.959-0.681-15.918-0.956-23.879c-0.257-7.531-0.138-15.664,4.61-21.935
				c0.275-0.362-0.338-0.717-0.61-0.356c-3.745,4.944-4.68,11.142-4.774,17.193c-0.117,7.54,0.468,15.121,0.771,22.652
				c0.319,7.945,0.877,15.924,0.828,23.877c-0.043,6.955-1.364,13.621-3.807,20.13c-2.725,7.254-6.568,14.167-11.419,20.216
				C94.841,274.316,95.337,274.821,95.623,274.467"/>
		</g>
		<g>
			<defs>
				<rect id="SVGID_25_" x="53.398" y="148.072" width="69.654" height="129.388"/>
			</defs>
			<clipPath id="SVGID_26_">
				<use xlink:href="#SVGID_25_"  overflow="visible"/>
			</clipPath>
			<path clip-path="url(#SVGID_26_)" fill="#F2643F" d="M90.879,277.111c-0.511-5.438-3.497-10.148-6.735-14.396
				c-3.498-4.585-7.44-8.741-11.309-13.006c-4.33-4.776-7.899-9.944-10.998-15.592c-2.986-5.447-6.247-10.96-7.243-17.175
				c-0.526-3.283-0.558-6.633-0.436-9.95c0.118-3.235,0.069-6.929,1.788-9.793c1.75-2.915,5.407-4.366,8.232-1.968
				c2.599,2.205,2.958,5.756,3.192,8.933c0.88,11.927,5.415,22.79,10.812,33.328c6.157,12.021,14.815,25.366,12,39.522
				c-0.087,0.444,0.593,0.635,0.684,0.188c2.508-12.609-4.026-24.767-9.712-35.543c-6.328-11.994-12.05-24.111-13.098-37.812
				c-0.325-4.248-1.842-10.996-7.48-10.574c-5.606,0.42-6.762,7.013-7.018,11.442c-0.371,6.48-0.274,13.106,2.274,19.183
				c2.485,5.932,5.808,11.826,9.328,17.201c4.012,6.133,9.297,11.149,14.064,16.666c4.715,5.453,10.244,11.863,10.945,19.342
				C90.212,277.561,90.921,277.564,90.879,277.111"/>
		</g>
		<g>
			<defs>
				<rect id="SVGID_27_" x="53.398" y="148.072" width="69.654" height="129.388"/>
			</defs>
			<clipPath id="SVGID_28_">
				<use xlink:href="#SVGID_27_"  overflow="visible"/>
			</clipPath>
			<path clip-path="url(#SVGID_28_)" fill="#F2643F" d="M90.879,276.618c-1.25-10.147-4.626-19.968-10.017-28.666
				c-5.558-8.97-13.438-16.5-16.928-26.666c-2.079-6.058-2.677-12.536-1.82-18.877c0.061-0.445-0.62-0.638-0.682-0.187
				c-1.4,10.35,1.117,20.476,6.774,29.205c2.818,4.348,6.132,8.342,9.144,12.553c3.228,4.513,5.963,9.33,8.08,14.461
				c2.398,5.813,3.972,11.939,4.739,18.177C90.226,277.063,90.933,277.068,90.879,276.618"/>
		</g>
	</g>
</g>
<g opacity="0.24">
	<g>
		<g>
			<defs>
				<rect id="SVGID_29_" x="392.293" y="181.359" width="70.123" height="101.705"/>
			</defs>
			<clipPath id="SVGID_30_">
				<use xlink:href="#SVGID_29_"  overflow="visible"/>
			</clipPath>
			<path clip-path="url(#SVGID_30_)" fill="#F2643F" d="M430.681,282.691c-4.511-16.885-3.396-34.989,3.134-51.201
				c0.146-0.358-0.437-0.516-0.581-0.159c-6.565,16.305-7.668,34.541-3.133,51.522C430.199,283.229,430.781,283.068,430.681,282.691
				"/>
		</g>
		<g>
			<defs>
				<rect id="SVGID_31_" x="392.293" y="181.359" width="70.123" height="101.705"/>
			</defs>
			<clipPath id="SVGID_32_">
				<use xlink:href="#SVGID_31_"  overflow="visible"/>
			</clipPath>
			<path clip-path="url(#SVGID_32_)" fill="#F2643F" d="M430.209,241.821c-2.166-3.912-3.723-8.128-4.543-12.526
				c-0.104-0.556-0.328-1.393-0.263-1.936c0.15-1.242,0.86-1.51,1.773-1.748c0.753-0.199,1.535-0.211,2.255-0.545
				c0.731-0.342,1.614-1.051,1.438-1.981c-0.211-1.104-1.756-1.963-2.597-2.498c-1.904-1.213-3.249-2.585-3.144-5.017
				c0.098-2.192,1.343-4.103,2.574-5.834c0.554-0.774,0.855-1.249,1.79-1.571c0.861-0.297,1.334-0.214,2.214-0.101l3.836,0.502
				c0.134,0.018,0.252-0.105,0.289-0.222c0.926-2.798-3.043-4.12-4.09-6.168c-0.724-1.415,0.504-2.483,1.433-3.421
				c1.12-1.128,2.239-2.257,3.358-3.387c1.912-1.926,3.799-3.876,5.791-5.717c3.779-3.496,8.612-7.317,13.977-7.676
				c7.727-0.518,5.292,8.604,3.925,13.016c-0.959,3.091-2.14,6.107-3.385,9.093c-0.395,0.942-0.795,1.882-1.197,2.82
				c-0.374,0.877-0.623,2.122-1.779,2.288c-0.741,0.104-1.752-0.25-2.511-0.363c-0.925-0.134-1.852-0.271-2.776-0.408
				c-0.144-0.02-0.347,0.035-0.37,0.212c-0.197,1.462,0.773,2.488,1.729,3.47c0.607,0.625,1.554,1.386,1.659,2.311
				c0.138,1.174-2.129,2.447-2.857,3.35c-1.552,1.92-2.27,4.313-3.489,6.428c-1.72,2.973-4.714,0.813-7.188,2.15
				c-0.188,0.1-0.207,0.426,0,0.521c1.523,0.697,3.526,2.094,4.029,3.811c0.395,1.352-2.781,3.254-3.744,4.02
				c-2.906,2.313-5.916,4.498-8.607,7.068c-0.28,0.269,0.146,0.692,0.427,0.426c4.009-3.828,8.723-6.817,12.748-10.631
				c0.071-0.065,0.115-0.197,0.078-0.291c-0.878-2.222-2.453-3.924-4.627-4.923v0.521c2.161-1.169,4.941,0.657,6.771-1.438
				c1.914-2.189,2.353-5.361,4.313-7.572c1.078-1.217,3.419-2.095,2.587-4.096c-0.724-1.742-3.529-2.853-3.245-4.962l-0.37,0.211
				c1.296,0.19,2.592,0.381,3.889,0.572c0.711,0.104,1.726,0.431,2.421,0.075c0.767-0.389,1.017-1.458,1.325-2.18
				c0.535-1.248,1.069-2.5,1.589-3.755c1.978-4.782,4.203-9.971,4.723-15.167c0.372-3.722-1.261-7.121-5.387-7.189
				c-4.32-0.072-8.604,2.563-11.882,5.125c-4.096,3.201-7.645,7.104-11.297,10.787c-1.084,1.095-3.08,2.449-2.896,4.22
				c0.127,1.229,1.19,2.153,2.052,2.923c0.514,0.459,1.055,0.895,1.521,1.402c0.27,0.291,0.559,0.615,0.722,0.982
				c0.077,0.172,0.157,0.366,0.163,0.557c0.018,0.646,0.02,0.403-0.406,0.529c-0.525,0.157-1.496-0.195-2.064-0.271
				c-0.688-0.091-1.376-0.201-2.065-0.269c-1.011-0.104-1.779-0.057-2.547,0.663c-1.505,1.413-2.858,3.78-3.441,5.753
				c-0.485,1.651-0.455,3.562,0.479,5.055c0.494,0.791,1.219,1.354,1.986,1.863c0.438,0.291,0.898,0.549,1.329,0.849
				c0.289,0.2,0.592,0.409,0.848,0.651c0.585,0.557,0.726,0.661,0.365,1.475c-0.644,1.443-2.271,1.052-3.554,1.596
				c-0.548,0.233-1.019,0.569-1.278,1.119c-0.476,0.997-0.069,2.336,0.125,3.348c0.29,1.498,0.663,2.979,1.118,4.438
				c0.864,2.771,2.029,5.429,3.436,7.968C429.878,242.465,430.398,242.16,430.209,241.821"/>
		</g>
		<g>
			<defs>
				<rect id="SVGID_33_" x="392.293" y="181.359" width="70.123" height="101.705"/>
			</defs>
			<clipPath id="SVGID_34_">
				<use xlink:href="#SVGID_33_"  overflow="visible"/>
			</clipPath>
			<path clip-path="url(#SVGID_34_)" fill="#F2643F" d="M415.87,277.879c3.352-12.545,2.522-25.998-2.327-38.042
				c-0.107-0.266,0.324-0.383,0.43-0.119c4.881,12.114,5.699,25.663,2.33,38.279C416.228,278.275,415.796,278.157,415.87,277.879"/>
		</g>
		<g>
			<defs>
				<rect id="SVGID_35_" x="392.293" y="181.359" width="70.123" height="101.705"/>
			</defs>
			<clipPath id="SVGID_36_">
				<use xlink:href="#SVGID_35_"  overflow="visible"/>
			</clipPath>
			<path clip-path="url(#SVGID_36_)" fill="#F2643F" d="M416.22,247.512c1.609-2.906,2.767-6.037,3.378-9.306
				c0.076-0.413,0.244-1.034,0.193-1.438c-0.11-0.924-0.64-1.119-1.317-1.3c-0.561-0.146-1.14-0.155-1.675-0.405
				c-0.544-0.252-1.199-0.778-1.067-1.472c0.154-0.819,1.302-1.456,1.928-1.854c1.415-0.902,2.415-1.922,2.335-3.729
				c-0.07-1.628-0.996-3.046-1.912-4.332c-0.409-0.576-0.635-0.929-1.33-1.168c-0.64-0.222-0.989-0.16-1.646-0.074
				c-0.948,0.125-1.898,0.248-2.849,0.373c-0.1,0.012-0.188-0.08-0.216-0.164c-0.688-2.078,2.262-3.063,3.04-4.582
				c0.536-1.053-0.375-1.848-1.065-2.541c-0.832-0.841-1.664-1.679-2.495-2.519c-1.419-1.431-2.822-2.88-4.303-4.246
				c-2.81-2.599-6.399-5.438-10.383-5.703c-5.74-0.384-3.933,6.392-2.917,9.671c0.714,2.295,1.591,4.536,2.517,6.754
				c0.292,0.7,0.59,1.398,0.888,2.099c0.28,0.651,0.464,1.575,1.323,1.696c0.553,0.08,1.303-0.186,1.864-0.268
				c0.688-0.102,1.376-0.203,2.063-0.303c0.105-0.018,0.258,0.023,0.273,0.154c0.146,1.086-0.574,1.851-1.283,2.578
				c-0.451,0.463-1.153,1.028-1.232,1.715c-0.101,0.873,1.58,1.817,2.125,2.489c1.15,1.427,1.686,3.205,2.594,4.774
				c1.274,2.208,3.499,0.605,5.338,1.598c0.141,0.075,0.154,0.317,0,0.387c-1.132,0.521-2.62,1.559-2.993,2.832
				c-0.293,1.006,2.065,2.418,2.781,2.987c2.158,1.72,4.396,3.345,6.395,5.25c0.209,0.199-0.105,0.515-0.314,0.316
				c-2.979-2.845-6.481-5.064-9.474-7.897c-0.053-0.049-0.086-0.146-0.059-0.217c0.653-1.65,1.824-2.915,3.438-3.658v0.387
				c-1.604-0.866-3.671,0.49-5.029-1.065c-1.423-1.628-1.748-3.984-3.205-5.627c-0.8-0.902-2.538-1.558-1.922-3.043
				c0.537-1.296,2.624-2.118,2.412-3.687c0.092,0.051,0.183,0.104,0.275,0.155c-0.965,0.142-1.927,0.283-2.891,0.425
				c-0.528,0.079-1.282,0.319-1.798,0.059c-0.569-0.289-0.756-1.084-0.984-1.619c-0.397-0.928-0.794-1.857-1.181-2.791
				c-1.471-3.551-3.124-7.407-3.509-11.268c-0.277-2.766,0.938-5.291,4.002-5.343c3.21-0.053,6.392,1.904,8.825,3.808
				c3.043,2.383,5.68,5.277,8.395,8.016c0.806,0.813,2.289,1.818,2.152,3.134c-0.095,0.914-0.886,1.601-1.523,2.172
				c-0.381,0.341-0.784,0.664-1.131,1.042c-0.2,0.219-0.415,0.457-0.538,0.731c-0.055,0.126-0.115,0.272-0.117,0.412
				c-0.015,0.48-0.017,0.301,0.3,0.395c0.394,0.116,1.112-0.146,1.534-0.202c0.51-0.065,1.022-0.147,1.534-0.199
				c0.752-0.075,1.324-0.039,1.894,0.496c1.117,1.049,2.123,2.807,2.558,4.271c0.36,1.227,0.337,2.646-0.356,3.755
				c-0.367,0.589-0.905,1.007-1.476,1.386c-0.323,0.217-0.667,0.405-0.988,0.629c-0.215,0.15-0.439,0.306-0.63,0.485
				c-0.435,0.413-0.539,0.491-0.271,1.095c0.479,1.072,1.688,0.781,2.64,1.187c0.407,0.173,0.756,0.424,0.95,0.831
				c0.352,0.74,0.053,1.734-0.094,2.486c-0.215,1.112-0.491,2.215-0.829,3.295c-0.644,2.062-1.51,4.037-2.555,5.923
				C416.467,247.99,416.08,247.766,416.22,247.512"/>
		</g>
	</g>
</g>
<path opacity="0.2" fill="#EFDED3" enable-background="new    " d="M458.188,284.408c0,6.152-94.556,11.141-211.2,11.141
	c-116.642,0-211.2-4.988-211.2-11.141c0-6.154,94.559-11.143,211.2-11.143C363.632,273.268,458.188,278.254,458.188,284.408"/>
<rect x="35.788" y="273.266" fill="none" width="422.398" height="22.283"/>
<g opacity="0.53">
	<g>
		<g>
			<defs>
				<rect id="SVGID_37_" x="328.185" y="45.584" width="41.19" height="32.438"/>
			</defs>
			<clipPath id="SVGID_38_">
				<use xlink:href="#SVGID_37_"  overflow="visible"/>
			</clipPath>
			<path clip-path="url(#SVGID_38_)" fill="#83B7E3" d="M369.377,78.021l-2.975-6.136V46.893c0-0.724-0.583-1.309-1.307-1.309
				h-35.604c-0.723,0-1.309,0.585-1.309,1.309v25.201c0,0.723,0.586,1.309,1.309,1.309h32.575L369.377,78.021z"/>
		</g>
		<g>
			<defs>
				<rect id="SVGID_39_" x="328.185" y="45.584" width="41.19" height="32.438"/>
			</defs>
			<clipPath id="SVGID_40_">
				<use xlink:href="#SVGID_39_"  overflow="visible"/>
			</clipPath>
			<path clip-path="url(#SVGID_40_)" fill="#FFFFFF" d="M331.017,52.621h17.764c0.386,0,0.386-0.597,0-0.597h-17.764
				C330.634,52.024,330.633,52.621,331.017,52.621"/>
		</g>
		<g>
			<defs>
				<rect id="SVGID_41_" x="328.185" y="45.584" width="41.19" height="32.438"/>
			</defs>
			<clipPath id="SVGID_42_">
				<use xlink:href="#SVGID_41_"  overflow="visible"/>
			</clipPath>
			<path clip-path="url(#SVGID_42_)" fill="#FFFFFF" d="M331.017,55.92h17.764c0.386,0,0.386-0.597,0-0.597h-17.764
				C330.634,55.324,330.633,55.92,331.017,55.92"/>
		</g>
		<g>
			<defs>
				<rect id="SVGID_43_" x="328.185" y="45.584" width="41.19" height="32.438"/>
			</defs>
			<clipPath id="SVGID_44_">
				<use xlink:href="#SVGID_43_"  overflow="visible"/>
			</clipPath>
			<path clip-path="url(#SVGID_44_)" fill="#FFFFFF" d="M331.017,59.22h17.764c0.386,0,0.386-0.597,0-0.597h-17.764
				C330.634,58.624,330.633,59.22,331.017,59.22"/>
		</g>
		<g>
			<defs>
				<rect id="SVGID_45_" x="328.185" y="45.584" width="41.19" height="32.438"/>
			</defs>
			<clipPath id="SVGID_46_">
				<use xlink:href="#SVGID_45_"  overflow="visible"/>
			</clipPath>
			<path clip-path="url(#SVGID_46_)" fill="#FFFFFF" d="M344.804,64.422h17.764c0.385,0,0.385-0.597,0-0.597h-17.764
				C344.421,63.826,344.421,64.422,344.804,64.422"/>
		</g>
		<g>
			<defs>
				<rect id="SVGID_47_" x="328.185" y="45.584" width="41.19" height="32.438"/>
			</defs>
			<clipPath id="SVGID_48_">
				<use xlink:href="#SVGID_47_"  overflow="visible"/>
			</clipPath>
			<path clip-path="url(#SVGID_48_)" fill="#FFFFFF" d="M344.804,66.524h17.764c0.385,0,0.385-0.597,0-0.597h-17.764
				C344.421,65.927,344.421,66.524,344.804,66.524"/>
		</g>
		<g>
			<defs>
				<rect id="SVGID_49_" x="328.185" y="45.584" width="41.19" height="32.438"/>
			</defs>
			<clipPath id="SVGID_50_">
				<use xlink:href="#SVGID_49_"  overflow="visible"/>
			</clipPath>
			<path clip-path="url(#SVGID_50_)" fill="#FFFFFF" d="M344.804,68.625h17.764c0.385,0,0.385-0.597,0-0.597h-17.764
				C344.421,68.029,344.421,68.625,344.804,68.625"/>
		</g>
	</g>
</g>
<g opacity="0.53">
	<g>
		<g>
			<defs>
				<rect id="SVGID_51_" x="192.469" y="66.043" width="64.575" height="50.852"/>
			</defs>
			<clipPath id="SVGID_52_">
				<use xlink:href="#SVGID_51_"  overflow="visible"/>
			</clipPath>
			<path clip-path="url(#SVGID_52_)" fill="#83B7E3" d="M192.468,116.895l4.659-9.62v-39.18c0-1.133,0.918-2.052,2.051-2.052h55.813
				c1.134,0,2.053,0.919,2.053,2.052v39.506c0,1.134-0.919,2.052-2.053,2.052h-51.065L192.468,116.895z"/>
		</g>
		<g>
			<defs>
				<rect id="SVGID_53_" x="192.469" y="66.043" width="64.575" height="50.852"/>
			</defs>
			<clipPath id="SVGID_54_">
				<use xlink:href="#SVGID_53_"  overflow="visible"/>
			</clipPath>
			<path clip-path="url(#SVGID_54_)" fill="#FFFFFF" d="M252.604,77.074h-27.848c-0.603,0-0.604-0.937,0-0.937h27.848
				C253.206,76.138,253.207,77.074,252.604,77.074"/>
		</g>
		<g>
			<defs>
				<rect id="SVGID_55_" x="192.469" y="66.043" width="64.575" height="50.852"/>
			</defs>
			<clipPath id="SVGID_56_">
				<use xlink:href="#SVGID_55_"  overflow="visible"/>
			</clipPath>
			<path clip-path="url(#SVGID_56_)" fill="#FFFFFF" d="M252.604,82.247h-27.848c-0.603,0-0.604-0.935,0-0.935h27.848
				C253.206,81.312,253.207,82.247,252.604,82.247"/>
		</g>
		<g>
			<defs>
				<rect id="SVGID_57_" x="192.469" y="66.043" width="64.575" height="50.852"/>
			</defs>
			<clipPath id="SVGID_58_">
				<use xlink:href="#SVGID_57_"  overflow="visible"/>
			</clipPath>
			<path clip-path="url(#SVGID_58_)" fill="#FFFFFF" d="M252.604,87.419h-27.848c-0.603,0-0.604-0.935,0-0.935h27.848
				C253.206,86.484,253.207,87.419,252.604,87.419"/>
		</g>
		<g>
			<defs>
				<rect id="SVGID_59_" x="192.469" y="66.043" width="64.575" height="50.852"/>
			</defs>
			<clipPath id="SVGID_60_">
				<use xlink:href="#SVGID_59_"  overflow="visible"/>
			</clipPath>
			<path clip-path="url(#SVGID_60_)" fill="#FFFFFF" d="M230.989,95.575h-27.846c-0.603,0-0.603-0.936,0-0.936h27.846
				C231.592,94.64,231.593,95.575,230.989,95.575"/>
		</g>
		<g>
			<defs>
				<rect id="SVGID_61_" x="192.469" y="66.043" width="64.575" height="50.852"/>
			</defs>
			<clipPath id="SVGID_62_">
				<use xlink:href="#SVGID_61_"  overflow="visible"/>
			</clipPath>
			<path clip-path="url(#SVGID_62_)" fill="#FFFFFF" d="M230.989,98.87h-27.846c-0.603,0-0.603-0.935,0-0.935h27.846
				C231.592,97.935,231.593,98.87,230.989,98.87"/>
		</g>
		<g>
			<defs>
				<rect id="SVGID_63_" x="192.469" y="66.043" width="64.575" height="50.852"/>
			</defs>
			<clipPath id="SVGID_64_">
				<use xlink:href="#SVGID_63_"  overflow="visible"/>
			</clipPath>
			<path clip-path="url(#SVGID_64_)" fill="#FFFFFF" d="M230.989,102.165h-27.846c-0.603,0-0.603-0.936,0-0.936h27.846
				C231.592,101.229,231.593,102.165,230.989,102.165"/>
		</g>
	</g>
</g>
<path fill="#ECAB95" d="M114.608,261.499c0.319,4.924,0.08,9.884-0.717,14.754c-0.046,0.295-0.096,0.606,0.009,0.888
	c0.151,0.411,0.583,0.639,0.983,0.821c6.088,2.8,12.822,4.185,19.521,4.015c-0.64-0.676-1.466-1.138-2.243-1.644
	c-6.106-3.979-9.632-11.591-8.718-18.822"/>
<path fill="#0B3B57" d="M120.3,278.582c1.485,0.782,3.09,1.516,4.766,1.415c1.676-0.103,3.398-1.325,3.483-3.002
	c2.623,0.087,4.644,2.245,7,3.401c3.598,1.765,7.895,1.138,11.762,2.18c0.917,0.246,1.864,0.628,2.416,1.402
	c0.552,0.772,0.504,2.029-0.314,2.515c-0.265,0.157-0.573,0.217-0.875,0.271c-8.384,1.527-17.088,1.248-25.355-0.811
	c-0.837-0.209-1.712-0.436-2.551-0.233c-0.584,0.143-1.107,0.484-1.692,0.63c-0.719,0.178-1.475,0.043-2.203-0.092
	c-1.375-0.253-2.752-0.507-4.127-0.761c-0.396-0.071-0.822-0.163-1.089-0.464c-0.211-0.237-0.283-0.565-0.339-0.879
	c-0.337-1.883,0.645-3.428,0.844-5.331c0.086-0.813,0.771-2.56,1.315-3.17c1.075-1.206,1.467-0.368,2.924,0.327
	C117.719,276.679,119.021,277.665,120.3,278.582"/>
<path fill="#ECAB95" d="M145.202,259.571c-1.189,4.79-2.925,9.442-5.161,13.843c-0.137,0.266-0.276,0.548-0.264,0.847
	c0.021,0.438,0.364,0.786,0.689,1.083c4.952,4.516,10.947,7.877,17.381,9.748c-0.403-0.837-1.05-1.527-1.638-2.246
	c-4.612-5.645-5.661-13.967-2.594-20.58"/>
<path fill="#0B3B57" d="M144.613,277.555c1.338,0.969,2.796,1.907,4.442,2.043c1.646,0.135,3.494-0.813,3.812-2.434
	c2.542,0.45,4.208,2.834,6.34,4.289c3.255,2.221,7.525,2.212,11.147,3.766c0.857,0.369,1.727,0.874,2.155,1.703
	c0.429,0.832,0.207,2.05-0.657,2.407c-0.28,0.114-0.589,0.129-0.892,0.142c-8.375,0.313-16.813-1.177-24.573-4.336
	c-0.786-0.32-1.606-0.664-2.452-0.586c-0.589,0.057-1.146,0.318-1.734,0.377c-0.727,0.072-1.443-0.162-2.134-0.396
	c-1.304-0.439-2.608-0.88-3.912-1.318c-0.376-0.126-0.778-0.272-0.996-0.604c-0.172-0.262-0.195-0.59-0.206-0.903
	c-0.066-1.881,1.105-3.247,1.567-5.071c0.196-0.781,1.107-2.385,1.724-2.904c1.217-1.022,1.479-0.152,2.803,0.729
	C142.367,275.34,143.496,276.482,144.613,277.555"/>
<path fill="#335BAA" d="M114.99,133.905c-3.834,18.146-1.021,36.952-1.35,55.495c-0.146,8.244-0.916,16.466-1.356,24.701
	c-0.898,16.822-0.415,33.717,1.441,50.461c4.026,0.613,8.123,0.752,12.18,0.416c1.179-12.02,2.352-24.041,3.527-36.061
	c0.678-6.934,1.359-13.882,2.778-20.705c1.018-4.89,2.412-9.695,3.499-14.57c1.786-8.007,2.736-16.17,3.659-24.319l18.096,39.054
	c0.885,1.913,1.785,3.871,1.996,5.968c0.249,2.476-0.479,4.933-1.213,7.308c-4.634,14.967-9.955,29.72-15.941,44.197
	c3.246,1.418,6.491,2.834,9.737,4.25c0.535,0.233,1.124,0.473,1.685,0.31c0.717-0.205,1.094-0.972,1.387-1.658l18.784-44.144
	c2.021-4.748,4.083-9.778,3.428-14.894c-0.494-3.856-0.738-6.871-1.962-11.58c-1.141-4.391-3.389-10.19-4.485-14.592
	c-4.448-17.835-10.384-33.415-14.831-51.25c-0.283-1.132-0.602-2.33-1.45-3.131c-0.743-0.704-1.779-0.989-2.771-1.238
	c-9.926-2.5-20.131-3.884-30.363-4.121c-1.595-0.036-3.338,0.004-4.565,1.025"/>
<path fill="#DB917D" d="M140.467,37.923c0.312,2.271,0.352,4.579,0.125,6.858c-0.114,1.133-0.301,2.284-0.831,3.292
	c-1.186,2.258-3.779,3.325-6.168,4.218c1.746,1.395,3.008,3.308,4.695,4.772c4.809,4.167,12.49,3.787,17.741,0.192
	c-3.276-1.963-4.161-6.993-1.747-9.955"/>
<path fill="#ECAB95" d="M161.791,27.573c0.445,7.207-1.638,14.544-5.799,20.444c-0.951,1.345-2.144,2.704-3.763,3.007
	c-1.164,0.219-2.361-0.155-3.426-0.679c-4.98-2.448-7.762-7.949-8.945-13.374c-1.364-6.258-0.704-13.616,4.116-17.835"/>
<path fill="#ECAB95" d="M140.007,36.989c-2.257-1.193-3.672-3.815-3.429-6.357c0.032-0.347,0.104-0.712,0.35-0.959
	c0.347-0.351,0.943-0.335,1.375-0.098c0.432,0.237,0.74,0.646,1.037,1.041"/>
<path fill="#0B3B57" d="M137.769,29.886c-0.767-4.153-0.812-8.478,1.132-12.228c1.694-3.269,5.024-5.56,8.632-6.299
	c3.607-0.741,7.438-0.009,10.693,1.71c1.99,1.05,3.816,2.47,5.979,3.089c2.225,0.638,4.831,0.458,6.559,1.998
	c1.221,1.087,1.686,2.804,1.761,4.438c0.274,5.792-4.084,11.463-9.752,12.69c-0.44,0.096-1,0.119-1.235-0.266
	c-0.13-0.21-0.111-0.479-0.077-0.724c0.227-1.638,0.782-3.639-0.495-4.689c-4.125,1.857-9.09,0.713-12.918-1.7
	c-1.579-0.995-3.604-2.216-5.128-1.14c-1.194,0.843-1.214,2.557-1.381,4.011c-0.164,1.453-1.043,3.204-2.497,3.043
	C138.615,32.507,138.192,31.196,137.769,29.886"/>
<path fill="#29303A" d="M151.656,33.947c-1.461,0.324-3.073,0.179-4.144-0.966c-0.312-0.333-0.813,0.168-0.5,0.5
	c1.245,1.332,3.13,1.524,4.832,1.147C152.288,34.531,152.099,33.85,151.656,33.947"/>
<path fill="#0B3B57" d="M146.815,30.204c1.002-0.255,1.992-0.348,2.958,0.07c0.85,0.365,1.618,0.922,2.411,1.395
	c0.332,0.197,0.632-0.32,0.301-0.515c-0.937-0.559-1.864-1.268-2.917-1.601c-0.949-0.304-1.962-0.167-2.911,0.076
	C146.285,29.722,146.442,30.299,146.815,30.204"/>
<path fill="#0B3B57" d="M162.707,31.071c-0.854-0.485-1.787-0.88-2.785-0.845c-1.101,0.04-2.188,0.481-3.239,0.771
	c-0.37,0.101-0.212,0.677,0.16,0.576c2.071-0.567,3.551-1.134,5.563,0.013C162.74,31.777,163.041,31.261,162.707,31.071"/>
<path fill="#29303A" d="M155.731,34.983c0.472,0.641,1.444,0.729,2.19,0.708c0.999-0.027,1.897-0.604,2.732-1.103
	c0.392-0.232,0.035-0.845-0.355-0.61c-0.535,0.318-1.103,0.688-1.695,0.885c-0.463,0.153-1.877,0.284-2.259-0.238
	C156.077,34.264,155.462,34.615,155.731,34.983"/>
<path fill="#DB917D" d="M154.486,33.989c-0.221,2.2,0.294,3.906,0.458,6.11c0.023,0.327,0.007,0.74-0.294,0.876
	c-0.104,0.047-0.224,0.046-0.339,0.046c-0.833-0.008-1.667-0.015-2.5-0.022c-0.041,0-0.083-0.002-0.121-0.021
	c-0.092-0.048-0.092-0.177-0.077-0.28c0.198-1.437,0.713-2.806,1.227-4.161C153.103,35.833,154.535,31.563,154.486,33.989"/>
<path fill="#DB917D" d="M153.947,43.894c-0.803,0.02-1.606-0.036-2.399-0.167c-0.445-0.072-0.938-0.161-1.32,0.079
	c-0.047,0.028-0.093,0.068-0.099,0.121c-0.008,0.078,0.067,0.134,0.132,0.171c0.429,0.253,0.86,0.506,1.289,0.759
	c0.256,0.149,0.518,0.303,0.809,0.363c0.53,0.111,1.068-0.1,1.57-0.305c0.227-0.092,0.471-0.199,0.593-0.414
	c0.123-0.211,0.028-0.555-0.216-0.58"/>
<path fill="#F2643F" d="M135.445,51.552c2.695,5.101,8.553,7.801,14.262,6.976c1.939-0.282,3.822-0.872,4.833-2.552
	c0.637,0.757,1.581,1.158,2.482,1.564c0.548,0.248,1.144,0.427,1.599,0.818c1.103,0.949,0.957,2.666,0.729,4.102
	c-2.186,13.841-3.154,27.838-4.119,41.816c-0.264,3.831-0.529,7.662-0.794,11.493c-0.352,5.095-0.7,10.244,0.123,15.284
	c0.082,0.496,0.17,1.029-0.039,1.488c-0.298,0.651-1.074,0.909-1.77,1.08c-6.975,1.697-14.459,1.224-21.166-1.335
	c-1.229-0.47-2.543-1.119-3.022-2.343c-0.343-0.871-0.179-1.848-0.027-2.771c2.123-12.96,1.037-26.23,2.277-39.302
	c0.259-2.739,0.621-5.469,0.823-8.211c0.511-6.973-0.021-14.023-1.574-20.841c-0.263-1.148-0.553-2.349-0.26-3.491
	C130.447,52.815,133.086,52.192,135.445,51.552"/>
<path fill="#83B7E3" d="M154.714,56.085c-3.465,10.129-2.777,20.15-3.41,30.836c-0.244,4.132-0.711,8.25-0.854,12.385
	c-0.132,3.799,0.011,7.602,0.152,11.401c0.43,11.469,0.855,22.937,1.286,34.406c0.02,0.484,0.046,1.001,0.325,1.398
	c0.296,0.425,0.813,0.624,1.307,0.784c3.219,1.056,6.659,1.435,10.031,1.103c-0.484-10.139-1.3-20.263-2.452-30.35
	c-0.258-2.271-0.535-4.546-0.54-6.833c-0.005-2.701,0.369-5.387,0.742-8.064c1.256-9.016,2.517-18.054,4.74-26.881
	c1.076-4.27,2.339-8.955,0.402-12.909c-1.583-3.235-4.625-3.834-7.787-5.557C157.49,57.169,155.883,56.721,154.714,56.085"/>
<path fill="#76B2E1" d="M165.155,61.521c-1.851,1.611-1.39,4.877-1.508,7.554c-0.25,5.673-0.441,11.34-0.167,17.014
	c0.281,5.783,0.563,11.566,0.843,17.351c0.063,1.262,0.208,2.693,1.217,3.455c1.052,0.797,2.537,0.487,3.81,0.143
	c0.624-0.17,1.298-0.373,1.677-0.897c0.245-0.339,0.327-0.765,0.4-1.178c1.77-10.054,0.985-20.377-0.22-30.515
	c-0.223-1.869-0.46-3.746-0.982-5.555C169.511,66.435,167.452,62.144,165.155,61.521"/>
<path fill="#F04D23" d="M128.501,99.074c1.239,0.396,2.463-0.602,3.326-1.577c3.154-3.564,5.553-7.995,9.649-10.418
	c1.175-0.695,2.746-1.174,3.84-0.356c0.985,0.734,1.093,2.158,0.982,3.381c-0.454,5.035-3.07,9.68-6.459,13.432
	c-3.387,3.752-7.533,6.726-11.645,9.668"/>
<path fill="#F04D23" d="M128.463,118.711c4.453-4.562,8.958-9.076,13.511-13.537c0.996-0.974,2.181-2.018,3.568-1.897
	c1.179,0.104,2.147,1.085,2.518,2.209c0.37,1.123,0.236,2.353-0.063,3.499c-1.563,5.983-7.103,9.928-12.25,13.352
	c-4.148,2.757-8.298,5.516-12.446,8.274"/>
<path fill="#83B7E3" d="M133.599,52.042c0.162,4.33,0.326,8.659,0.488,12.988c0.105,2.845,0.215,5.695,0.599,8.518
	c0.472,3.478,1.363,6.894,1.732,10.384c0.364,3.454,0.214,6.94-0.001,10.409c-1.055,16.964-3.655,33.859-3.401,50.855
	c0.007,0.444,0,0.933-0.292,1.268c-0.303,0.347-0.813,0.411-1.272,0.433c-4.266,0.188-8.626-1.349-12.74-0.203
	c-1.865,0.52-3.621,1.583-5.561,1.59c-0.56,0.001-1.193-0.133-1.487-0.609c-0.264-0.427-0.165-0.973-0.066-1.464
	c1.805-8.927,0.953-18.156,1.565-27.244c0.815-12.119,4.24-24.008,4.264-36.152c0.008-3.881-0.333-7.754-0.676-11.622
	c-0.346-3.938-0.691-7.875-1.039-11.813C121.242,56.392,127.648,54.068,133.599,52.042"/>
<polygon fill="#D6DDE8" points="148.284,128.784 153.294,86.293 180.933,86.293 177.449,128.784 "/>
<path fill="#ECAB95" d="M113.068,106.938c9.893,2.723,20.18,4.008,30.438,3.803c1.719-0.035,3.616-0.186,4.82-1.414
	c1.036-1.054,1.458-2.81,2.853-3.293c0.349,1.031-0.417,2.329,0.26,3.182c0.561,0.705,1.66,0.529,2.521,0.263
	c2.549-0.787,5.039-1.764,7.442-2.919c0.438-0.21,1.14-0.311,1.243,0.162c0.024,0.106,0.003,0.218-0.02,0.324
	c-0.653,3.016-3.118,5.383-5.906,6.706c-2.789,1.324-5.897,1.764-8.955,2.191c-7.271,1.014-14.574,2.029-21.917,1.995
	c-7.342-0.034-14.78-1.155-21.443-4.242"/>
<path fill="#76B2E1" d="M115.711,59.378c4.183,6.103,4.894,14.205,3.367,21.444c-1.527,7.241-4.508,14.112-6.042,21.35
	c-0.354,1.664-0.558,3.61,0.587,4.869c-3.201,3.073-2.604,4.744-4.515,8.75c-0.177,0.373,0.033,0.463-0.478,1.148
	c-0.309,0.413-2.61-1.054-3.029-1.354c-3.167-2.267-4.934-2.773-5.158-6.663c-0.33-5.686,1.159-11.308,2.728-16.785
	c2.633-9.204,5.528-18.334,8.681-27.373C112.639,62.508,113.574,60.449,115.711,59.378"/>
<path fill="#ECAB95" d="M343.914,258.609c-1.862,3.061-0.646,7.234,1.84,9.814c2.486,2.579,5.945,3.936,9.29,5.219
	c4.787,1.834,9.571,3.668,14.358,5.502c0.848,0.323,1.876,1.131,1.396,1.898c-0.151,0.242-0.421,0.38-0.683,0.494
	c-3.942,1.714-8.458,0.462-12.67-0.4c-7.717-1.58-15.72-1.756-23.498-0.514c-1.995,0.316-4.776,0.22-5.137-1.768
	c-0.076-0.422-0.009-0.854,0.059-1.275l3.791-23.663"/>
<path fill="#0B3B57" d="M349.311,270.98c-0.69,0.242-1.388,1.351-1.958,2.229c-0.861,1.325-1.765,1.01-3.34,0.913
	c-1.579-0.1-3.063-0.74-4.521-1.355c-2.613-1.109-5.251-2.168-7.905-3.181c-0.438-0.166-0.932-0.332-1.364-0.151
	c-0.544,0.227-0.744,0.877-0.878,1.449c-0.481,2.035-0.962,4.068-1.443,6.103c-0.141,0.6-0.282,1.233-0.093,1.816
	c0.146,0.445,0.468,0.812,0.818,1.118c2.55,2.239,6.378,1.858,9.757,1.559c6.864-0.608,13.807-0.33,20.601,0.828
	c4.173,0.711,8.911,1.625,12.273-0.944c0.604-0.462,1.175-1.236,0.849-1.921c-0.168-0.347-0.52-0.556-0.856-0.735
	c-2.133-1.138-4.447-1.887-6.747-2.631c-2.758-0.892-5.513-1.782-8.269-2.673C353.85,272.632,350.644,271.178,349.311,270.98"/>
<path fill="#0B3B57" d="M329.615,167.59c12.606,0.825,18.791,3.854,20.785,8.089c1.994,4.236,1.636,11.363,1.661,16.046
	c0.121,22.978-3.697,45.771-7.504,68.433c-0.063,0.378-0.136,0.774-0.381,1.069c-0.464,0.551-1.312,0.508-2.026,0.416
	c-3.19-0.408-6.382-0.816-9.573-1.225c-0.539-0.07-1.12-0.159-1.506-0.542c-0.441-0.438-0.491-1.127-0.515-1.751
	c-0.638-17.288-2.199-27.409-1.938-48.007c0.131-10.255,3.626-22.574-4.104-23.104c-7.253-0.496,3.919-12.787,9.025-16.658"/>
<path fill="#0B3B57" d="M285.518,189.273c-16.216,26.398-21.942,57.071-27.27,87.146c-0.313,1.767,2.39,2.522,2.705,0.745
	c5.282-29.832,10.896-60.281,26.986-86.477C288.887,189.146,286.461,187.736,285.518,189.273"/>
<path fill="#0B3B57" d="M310.234,189.273c16.215,26.398,21.941,57.071,27.27,87.146c0.313,1.767-2.391,2.522-2.706,0.745
	c-5.282-29.832-10.896-60.281-26.985-86.477C306.863,189.146,309.287,187.736,310.234,189.273"/>
<rect x="266.365" y="182.331" fill="#83B7E3" width="59.888" height="7.284"/>
<path fill="#DB917D" d="M309.928,74.866c-1.244,2.829-1.958,5.876-2.241,8.952c-0.247,2.672-0.155,5.459,0.962,7.898
	c1.118,2.438,3.441,4.461,6.121,4.597c-0.989,1.325-1.983,2.659-3.175,3.804c-3.304,3.174-8.11,4.707-12.643,4.03
	c-4.529-0.677-8.682-3.548-10.912-7.549c3.144-0.481,5.539-3.372,6.184-6.485c0.646-3.114-0.184-6.364-1.502-9.256"/>
<path fill="#83B7E3" d="M292.571,93.904c4.796,3.37,10.907,4.318,15.523,0.708c0.407-0.317,0.813-0.673,1.315-0.782
	c0.458-0.097,0.931,0.025,1.384,0.148c4.661,1.258,9.322,2.518,13.985,3.777c0.427,0.114,0.883,0.249,1.16,0.592
	c0.294,0.367,0.313,0.878,0.313,1.348c0.024,18.027-3.724,36.025-2.156,53.984c0.068,0.793,0.128,1.664-0.342,2.305
	c-0.535,0.729-1.543,0.886-2.443,0.98c-3.195,0.342-6.401,0.682-9.616,0.645c-8.463-0.096-16.911-2.795-25.272-1.492
	c-2.438,0.38-4.845,1.101-7.312,1.051c-0.464-0.007-0.987-0.074-1.265-0.445c-0.217-0.293-0.217-0.684-0.206-1.047
	c0.295-11.97-0.246-23.958-1.618-35.852c-0.692-6-1.6-12.054-0.885-18.05c0.098-0.825,0.257-1.704,0.843-2.292
	c0.445-0.444,1.068-0.648,1.669-0.839C282.622,97.064,287.597,95.483,292.571,93.904"/>
<path fill="#76B2E1" d="M325.428,97.97c-3.528,7.868-4.556,17.525-2.327,25.854c0.945,3.542,2.401,6.922,3.851,10.29
	c1.368,3.176,2.734,6.351,4.103,9.526c0.101,0.233,0.202,0.482,0.153,0.73c-0.088,0.446-0.589,0.656-1.024,0.789
	c-5.812,1.761-11.838,2.679-17.774,3.96c-0.302,0.066-0.631,0.147-0.82,0.393c-0.227,0.287-0.18,0.696-0.121,1.061
	c0.289,1.853,0.69,3.895,2.186,5.026c0.723,0.547,1.612,0.809,2.493,1.025c8.589,2.128,17.66,1.166,26.289-0.787
	c1.335-0.303,2.839-0.768,3.399-2.014c0.361-0.81,0.223-1.743,0.073-2.616c-1.586-9.426-3.182-18.89-6.122-27.984
	c-2.943-9.094-7.302-17.87-13.82-24.858C325.801,98.205,325.709,97.977,325.428,97.97"/>
<path fill="#76B2E1" d="M276.634,99.118c3.527,7.867,4.556,17.524,2.327,25.852c-0.947,3.543-2.401,6.922-3.852,10.291
	c-1.367,3.175-2.733,6.353-4.102,9.526c-0.103,0.232-0.204,0.482-0.154,0.73c0.087,0.446,0.59,0.656,1.023,0.788
	c5.812,1.762,11.84,2.68,17.772,3.961c0.306,0.065,0.634,0.148,0.824,0.392c0.227,0.289,0.179,0.697,0.122,1.059
	c-0.292,1.854-0.692,3.896-2.187,5.029c-0.724,0.547-1.612,0.808-2.493,1.023c-8.589,2.131-17.66,1.166-26.289-0.785
	c-1.336-0.305-2.84-0.768-3.4-2.015c-0.36-0.81-0.222-1.743-0.074-2.616c1.588-9.426,3.184-18.89,6.124-27.983
	c2.94-9.095,7.301-17.872,13.819-24.858C276.26,99.352,276.353,99.123,276.634,99.118"/>
<path fill="#0B3B57" d="M250.926,173.374c3.988-2.922,3.316-4.296,12.932-6.217c14.226-2.843,7.474-8.875,11.594-10.667
	c5.39-2.344,11.355,1.188,17.019-0.377c1.888-0.521,3.87-0.551,5.827-0.576c4.603-0.061,9.206-0.12,13.809-0.18
	c1.779-0.021,3.587-0.043,5.306,0.425c1.678,0.455,3.193,1.354,4.687,2.243c3.612,2.151,7.224,4.304,10.834,6.455
	c4.019,2.392,8.287,5.065,10.091,9.381c0.694,1.664,0.957,3.615,0.208,5.257c-1.123,2.453-4.032,3.446-6.648,4.103
	c-7.65,1.924-15.633,3.158-23.421,1.906c-5.933-0.958-10.876-1.602-16.85-0.945c-3.87,0.424-9.972,1.217-14.789,1.791
	c-10.719,1.272-19.078,2.256-28.874-2.274"/>
<path fill="#ECAB95" d="M251.764,258.609c1.862,3.061,0.646,7.234-1.84,9.814c-2.486,2.579-5.946,3.936-9.291,5.219
	c-4.787,1.834-9.571,3.668-14.359,5.502c-0.844,0.323-1.875,1.131-1.396,1.898c0.15,0.242,0.421,0.38,0.682,0.494
	c3.942,1.714,8.457,0.462,12.669-0.4c7.718-1.58,15.721-1.756,23.5-0.514c1.994,0.316,4.776,0.22,5.137-1.768
	c0.076-0.422,0.009-0.854-0.06-1.275l-3.791-23.663"/>
<path fill="#0B3B57" d="M246.369,270.98c0.688,0.242,1.386,1.351,1.958,2.229c0.859,1.325,1.763,1.01,3.338,0.913
	c1.58-0.1,3.064-0.74,4.52-1.355c2.616-1.109,5.252-2.168,7.906-3.181c0.438-0.166,0.931-0.332,1.365-0.151
	c0.542,0.227,0.743,0.877,0.878,1.449c0.479,2.035,0.962,4.068,1.442,6.103c0.142,0.6,0.281,1.233,0.093,1.816
	c-0.146,0.445-0.467,0.812-0.817,1.118c-2.551,2.239-6.377,1.858-9.758,1.559c-6.864-0.608-13.808-0.33-20.601,0.828
	c-4.174,0.711-8.912,1.625-12.273-0.944c-0.604-0.462-1.175-1.236-0.849-1.921c0.167-0.347,0.52-0.556,0.857-0.735
	c2.133-1.138,4.447-1.887,6.747-2.631c2.756-0.892,5.512-1.782,8.268-2.673C241.829,272.632,245.035,271.178,246.369,270.98"/>
<path fill="#0B3B57" d="M266.063,167.59c-12.604,0.825-18.793,3.854-20.787,8.089c-1.994,4.236-1.635,11.363-1.661,16.046
	c-0.122,22.978,3.697,45.771,7.505,68.433c0.063,0.378,0.135,0.774,0.382,1.069c0.464,0.551,1.31,0.508,2.022,0.416
	c3.191-0.408,6.383-0.816,9.574-1.225c0.54-0.07,1.12-0.159,1.507-0.542c0.442-0.438,0.491-1.127,0.516-1.751
	c0.637-17.288,2.197-27.409,1.938-48.007c-0.13-10.255-3.628-22.574,4.104-23.104c7.254-0.496-3.918-12.787-9.026-16.658"/>
<path fill="#D6DDE8" d="M320.649,161.219h-52.56c-2.315,0-4.193-1.877-4.193-4.193v-28.132c0-2.317,1.878-4.196,4.193-4.196h52.56
	c2.318,0,4.196,1.878,4.196,4.196v28.132C324.846,159.342,322.968,161.219,320.649,161.219"/>
<path fill="#C2C8D2" d="M296.004,142.527c0,1.774-1.438,3.213-3.213,3.213c-1.773,0-3.21-1.438-3.21-3.213
	c0-1.772,1.437-3.211,3.21-3.211C294.566,139.316,296.004,140.755,296.004,142.527"/>
<path fill="#ECAB95" d="M290.688,51.199c-1.099,1.67-1.813,3.594-2.067,5.579c-0.262,2.038-0.045,4.108-0.18,6.159
	c-0.104,1.606-0.088,3.781-0.161,5.389c-0.213,4.759,1.385,8.734,3.281,13.104c0.724,1.66,1.469,3.36,2.722,4.667
	c1.252,1.309,3.148,1.428,4.901,0.976c0.886-0.229,3.688-1.813,4.406-2.373c5.401-4.221,6.899-8.95,7.498-15.78
	c0.181-2.047,0.106-4.107,0.033-6.163c-0.073-2.039-0.149-4.108-0.773-6.05c-0.623-1.942-1.876-3.776-3.729-4.632"/>
<path fill="#0B3B57" d="M311.663,69.522c-0.327,0.955-1.252,2.075-2.115,1.555c-0.425-0.256-0.558-0.797-0.652-1.28
	c-0.305-1.554-0.606-3.134-1.314-4.551c-0.703-1.417-1.886-2.677-3.41-3.104c-2.805-0.785-5.514,1.368-8.359,1.979
	c-2.726,0.586-5.563-0.283-8.063-1.518c-1.77-0.875-3.588-2.129-4.055-4.046c-0.45-1.856,0.507-3.744,1.54-5.349
	c1.777-2.758,3.928-5.345,6.688-7.12c2.761-1.776,6.193-2.672,9.387-1.912c2.176,0.517,4.112,1.753,6.242,2.437
	c1.13,0.363,2.316,0.568,3.396,1.063c2.484,1.142,4.087,3.705,4.72,6.365c0.635,2.66,0.438,5.439,0.188,8.165
	c-0.357,3.906-0.831,7.875-2.426,11.458c-1.163,2.613-2.598,5.224-5.34,6.036"/>
<path fill="#DB917D" d="M294.513,79.376c1.787,0.179,4.975,0.228,6.725-0.172c-0.525,0.661-1.163,1.235-1.879,1.689
	c-0.831,0.529-1.479,0.613-2.461,0.516c-0.357-0.036-1.089-0.433-1.287-0.639C295.413,80.566,294.783,79.905,294.513,79.376"/>
<path fill="#DB917D" d="M297.221,69.188c-0.65,2.244-1.302,4.49-1.953,6.734c-0.056,0.197-0.099,0.446,0.06,0.576
	c0.091,0.075,0.218,0.082,0.336,0.084c0.688,0.019,1.377,0.037,2.064,0.054c0.195,0.006,0.422-0.002,0.542-0.155
	c0.102-0.132,0.085-0.317,0.063-0.481C298.038,73.837,297.514,71.347,297.221,69.188"/>
<path fill="#0B3B57" d="M299.218,64.828c2.237-0.376,4.438-0.224,6.608,0.437c0.368,0.112,0.524-0.464,0.157-0.576
	c-2.276-0.693-4.578-0.832-6.927-0.436C298.682,64.317,298.84,64.892,299.218,64.828"/>
<path fill="#0B3B57" d="M293.938,64.52c-1.71-0.362-3.415-0.416-5.146-0.177c-0.379,0.053-0.218,0.628,0.159,0.575
	c1.618-0.223,3.227-0.16,4.827,0.178C294.153,65.175,294.313,64.6,293.938,64.52"/>
<path fill="#29303A" d="M300.084,68.72c1.646,0.919,3.632,0.83,5.17-0.271c0.368-0.264,0.014-0.877-0.356-0.61
	c-1.338,0.957-3.01,1.076-4.456,0.27C300.044,67.887,299.687,68.498,300.084,68.72"/>
<path fill="#29303A" d="M293.632,68.042c-1.138,0.565-2.478,0.375-3.418-0.478c-0.338-0.306-0.839,0.194-0.5,0.5
	c1.185,1.074,2.844,1.299,4.274,0.587C294.395,68.449,294.037,67.838,293.632,68.042"/>
<circle fill="none" stroke="#29303A" stroke-width="0.5" stroke-miterlimit="10" cx="291.879" cy="68.781" r="3.336"/>
<circle fill="none" stroke="#29303A" stroke-width="0.5" stroke-miterlimit="10" cx="302.521" cy="68.781" r="3.338"/>
<path fill="none" stroke="#29303A" stroke-width="0.5" stroke-miterlimit="10" d="M295.357,68.159c0,0,1.96-1.039,3.717,0"/>
<path fill="#ECAB95" d="M310.508,71.037c0.234-0.828,0.69-1.593,1.31-2.193c0.146-0.143,0.326-0.286,0.529-0.266
	c0.233,0.024,0.388,0.251,0.48,0.468c0.515,1.199,0.105,2.57-0.304,3.807c-0.26,0.783-0.532,1.589-1.089,2.197
	c-0.559,0.607-1.479,0.961-2.228,0.614"/>
<line fill="none" stroke="#29303A" stroke-width="0.5" stroke-miterlimit="10" x1="305.859" y1="68.326" x2="310.013" y2="68.159"/>
<path fill="#0B3B57" d="M290.75,129.036c5.255,10.519,10.511,21.038,15.766,31.559c0.142,0.284,0.487,0.455,0.795,0.455h38.143
	c1.187,0,1.188-1.843,0-1.843h-31.906c-1.702,0-4.03-0.422-5.689,0c-0.916,0.232-0.103-0.268,0.191,0.341
	c-0.25-0.518-0.514-1.026-0.771-1.542c-2.68-5.361-5.357-10.727-8.038-16.089c-2.299-4.604-4.6-9.208-6.897-13.812
	C291.812,127.045,290.222,127.977,290.75,129.036"/>
<path fill="#083C58" d="M343.877,250.648c1.744,5.576,4.022,10.986,5.562,16.627c1.539,5.64,2.318,11.633,1,17.33
	c-0.426,1.843-1.067,3.632-1.705,5.412c0.01,2.002,2.475-0.361,3.363-1.289c2.172-2.266,3.812-5.039,4.743-8.037
	c1.815-5.838,0.995-12.44,3.854-17.849c0.706-1.34,1.636-2.586,2.041-4.044c0.409-1.458,0.138-3.264-1.137-4.085
	c-0.492-0.317-1.075-0.454-1.639-0.62c-5.58-1.636-9.916-6.876-10.481-12.664"/>
<path fill="#F04D23" d="M320.207,179.178c-0.784,6.023-2.197,13.768-0.172,19.494c6.866,19.404,16.021,37.514,24.973,56.044
	c0.082,0.172-0.187-0.039,0,0c0.163,0.036-0.163,0.042,0,0c3.338-0.835,6.271-2.961,8.388-4.362
	c-3.982-16.188-5.267-33.543-13.993-47.748c-1.608-2.621-3.479-5.15-4.361-8.097s-0.543-6.517,1.763-8.553
	c3.055-2.692,8.604-2.052,10.539-5.635"/>
<path fill="#DE9886" d="M388.585,86.152c2.017,2.75,2.38,6.363,2.355,9.771c-0.008,0.933-0.039,1.875-0.276,2.776
	c-0.213,0.813-0.587,1.573-0.96,2.325c-1.819,3.673-3.668,7.332-5.543,10.974c1.789,0.344,3.525-0.685,5.059-1.671
	c2.143-1.379,4.288-2.759,6.433-4.139c3.493-2.249,7.005-4.509,10.095-7.286c-1.573-1.402-2.834-3.157-3.656-5.099
	c-1.327-3.127-1.499-6.631-1.24-10.021c0.259-3.387,0.931-6.733,1.221-10.12"/>
<path fill="#083C58" d="M316.808,256.09c-0.372,5.835-0.188,11.7-0.774,17.518c-0.59,5.815-2.012,11.689-5.285,16.533
	c-1.061,1.567-2.302,3.006-3.535,4.439c-0.709,1.873,2.438,0.55,3.603,0.005c2.841-1.334,5.365-3.337,7.312-5.798
	c3.791-4.799,5.394-11.258,10.004-15.277c1.142-0.994,2.454-1.826,3.359-3.041c0.903-1.215,1.297-2.998,0.403-4.222
	c-0.347-0.474-0.841-0.81-1.307-1.165c-4.622-3.53-6.789-9.979-5.238-15.583"/>
<path fill="#F2643F" d="M417.657,155.717c1.313,4.241,2.632,8.525,2.996,12.951c0.363,4.425-0.305,9.066-2.708,12.8
	c-4.604,7.148-14.044,9.169-22.517,9.875c-20.464,1.706-41.028-0.577-61.564-0.758c-2.775-0.024-6.286,0.515-7.02,3.192
	c-0.41,1.494,0.291,3.039,0.869,4.479c3.654,9.118,2.715,19.389,0.993,29.063c-1.72,9.672-4.168,19.395-3.341,29.185
	c0.102,1.188,0.203,2.525-0.577,3.426c-0.506,0.585-1.28,0.847-2.018,1.083c-2.043,0.659-4.086,1.317-6.128,1.977
	c-2.203-24.458-3.711-48.979-4.521-73.521c-0.102-3.093-0.188-6.238,0.602-9.229c0.786-2.993,2.581-5.867,5.357-7.233
	c1.735-0.854,6.269-1.935,8.179-2.251c25.593-4.258,41.259-5.415,58.782-8.234c6.001-0.967,12.755-3.053,15.259-8.59"/>
<path fill="#ECAB95" d="M377.311,154.253c-3.682-0.319-7.968-0.989-11.65-1.312c-6.788-0.592-12.788-0.316-19.601-0.558
	c-1.865-0.067-4.671,0.097-6.534,0.224c-4.846,0.328-8.671,1.789-13.313,3.222c-0.979,0.301-2.147,1.047-2.746,1.879
	c-0.604,0.836-0.65,2.038-1.434,2.711c0.455,0.284,1.062-0.043,1.395-0.463c0.333-0.423,0.545-0.95,0.972-1.276
	c0.402-0.305,2.522-0.932,3.022-0.996c2.39-0.313,3.182-0.072,5.571-0.386c0.738-0.098,1.494-0.192,2.228-0.057
	c1.728,0.321,2.949,0.896,4.902,0.524c0.654-0.123,1.522-0.486,2.061-0.878c1.81-1.316,3.883-0.071,5.999,0.651
	c1.823,0.623,3.717,1.015,5.604,1.407c3.402,0.704,6.804,1.411,10.203,2.114c5.146,1.068,10.326,2.14,15.578,2.273"/>
<path fill="#FCB116" d="M404.036,96.11c-3.39,5.772-9.321,9.983-15.89,11.276c-0.704,0.138-1.449,0.26-2.015,0.705
	c-0.487,0.385-0.776,0.962-1.049,1.521l-3.211,6.559c-1.158,2.371-2.338,4.805-2.604,7.431c-0.487,4.82,2.127,9.323,3.771,13.881
	c2.484,6.901,2.771,14.576,0.809,21.645c-0.148,0.538-0.29,1.181,0.08,1.601c0.143,0.162,0.344,0.264,0.538,0.355
	c4.419,2.105,9.293,3.031,14.102,3.936c3.806,0.718,7.669,1.438,11.528,1.119c2.454-0.201,4.874-0.826,7.119-1.84
	c-0.313-1.521-1.371-2.762-2.273-4.029c-5.234-7.362-5.681-17.369-2.936-25.976c1.042-3.262,2.506-6.411,3.095-9.785
	c0.896-5.152-0.339-10.492-2.54-15.235c-2.204-4.743-5.337-8.98-8.448-13.184"/>
<path fill="#EE9022" d="M380.545,152.895c-1.813,0.468-3.544-1.347-5.404-1.143c-0.12,0.014-0.244,0.038-0.334,0.117
	c-0.146,0.129-0.152,0.35-0.146,0.545c0.085,3.561-0.208,7.131-0.873,10.631c-0.021,0.104-0.039,0.221,0.01,0.314
	c0.067,0.138,0.239,0.178,0.393,0.201c1.863,0.303,3.747,0.469,5.635,0.496"/>
<path fill="#FCB116" d="M376.368,153.068c-0.614,0.082-0.963,0.938-0.575,1.427c0.388,0.485,1.301,0.341,1.518-0.242
	s-0.382-1.29-0.993-1.173"/>
<path fill="#F9A01B" d="M402.104,102.51c-3.153,1.211-5.484,4.05-6.739,7.188c-1.257,3.137-1.561,6.569-1.641,9.946
	c-0.104,4.322,0.141,8.648-0.026,12.968c-0.121,3.133-0.474,6.322-1.771,9.175c-1.641,3.602-4.795,6.482-8.529,7.79
	c-0.954,0.335-1.977,0.588-2.74,1.251c-1.76,1.524-1.335,4.28-1.266,6.61c0.063,2.141-0.313,4.293-1.097,6.287
	c-0.235,0.602-0.517,1.241-0.354,1.867c0.119,0.465,0.464,0.836,0.804,1.176c5.246,5.223,12.628,8.229,20.031,8.157
	c4.234-0.039,8.537-1.093,12.013-3.512c4.173-2.903,6.875-7.577,8.214-12.479c1.338-4.901,1.426-10.06,1.222-15.138
	c-0.357-8.833-1.579-17.631-3.641-26.226c-0.734-3.053-1.597-6.136-3.31-8.77c-1.75-2.692-4.366-4.812-7.362-5.966
	c-1.307-0.503-2.801-0.818-4.086-0.262"/>
<path fill="#EE9022" d="M383.034,160.436c2.925,0.168,5.895,0.332,8.748-0.323c5.445-1.253,9.905-5.456,12.428-10.442
	c2.521-4.986,3.298-10.692,3.3-16.28c0-1.23-0.037-2.465,0.074-3.691c0.907,0.07,1.37,1.103,1.621,1.978
	c1.791,6.241,2.563,12.771,2.279,19.255c-0.099,2.217-0.319,4.444-0.946,6.571c-0.54,1.841-1.408,3.631-2.808,4.944
	c-0.9,0.844-1.986,1.462-3.099,1.998c-2.438,1.172-5.095,1.986-7.798,1.947c-5.014-0.072-9.476-3.007-13.617-5.832"/>
<path fill="#EE9022" d="M388.3,152.357c3.639-1.492,6.329-4.743,7.976-8.313c1.646-3.572,2.372-7.486,3.086-11.355
	c0.377,0.349,0.47,0.904,0.539,1.416c0.329,2.424,0.661,4.865,0.488,7.303c-0.175,2.44-0.892,4.905-2.445,6.792
	C395.699,150.918,391.821,152.504,388.3,152.357"/>
<path fill="#ECAB95" d="M386.052,59.901c-1.772,1.359-3.57,2.742-4.907,4.532s-2.175,4.074-1.761,6.269
	c0.176,0.929,0.569,1.835,0.499,2.777c-0.115,1.579-1.232,2.837-2.434,3.987c-0.426,0.408-0.771,0.978-0.426,1.455
	c0.277,0.382,0.936,0.571,1.286,0.888c0.309,0.277,0.396,0.717,0.47,1.125c0.437,2.469,0.871,4.937,1.309,7.405
	c0.081,0.461,0.168,0.938,0.436,1.323c0.794,1.152,2.545,0.842,3.875,0.404l4.938-1.624c2.276-0.75,4.572-1.507,6.647-2.709
	c2.074-1.201,3.938-2.896,4.926-5.081c0.433-0.956,0.688-1.982,0.899-3.009c0.628-3.031,0.897-6.218,0.057-9.196
	c-0.843-2.979-2.957-5.729-5.896-6.696"/>
<path fill="#F04D23" d="M379.509,84.019c0.755-0.052,1.294-0.28,1.88-0.758c0.262-0.213,0.567-0.563,0.676-0.911
	c-0.5,0.181-1.063,0.302-1.611,0.302c-0.549,0-1.004-0.051-1.375-0.026l0.246,1.393H379.509z"/>
<path fill="#29303A" d="M380.651,73.335c1.863,0.443,3.994,0.045,4.881-1.831c0.193-0.408-0.416-0.768-0.609-0.356
	c-0.752,1.585-2.512,1.879-4.081,1.506C380.398,72.548,380.209,73.229,380.651,73.335"/>
<path fill="#29303A" d="M380.482,70.004c1.473-1.107,3.484-2.197,5.368-1.565c0.436,0.146,0.619-0.538,0.188-0.682
	c-2.067-0.694-4.29,0.416-5.915,1.636C379.766,69.664,380.116,70.277,380.482,70.004"/>
<g opacity="0.42">
	<g>
		<g>
			<defs>
				<rect id="SVGID_65_" x="384.922" y="75.949" width="4.394" height="4.395"/>
			</defs>
			<clipPath id="SVGID_66_">
				<use xlink:href="#SVGID_65_"  overflow="visible"/>
			</clipPath>
			<path clip-path="url(#SVGID_66_)" fill="#F04D23" d="M389.315,78.147c0,1.214-0.984,2.198-2.198,2.198
				c-1.212,0-2.196-0.984-2.196-2.198s0.984-2.198,2.196-2.198C388.33,75.949,389.315,76.933,389.315,78.147"/>
		</g>
	</g>
</g>
<path fill="#0B3B57" d="M400.343,59.371c0.081-4.091,1.45-8.166,3.96-11.398c2.509-3.233,6.16-5.586,10.17-6.408
	c1.762-0.362,3.622-0.429,5.34,0.11c3.735,1.172,6.146,5.18,6.131,9.095s-2.124,7.611-5.012,10.253
	c-2.889,2.643-6.502,4.353-10.164,5.735"/>
<path fill="#0B3B57" d="M392.834,73.585c1.352,0.227,2.447,1.309,2.997,2.565c0.55,1.256,0.628,2.668,0.571,4.037
	c-0.115,2.778-0.75,5.507-1.226,8.246c-0.477,2.74-0.791,5.561-0.271,8.292c0.521,2.734,1.981,5.396,4.375,6.811
	c-1.507-1.774-2.336-4.067-2.529-6.386s0.226-4.663,1.006-6.856c0.342-0.964,0.753-1.903,1.121-2.859
	c1.32-3.428,2.081-7.219,1.183-10.782c-0.244-0.965-0.617-1.917-1.263-2.675c-1.029-1.206-2.625-1.775-4.188-2.044"/>
<path fill="#0B3B57" d="M382.32,63.116c0.819,5.012,3.885,9.548,8.542,11.573c0.524,0.228,1.079,0.428,1.647,0.391
	c0.487-0.033,0.946-0.239,1.429-0.332c1.978-0.379,3.864,1.309,4.488,3.225c0.623,1.915,0.333,3.989,0.146,5.994
	c-0.293,3.163-0.292,6.447,0.886,9.396c2.307,5.778,8.64,9.198,10.936,14.979c0.999,2.509,1.148,5.277,1.986,7.844
	c1.974,6.062,7.958,10.495,14.315,10.96c6.357,0.466,12.77-2.878,16.328-8.167c1.365-2.027,2.334-4.296,3.132-6.607
	c0.808-2.336,1.449-4.762,1.494-7.232c0.132-7.108-4.838-13.578-11.067-17.006c-5.079-2.798-11.227-4.115-15.028-8.494
	c-5.198-5.982-4.17-15.586-9.257-21.663c-4.653-5.561-13.188-6.357-20.06-4.045C387.769,55.434,383.344,58.515,382.32,63.116"/>
<path fill="#083C58" d="M432.697,122.213c-0.455-3.548-5.687-3.807-5.737,0c-0.242,18.241-6.248,37.137-18.365,51.073
	c-12.943,14.885-31.77,17.317-50.472,15.919c-1.811-0.137-2.722,1.183-2.749,2.592c-0.307,1.34,0.232,2.764,1.987,3.041
	c21.512,3.391,49.562,7.279,64.661-12.504C434.438,166.072,435.194,141.688,432.697,122.213"/>
<path fill="#0B3B57" d="M380.032,194.15c-16.58,26.988-22.435,58.349-27.88,89.097c-0.32,1.806,2.444,2.581,2.767,0.763
	c5.4-30.501,11.141-61.633,27.59-88.412C383.478,194.02,380.998,192.578,380.032,194.15"/>
<path fill="#0B3B57" d="M405.302,194.15c16.58,26.988,22.434,58.349,27.88,89.097c0.32,1.806-2.443,2.581-2.766,0.763
	c-5.402-30.501-11.141-61.633-27.592-88.412C401.858,194.02,404.337,192.578,405.302,194.15"/>
<path fill="#0C133B" d="M357.96,288.85c-11.547-36.821-23.093-73.646-34.639-110.47c-1.678-5.354-3.355-10.707-5.037-16.062
	c-0.604-1.936-3.376-1.103-2.764,0.852c11.545,36.823,23.092,73.646,34.638,110.471c1.68,5.354,3.355,10.707,5.035,16.063
	C355.801,291.636,358.573,290.803,357.96,288.85"/>
<path fill="#0C133B" d="M154.676,289.702c11.546-36.824,23.092-73.646,34.638-110.47c1.681-5.354,3.358-10.707,5.035-16.063
	c0.613-1.947-2.157-2.788-2.764-0.852c-11.545,36.822-23.091,73.646-34.638,110.471c-1.679,5.354-3.357,10.707-5.035,16.061
	C151.299,290.8,154.07,291.639,154.676,289.702"/>
<path fill="#0C133B" d="M353.656,164.118H154.827c-0.848,0-1.533-0.688-1.533-1.534s0.686-1.534,1.533-1.534h198.829
	c0.849,0,1.534,0.688,1.534,1.534S354.505,164.118,353.656,164.118"/>
</svg>
