<?xml version="1.0" encoding="utf-8"?>
<!-- Generator: Adobe Illustrator 16.0.0, SVG Export Plug-In . SVG Version: 6.00 Build 0)  -->
<!DOCTYPE svg PUBLIC "-//W3C//DTD SVG 1.1//EN" "http://www.w3.org/Graphics/SVG/1.1/DTD/svg11.dtd">
<svg version="1.1" id="Capa_1" xmlns="http://www.w3.org/2000/svg" xmlns:xlink="http://www.w3.org/1999/xlink" x="0px" y="0px"
	 width="600px" height="600px" viewBox="0 0 600 600" enable-background="new 0 0 600 600" xml:space="preserve">
<g>
	<rect x="416.129" y="9.677" fill="#E6E9ED" width="29.032" height="87.097"/>
	<rect x="416.129" y="174.193" fill="#E6E9ED" width="29.032" height="87.098"/>
	<path fill="#E6E9ED" d="M251.613,0C176.904,0,116.13,60.774,116.13,135.484v77.419h9.678c0-21.377,17.332-38.71,38.709-38.71
		v-19.354c30.978,0,60.697-12.311,82.606-34.22l4.49-4.49l4.49,4.49c21.91,21.909,51.62,34.22,82.606,34.22l0,0v19.354
		c21.378,0,38.71,17.333,38.71,38.71h9.679v-77.419C387.098,60.774,326.323,0,251.613,0z"/>
</g>
<g>
	<path fill="#003399" d="M551.613,125.807h-9.678V67.742C541.936,30.387,511.538,0,474.194,0h-67.742v106.452h58.063v19.354h-77.912
		c0.231,3.213,0.494,6.406,0.494,9.677v9.678h77.418v19.354h-58.063v106.452h67.742c37.345,0,67.741-30.387,67.741-67.742v-58.063
		h9.678c16.007,0,29.031,13.025,29.031,29.031v251.613H461.39l-19.856-49.646c-11.392-28.479-37.297-49.073-67.616-53.738
		L300,311.052v-4.79c17.807-10.336,32.041-26.129,40.325-45.136c25.916-0.871,46.771-22.095,46.771-48.224
		c0-23.36-16.654-42.909-38.71-47.409V145.16h-9.678c-28.616,0-55.528-11.148-75.764-31.374l-11.323-11.343l-11.352,11.332
		c-20.235,20.235-47.139,31.385-75.755,31.385h-9.677v20.333c-22.056,4.5-38.71,24.038-38.71,47.409
		c0,26.129,20.854,47.353,46.771,48.224c8.294,19.006,22.529,34.8,40.326,45.136v4.79l-73.916,11.37
		c-30.319,4.665-56.235,25.259-67.616,53.738l-19.858,49.646h-22.48V174.193c0-16.006,13.026-29.031,29.032-29.031h67.742v-9.678
		c0-3.271,0.261-6.464,0.493-9.677H48.387C21.706,125.807,0,147.513,0,174.193v280.646c0,26.681,21.706,48.387,48.387,48.387
		h203.226v21.203L116.13,553.461V600h367.74v-46.539l-135.483-29.032v-21.203h203.227c26.681,0,48.388-21.706,48.388-48.387V174.193
		C600,147.513,578.293,125.807,551.613,125.807z M522.58,203.226c0,26.681-21.706,48.387-48.387,48.387h-48.389v-67.741h58.064
		V87.097h-58.064V19.355h48.389c26.681,0,48.387,21.707,48.387,48.388V203.226z M348.387,222.581v-36.93
		c11.235,4.008,19.354,14.652,19.354,27.252c0,13.248-8.972,24.329-21.116,27.793C347.748,234.823,348.387,228.774,348.387,222.581z
		 M135.484,212.903c0-12.6,8.119-23.244,19.355-27.252v36.93c0,6.193,0.639,12.241,1.761,18.115
		C144.455,237.232,135.484,226.151,135.484,212.903z M329.032,335.1l41.932,6.455c23.595,3.629,43.742,19.646,52.597,41.797
		l16.984,42.455h-55.189l-8.119-40.606l-18.979,3.805l7.354,36.803H289.18l-4.472-35.769l44.323,8.864L329.032,335.1L329.032,335.1z
		 M280.645,317.07l-15.657,31.316h-26.749L222.58,317.07v-2.177c9.175,2.884,18.92,4.462,29.032,4.462
		c10.113,0,19.858-1.578,29.032-4.462L280.645,317.07L280.645,317.07z M240.803,367.741h21.629l7.259,58.064h-36.146
		L240.803,367.741z M309.677,332.118v43.172l-27.493-5.497l-1.248-10.017l14.894-29.787L309.677,332.118z M174.194,222.581v-58.433
		c29.062-2.187,56.158-14.187,77.419-34.394c21.252,20.216,48.358,32.216,77.42,34.394v58.433c0,42.687-34.732,77.419-77.42,77.419
		S174.194,265.268,174.194,222.581z M193.548,332.118l13.858-2.129l14.894,29.787l-1.248,10.017l-27.504,5.497V332.118z
		 M79.664,383.342c8.855-22.151,29.004-38.168,52.597-41.797l41.933-6.445v63.804l44.313-8.864l-4.471,35.769h-76.423l7.365-36.813
		L126,385.19l-8.129,40.616h-55.19L79.664,383.342z M135.484,569.118l116.129-24.881v36.407H135.484V569.118z M464.516,569.118
		v11.526H348.387v-36.416L464.516,569.118z M329.032,580.646h-58.064v-77.42h58.064V580.646z M551.613,483.87H48.387
		c-16.006,0-29.032-13.025-29.032-29.031v-9.679h561.29v9.679C580.645,470.845,567.619,483.87,551.613,483.87z"/>
	<circle fill="#003399" cx="300" cy="183.871" r="9.677"/>
	<circle fill="#003399" cx="203.226" cy="183.871" r="9.677"/>
	<path fill="#003399" d="M309.677,222.581h-19.354c0,21.349-17.361,38.71-38.71,38.71c-21.348,0-38.709-17.361-38.709-38.71h-19.355
		c0,32.021,26.042,58.063,58.064,58.063C283.635,280.645,309.677,254.603,309.677,222.581z"/>
</g>
</svg>
