<svg height="512" viewBox="0 0 512 512" width="512" xmlns="http://www.w3.org/2000/svg"><path d="m160 80h288v416h-288z" fill="#c6c5ca"/><path d="m264 384h80v112h-80z" fill="#787680"/><path d="m216 32h176v48h-176z" fill="#57565c"/><g fill="#ffda44"><path d="m272 288h64v64h-64z"/><path d="m184 288h64v64h-64z"/><path d="m360 288h64v64h-64z"/><path d="m272 200h64v64h-64z"/><path d="m184 200h64v64h-64z"/><path d="m360 200h64v64h-64z"/><path d="m272 112h64v64h-64z"/><path d="m184 112h64v64h-64z"/><path d="m360 112h64v64h-64z"/></g><path d="m136 376a48 48 0 1 1 -71.25-42 32 32 0 1 1 46.5 0 47.966 47.966 0 0 1 24.75 42z" fill="#91cc04"/><path d="m464 488h-8v-408a8 8 0 0 0 -8-8h-48v-40a8 8 0 0 0 -8-8h-176a8 8 0 0 0 -8 8v40h-48a8 8 0 0 0 -8 8v408h-56v-56.581a56 56 0 0 0 26.654-99.412 40 40 0 1 0 -69.308 0 56 56 0 0 0 26.654 99.412v17.268l-10.343-10.344a8 8 0 0 0 -11.314 11.314l20 20a8.015 8.015 0 0 0 1.657 1.262v17.081h-64a8 8 0 0 0 0 16h448a8 8 0 0 0 0-16zm-376-128a8 8 0 0 0 -8 8v47.2a40.007 40.007 0 0 1 -11.372-74.2 8 8 0 0 0 1.934-12.5 24 24 0 1 1 34.876 0 8 8 0 0 0 1.934 12.5 40.007 40.007 0 0 1 -11.372 74.2v-47.2a8 8 0 0 0 -8-8zm136-320h160v32h-160zm72 448h-24v-96h24zm40 0h-24v-96h24zm104 0h-88v-104a8 8 0 0 0 -8-8h-80a8 8 0 0 0 -8 8v104h-88v-400h272z"/><path d="m496 488h-8a8 8 0 0 0 0 16h8a8 8 0 0 0 0-16z"/><path d="m336 280h-64a8 8 0 0 0 -8 8v64a8 8 0 0 0 8 8h64a8 8 0 0 0 8-8v-64a8 8 0 0 0 -8-8zm-8 64h-48v-48h48z"/><path d="m248 280h-64a8 8 0 0 0 -8 8v64a8 8 0 0 0 8 8h64a8 8 0 0 0 8-8v-64a8 8 0 0 0 -8-8zm-8 64h-48v-48h48z"/><path d="m424 280h-64a8 8 0 0 0 -8 8v64a8 8 0 0 0 8 8h64a8 8 0 0 0 8-8v-64a8 8 0 0 0 -8-8zm-8 64h-48v-48h48z"/><path d="m336 192h-64a8 8 0 0 0 -8 8v64a8 8 0 0 0 8 8h64a8 8 0 0 0 8-8v-64a8 8 0 0 0 -8-8zm-8 64h-48v-48h48z"/><path d="m248 192h-64a8 8 0 0 0 -8 8v64a8 8 0 0 0 8 8h64a8 8 0 0 0 8-8v-64a8 8 0 0 0 -8-8zm-8 64h-48v-48h48z"/><path d="m424 192h-64a8 8 0 0 0 -8 8v64a8 8 0 0 0 8 8h64a8 8 0 0 0 8-8v-64a8 8 0 0 0 -8-8zm-8 64h-48v-48h48z"/><path d="m336 104h-64a8 8 0 0 0 -8 8v64a8 8 0 0 0 8 8h64a8 8 0 0 0 8-8v-64a8 8 0 0 0 -8-8zm-8 64h-48v-48h48z"/><path d="m248 104h-64a8 8 0 0 0 -8 8v64a8 8 0 0 0 8 8h64a8 8 0 0 0 8-8v-64a8 8 0 0 0 -8-8zm-8 64h-48v-48h48z"/><path d="m352 112v64a8 8 0 0 0 8 8h64a8 8 0 0 0 8-8v-64a8 8 0 0 0 -8-8h-64a8 8 0 0 0 -8 8zm16 8h48v48h-48z"/><path d="m96 336a8 8 0 0 0 -16 0v8a8 8 0 0 0 16 0z"/></svg>