<svg id="Layer_3" enable-background="new 0 0 64 64" height="512" viewBox="0 0 64 64" width="512" xmlns="http://www.w3.org/2000/svg"><g fill="#f0bc5e"><path d="m55 54v-28h-5v23c0 .552-.448 1-1 1h-40c-.552 0-1-.448-1-1v-28c0-.552.448-1 1-1h9c0-1.96.944-3.696 2.399-4.791l-.583-.169-11.816-.04c-2.757 0-5 2.243-5 5v34z"/><path d="m15 37h8v5h-8z"/><path d="m29 29h14v5h-14z"/></g><path d="m9 57h2v2h-2z"/><path d="m13 57h2v2h-2z"/><path d="m1 58c0 2.757 2.243 5 5 5h46c2.757 0 5-2.243 5-5v-5h-56zm34.719-3-.501 2h-12.437l-.501-2zm-32.719 0h17.22l.999 4h15.562l.999-4h17.22v3c0 1.654-1.346 3-3 3h-46c-1.654 0-3-1.346-3-3z"/><path d="m56.952 13.064c-.47-4.524-4.306-8.064-8.952-8.064-1.223 0-2.403.256-3.492.715-2.268-2.955-5.759-4.715-9.508-4.715-6.617 0-12 5.383-12 12 0 .027.004.052.005.079-3.061.439-5.484 2.861-5.925 5.921h-8.08c-1.103 0-2 .897-2 2v28c0 1.103.897 2 2 2h40c1.103 0 2-.897 2-2v-22h5c3.859 0 7-3.141 7-7 0-3.537-2.637-6.47-6.048-6.936zm-7.952 35.936h-40v-28h8.08c.488 3.386 3.401 6 6.92 6h1v6h-14v14h22v-8h14v-12h2zm-18-10v6h-18v-10h12v4zm-4-2v-10h18v10zm29-12h-32c-2.757 0-5-2.243-5-5 0-2.472 1.808-4.516 4.2-4.916.206 1.177.567 2.318 1.122 3.398l1.779-.914c-.731-1.422-1.101-2.959-1.101-4.568 0-5.514 4.486-10 10-10 3.028 0 5.857 1.376 7.749 3.703-.676.488-1.297 1.063-1.828 1.738l1.572 1.236c1.338-1.701 3.345-2.677 5.507-2.677 3.859 0 7 3.141 7 7v1h1c2.757 0 5 2.243 5 5s-2.243 5-5 5z"/><path d="m33.675 16h12.649v1.999h-12.649z" transform="matrix(.317 -.949 .949 .317 11.213 49.563)"/><path d="m43.359 12.769 5.079 4.231-5.079 4.231 1.282 1.538 6.921-5.769-6.921-5.769z"/><path d="m35.359 11.231-6.921 5.769 6.921 5.769 1.282-1.538-5.079-4.231 5.079-4.231z"/><path d="m29 29h14v2h-14z"/><path d="m29 33h14v2h-14z"/><path d="m15 37h8v2h-8z"/><path d="m15 41h14v2h-14z"/><path d="m11 29h2v2h-2z"/><path d="m13 25h2v-2h-4v4h2z"/></svg>