<svg id="Layer_1_1_" enable-background="new 0 0 64 64" height="512" viewBox="0 0 64 64" width="512" xmlns="http://www.w3.org/2000/svg"><path d="m40 52h-16c-2.209 0-4-1.791-4-4v-28c0-2.209 1.791-4 4-4h16c2.209 0 4 1.791 4 4v28c0 2.209-1.791 4-4 4z" fill="#d5dbdb"/><circle cx="32" cy="36" fill="#f82f45" r="2"/><path d="m47 33v2h-3v2h3v12c0 3.309-2.691 6-6 6h-18c-3.309 0-6-2.691-6-6v-12h3v-2h-3v-2h-2v16c0 4.411 3.589 8 8 8h8v3h-7v2h16v-2h-7v-3h8c4.411 0 8-3.589 8-8v-16z" fill="#2d366d"/><path d="m54.496 13c-2.569 0-3.646-2.872-4.689-5.649-.765-2.039-1.633-4.351-2.816-4.351-1.182 0-2.048 2.312-2.813 4.351-1.041 2.777-2.118 5.649-4.686 5.649s-3.645-2.871-4.687-5.648c-.765-2.04-1.632-4.352-2.815-4.352-1.182 0-2.048 2.312-2.813 4.352-1.041 2.776-2.118 5.648-4.686 5.648-2.567 0-3.644-2.872-4.685-5.649-.764-2.039-1.631-4.351-2.812-4.351s-2.048 2.312-2.812 4.351c-1.041 2.777-2.118 5.649-4.685 5.649s-3.644-2.872-4.685-5.649c-.764-2.039-1.631-4.351-2.812-4.351v-2c2.567 0 3.644 2.872 4.685 5.649.764 2.039 1.631 4.351 2.812 4.351s2.048-2.312 2.812-4.351c1.041-2.777 2.118-5.649 4.685-5.649s3.644 2.872 4.685 5.649c.764 2.039 1.631 4.351 2.812 4.351 1.182 0 2.048-2.312 2.813-4.352 1.042-2.776 2.118-5.648 4.686-5.648s3.646 2.872 4.688 5.649c.764 2.039 1.632 4.351 2.814 4.351s2.049-2.312 2.813-4.352c1.042-2.776 2.118-5.648 4.686-5.648 2.569 0 3.646 2.871 4.688 5.648.766 2.04 1.633 4.352 2.817 4.352 1.183 0 2.05-2.312 2.815-4.351 1.043-2.777 2.12-5.649 4.689-5.649v2c-1.184 0-2.051 2.312-2.816 4.352-1.042 2.777-2.12 5.648-4.688 5.648z" fill="#fda22e"/><g fill="#b9baba"><path d="m20 37h7v2h-7z"/><path d="m27 41h2v2h-2z"/><path d="m20 33h7v2h-7z"/><path d="m20 41h5v2h-5z"/><path d="m27 49h2v3h-2z"/><path d="m23 49v2.859c.321.083.653.141 1 .141h1v-3z"/><path d="m35 16h2v7h-2z"/><path d="m41 23v-6.859c-.321-.083-.653-.141-1-.141h-1v7z"/><path d="m23 23h2v-7h-1c-.347 0-.679.058-1 .141z"/><path d="m31 16h2v7h-2z"/><path d="m27 16h2v7h-2z"/><path d="m20 45h24v2h-24z"/><path d="m39 41h5v2h-5z"/><path d="m37 33h7v2h-7z"/><path d="m37 37h7v2h-7z"/><path d="m20 29h24v2h-24z"/><path d="m20 25h24v2h-24z"/><path d="m41 49h-2v3h1c.347 0 .679-.058 1-.141z"/><path d="m35 49h2v3h-2z"/><path d="m31 49h2v3h-2z"/><path d="m35 41h2v2h-2z"/><path d="m31 41h2v2h-2z"/></g></svg>