<?xml version="1.0" encoding="utf-8"?>
<!-- Generator: Adobe Illustrator 16.0.0, SVG Export Plug-In . SVG Version: 6.00 Build 0)  -->
<!DOCTYPE svg PUBLIC "-//W3C//DTD SVG 1.1//EN" "http://www.w3.org/Graphics/SVG/1.1/DTD/svg11.dtd">
<svg version="1.1" id="Capa_1" xmlns="http://www.w3.org/2000/svg" xmlns:xlink="http://www.w3.org/1999/xlink" x="0px" y="0px"
	 width="600px" height="600px" viewBox="0 0 600 600" enable-background="new 0 0 600 600" xml:space="preserve">
<path fill="#E6E9ED" d="M512.497,475v37.5H375l-12.503,24.998H237.5L225,512.5H87.5V475V187.5h425L512.497,475L512.497,475z"/>
<path fill="#E6E9ED" d="M562.5,475v37.5h-50.003v-325H87.5v325h-50v-350c0.041-13.79,11.21-24.958,24.999-25h474.998
	c13.789,0.041,24.959,11.21,25,25V475H562.5z"/>
<path fill="#E6E9ED" d="M587.497,512.5v62.498c0,6.903-5.597,12.502-12.5,12.502H24.999c-6.903,0-12.5-5.599-12.5-12.502V512.5H225
	l12.5,24.998h125L375,512.5H587.497z"/>
<circle fill="#E6E9ED" cx="412.5" cy="187.5" r="175"/>
<path fill="#003399" d="M587.497,500H375c-4.738-0.003-9.068,2.675-11.188,6.912L354.775,525H245.224l-8.975-18.089
	c-2.129-4.259-6.49-6.938-11.25-6.913H12.5C5.597,500,0,505.596,0,512.5v62.498C0,588.808,11.193,600,24.999,600h549.999
	c13.808,0,25-11.192,25-25v-62.5C600,505.596,594.403,500,587.497,500z M575,575H24.999v-50h192.273l9.038,18.088
	c2.117,4.237,6.45,6.915,11.188,6.913h124.999c4.737,0.002,9.067-2.676,11.188-6.913L382.725,525H575V575z"/>
<path fill="#003399" d="M50,162.5c0-6.904,5.597-12.5,12.501-12.5H200v-25H62.499c-20.71,0-37.5,16.79-37.5,37.5V475h25L50,162.5
	L50,162.5z"/>
<path fill="#003399" d="M549.997,350h25v125.001h-25V350z"/>
<path fill="#003399" d="M500,387.5h25v87.501h-25V387.5z"/>
<path fill="#003399" d="M200,175H87.5c-6.903,0-12.5,5.597-12.5,12.5V475h24.999V200h100L200,175L200,175z"/>
<path fill="#003399" d="M125,237.5V275h25v-25h24.999v-25h-37.5C130.596,225,125,230.597,125,237.5z"/>
<path fill="#003399" d="M50,537.5h25v25H50V537.5z"/>
<path fill="#003399" d="M525,537.5h24.997v25H525V537.5z"/>
<path fill="#003399" d="M412.5,375C516.054,375,600,291.054,600,187.5C600,83.946,516.054,0,412.5,0S225,83.946,225,187.5
	C225.117,291.005,308.993,374.883,412.5,375z M412.5,25C502.243,25,575,97.753,575,187.5S502.243,350,412.5,350
	c-89.746,0-162.501-72.754-162.501-162.5C250.104,97.796,322.796,25.104,412.5,25z"/>
<path fill="#003399" d="M353.66,246.337l17.678-17.675L330.174,187.5l41.162-41.162l-17.677-17.675l-50.001,50
	c-4.879,4.881-4.879,12.793,0,17.675L353.66,246.337z"/>
<path fill="#003399" d="M471.337,246.337l50.001-50c4.879-4.881,4.879-12.793,0-17.675l-50.001-50l-17.677,17.676l41.163,41.163
	l-41.162,41.162L471.337,246.337z"/>
</svg>
