<svg height="512pt" viewBox="0 -1 512.001 512" width="512pt" xmlns="http://www.w3.org/2000/svg"><path d="m142.480469 68.023438v4.121093h267.734375c15.101562 0 27.457031 12.351563 27.457031 27.453125v340.132813h46.875c15.097656 0 27.453125-12.355469 27.453125-27.453125v-344.253906c-12.976562 0-341.484375 0-369.519531 0zm0 0" fill="#b4dbff"/><path d="m142.480469 72.144531h267.734375c15.101562 0 27.457031 12.351563 27.457031 27.453125v340.132813h32.964844v-342.191407c0-10.765624-2.941407-20.851562-8.042969-29.515624-95.824219 0-298.367188 0-320.113281 0zm0 0" fill="#8bcaff"/><path d="m0 138.105469v344.253906c0 15.097656 12.355469 27.453125 27.453125 27.453125h384.820313c15.101562 0 27.453124-12.355469 27.453124-27.453125v-344.253906zm0 0" fill="#d9edff"/><path d="m30.136719 482.359375v-344.253906h-30.136719v344.253906c0 15.097656 12.355469 27.453125 27.453125 27.453125h30.136719c-15.101563 0-27.453125-12.355469-27.453125-27.453125zm0 0" fill="#b4dbff"/><path d="m484.546875 0h-342.066406v70.082031h369.519531v-42.625c0-15.101562-12.355469-27.457031-27.453125-27.457031zm0 0" fill="#4f66d1"/><path d="m463.757812 70.082031c-9.839843-18.375-29.222656-30.90625-51.484374-30.90625h-269.792969v30.90625zm0 0" fill="#314dca"/><path d="m412.273438 70.082031h-342.0625v70.082031h369.519531v-42.625c0-15.101562-12.355469-27.457031-27.457031-27.457031zm0 0" fill="#6c7fd9"/><path d="m477.179688 42.769531h-21.589844c-4.269532 0-7.730469-3.460937-7.730469-7.726562 0-4.269531 3.460937-7.726563 7.730469-7.726563h21.589844c4.269531 0 7.726562 3.457032 7.726562 7.726563 0 4.265625-3.457031 7.726562-7.726562 7.726562zm0 0" fill="#314dca"/><path d="m404.910156 112.851562h-21.59375c-4.265625 0-7.726562-3.460937-7.726562-7.726562 0-4.269531 3.460937-7.726562 7.726562-7.726562h21.59375c4.265625 0 7.726563 3.457031 7.726563 7.726562 0 4.265625-3.457031 7.726562-7.726563 7.726562zm0 0" fill="#4f66d1"/><path d="m144.539062 0h-44.8125c-15.101562 0-27.457031 12.355469-27.457031 27.453125v42.628906h72.269531zm0 0" fill="#ff4755"/><path d="m112.421875 39.175781c-5.105469 0-9.242187-4.136719-9.242187-9.242187v-2.476563c0-15.101562 12.351562-27.457031 27.453124-27.457031h-30.90625c-15.101562 0-27.457031 12.355469-27.457031 27.457031v42.625h72.269531v-30.90625zm0 0" fill="#fc2b3a"/><path d="m72.269531 70.082031h-44.816406c-15.097656 0-27.453125 12.355469-27.453125 27.457031v42.625h72.269531zm0 0" fill="#ff646f"/><path d="m57.589844 70.082031h-30.136719c-15.097656 0-27.453125 12.355469-27.453125 27.457031v42.625h30.136719v-42.625c0-15.101562 12.351562-27.457031 27.453125-27.457031zm0 0" fill="#ff4755"/><path d="m273.808594 365.683594c-4.359375-5.953125-3.066406-14.3125 2.886718-18.671875l42.402344-31.039063-42.402344-31.042968c-5.953124-4.359376-7.246093-12.71875-2.886718-18.671876 4.355468-5.949218 12.714844-7.246093 18.667968-2.886718l57.125 41.824218c7.285157 5.332032 7.285157 16.226563 0 21.554688l-57.125 41.820312c-5.953124 4.359376-14.3125 3.066407-18.667968-2.886718zm0 0" fill="#6c7fd9"/><path d="m147.253906 368.570312-57.125-41.820312c-7.285156-5.332031-7.285156-16.226562 0-21.554688l57.125-41.820312c5.953125-4.359375 14.308594-3.066406 18.667969 2.886719s3.066406 14.3125-2.886719 18.667969l-42.402344 31.042968 42.402344 31.039063c5.953125 4.359375 7.246094 12.71875 2.886719 18.671875-4.355469 5.949218-12.714844 7.25-18.667969 2.886718zm0 0" fill="#6c7fd9"/><path d="m179.882812 395.191406c-6.617187-3.265625-9.332031-11.273437-6.070312-17.890625l66.34375-134.476562c3.265625-6.617188 11.273438-9.335938 17.890625-6.070313 6.617187 3.261719 9.335937 11.273438 6.070313 17.890625l-66.34375 134.476563c-3.261719 6.617187-11.273438 9.335937-17.890626 6.070312zm0 0" fill="#6c7fd9"/><g fill="#4f66d1"><path d="m293.238281 365.480469c-4.238281-6.015625-2.546875-14.382813 3.390625-18.730469l37.457032-27.421875c2.269531-1.664063 2.269531-5.050781 0-6.710937l-37.457032-27.425782c-5.9375-4.34375-7.628906-12.714844-3.394531-18.726562.402344-.570313.851563-1.085938 1.320313-1.574219l-2.078126-1.519531c-5.953124-4.359375-14.3125-3.0625-18.667968 2.886718-4.359375 5.953126-3.066406 14.3125 2.886718 18.671876l42.402344 31.039062-42.402344 31.042969c-5.953124 4.359375-7.246093 12.71875-2.886718 18.671875 4.355468 5.953125 12.714844 7.246094 18.667968 2.886718l2.078126-1.519531c-.46875-.484375-.917969-1-1.316407-1.570312zm0 0"/><path d="m109.699219 326.75c-7.285157-5.332031-7.28125-16.226562 0-21.554688l55.054687-40.304687c-4.566406-4.746094-12.042968-5.515625-17.503906-1.515625l-57.125 41.820312c-7.28125 5.332032-7.285156 16.222657 0 21.554688l57.125 41.820312c5.464844 4 12.9375 3.226563 17.503906-1.515624zm0 0"/><path d="m193.386719 377.300781 66.34375-134.476562c.585937-1.191407 1.332031-2.246094 2.1875-3.171875-1.074219-1.160156-2.367188-2.15625-3.871094-2.898438-6.617187-3.265625-14.625-.546875-17.890625 6.070313l-66.34375 134.476562c-3.261719 6.617188-.546875 14.625 6.070312 17.890625 5.429688 2.675782 11.789063 1.324219 15.703126-2.898437-3.660157-3.945313-4.71875-9.878907-2.199219-14.992188zm0 0"/></g></svg>