<?xml version="1.0" encoding="utf-8"?>
<!-- Generator: Adobe Illustrator 16.0.0, SVG Export Plug-In . SVG Version: 6.00 Build 0)  -->
<!DOCTYPE svg PUBLIC "-//W3C//DTD SVG 1.1//EN" "http://www.w3.org/Graphics/SVG/1.1/DTD/svg11.dtd">
<svg version="1.1" id="Layer_1" xmlns="http://www.w3.org/2000/svg" xmlns:xlink="http://www.w3.org/1999/xlink" x="0px" y="0px"
	 width="786px" height="1870px" viewBox="0 0 786 1870" enable-background="new 0 0 786 1870" xml:space="preserve">
<path fill-rule="evenodd" clip-rule="evenodd" fill="#FEF6F6" d="M0,1828C0,1256,0,684,0,112c3.341-2.714,7.534-2.571,11.414-3.093
	c20.119-2.707,39.342-8.649,58.285-15.674c29.112-10.796,56.662-25.076,84.802-38.037c30.186-13.902,60.954-26.214,93.655-32.834
	c25.896-5.242,52.037-6.999,78.491-4.985c26.049,1.983,51.522,6.748,76.44,14.325c28.933,8.798,56.611,20.632,83.06,35.399
	c25.402,14.185,49.189,30.684,71.675,49.062c20.026,16.368,38.237,34.663,55.71,53.714c20.344,22.181,38.172,46.269,53.863,71.887
	c16.921,27.624,31.201,56.551,41.988,87.206c9.941,28.253,17.089,57.17,21.341,86.738c2.912,20.259,4.4,40.739,3.573,61.249
	c-1.335,33.086-6.036,65.685-16.525,97.191c-8.562,25.718-20.521,49.831-35.427,72.544c-19.92,30.352-43.903,57.366-67.882,84.434
	c-24.089,27.19-47.882,54.652-68.02,85.003c-17.842,26.892-32.846,55.292-43.962,85.628c-8.234,22.473-13.346,45.743-15.855,69.521
	c-2.832,26.84-0.768,53.536,3.595,80.077c5.464,33.234,14.09,65.797,21.165,98.689c5.781,26.877,10.282,53.935,12.177,81.448
	c3.521,51.093-2.369,101.06-16.162,150.247c-11.156,39.786-26.537,77.9-45.55,114.532c-23.575,45.425-52.015,87.598-85.089,126.7
	c-16.715,19.761-34.623,38.381-53.507,55.959c-30.308,28.213-63.278,53.037-98.733,74.584
	c-37.218,22.619-76.519,40.536-117.917,53.892c-32.115,10.359-64.989,17.424-98.446,21.758C5.412,1829.52,2.479,1830.042,0,1828z"/>
</svg>
