<svg id="Layer_5" enable-background="new 0 0 64 64" height="512" viewBox="0 0 64 64" width="512" xmlns="http://www.w3.org/2000/svg"><path d="m48 58v-18h-21-25v18c0 2.21 1.79 4 4 4h17 29c-2.21 0-4-1.79-4-4z" fill="#ff826e"/><path d="m16.2 33.6 1.8 2.4h26c2.21 0 4 1.79 4 4h-21-25v-4c0-2.21 1.79-4 4-4h4 3c1.26 0 2.44.59 3.2 1.6z" fill="#fc6e51"/><path d="m56 24.39v33.61c0 1.1-.45 2.1-1.17 2.83-.73.72-1.73 1.17-2.83 1.17-2.21 0-4-1.79-4-4v-18c0-2.21-1.79-4-4-4h-26l-1.8-2.4c-.76-1.01-1.94-1.6-3.2-1.6h-3v-18h15l2-2h11v5l2.71.68c.04.1.07.2.12.3l-1.44 2.38 4.25 4.25 2.38-1.44c.1.05.2.08.3.12l.68 2.71h6l.68-2.71c.1-.04.2-.07.3-.12z" fill="#e6e9ed"/><path d="m10 14v-8h31.03l-1.64 1.64 1.44 2.38c-.05.1-.08.2-.12.3l-2.71.68v1h-11l-2 2z" fill="#5cd6b3"/><path d="m50 8c3.31 0 6 2.69 6 6s-2.69 6-6 6-6-2.69-6-6 2.69-6 6-6zm2 6c0-1.1-.9-2-2-2s-2 .9-2 2 .9 2 2 2 2-.9 2-2z" fill="#fcd770"/><path d="m62 11v6l-2.71.68c-.04.1-.07.2-.12.3l1.44 2.38-4.25 4.25-.36-.22-2.02-1.22c-.1.05-.2.08-.3.12l-.68 2.71h-6l-.68-2.71c-.1-.04-.2-.07-.3-.12l-2.38 1.44-4.25-4.25 1.44-2.38c-.05-.1-.08-.2-.12-.3l-2.71-.68v-5-1l2.71-.68c.04-.1.07-.2.12-.3l-1.44-2.38 1.64-1.64 2.61-2.61 2.38 1.44c.1-.05.2-.08.3-.12l.68-2.71h6l.68 2.71c.1.04.2.07.3.12l2.38-1.44 4.25 4.25-1.44 2.38c.05.1.08.2.12.3zm-6 3c0-3.31-2.69-6-6-6s-6 2.69-6 6 2.69 6 6 6 6-2.69 6-6z" fill="#ffc729"/><path d="m13 9h2v2h-2z"/><path d="m21 9h2v2h-2z"/><path d="m17 9h2v2h-2z"/><path d="m63 10.219-2.416-.603 1.281-2.136-5.347-5.346-2.134 1.281-.603-2.415h-7.562l-.603 2.416-2.134-1.281-2.867 2.865h-31.615v26h-3c-2.757 0-5 2.243-5 5v22c0 2.757 2.243 5 5 5h46c2.757 0 5-2.243 5-5v-32.616l4.866-4.864-1.281-2.136 2.415-.603zm-24.385-3.219-.481.48 1.281 2.136-2.415.603v.781h-10.414l-2 2h-13.586v-6zm-32.615 26h7c.939 0 1.837.448 2.4 1.199l2.1 2.801h26.5c1.302 0 2.402.839 2.816 2h-43.816v-3c0-1.654 1.346-3 3-3zm0 28c-1.654 0-3-1.346-3-3v-17h44v17c0 1.125.374 2.164 1.002 3zm46 0c-1.654 0-3-1.346-3-3v-18c0-2.757-2.243-5-5-5h-25.5l-1.5-2.001c-.939-1.252-2.435-1.999-4-1.999h-2v-16h14.414l2-2h9.586v4.781l2.416.603-1.281 2.136 5.347 5.346 2.134-1.281.603 2.415h7.562l.603-2.416.616.37v33.046c0 1.654-1.346 3-3 3zm9-44.781-1.949.487-.534.205-.466 1.139 1.296 2.159-3.138 3.139-2.158-1.296-1.22.496-.612 2.452h-4.438l-.487-1.949-.203-.535-1.142-.464-2.158 1.296-3.138-3.139 1.296-2.159-.503-1.22-2.446-.611v-4.438l2.446-.611.503-1.22-1.296-2.159 3.138-3.139 2.158 1.296 1.22-.496.612-2.452h4.438l.487 1.949.203.535 1.142.464 2.158-1.296 3.138 3.139-1.296 2.159.503 1.22 2.446.611z"/><path d="m50 7c-3.86 0-7 3.141-7 7s3.14 7 7 7 7-3.141 7-7-3.14-7-7-7zm0 12c-2.757 0-5-2.243-5-5s2.243-5 5-5 5 2.243 5 5-2.243 5-5 5z"/><path d="m13 35h2v2h-2z"/><path d="m9 35h2v2h-2z"/><path d="m5 35h2v2h-2z"/><path d="m17.4 17.2-5.067 3.8 5.067 3.8 1.2-1.6-2.933-2.2 2.933-2.2z"/><path d="m38.4 26.8 2.933 2.2-2.933 2.2 1.2 1.6 5.067-3.8-5.067-3.8z"/><path d="m21 17h14v2h-14z"/><path d="m21 21h14v2h-14z"/><path d="m21 25h14v2h-14z"/><path d="m21 29h10v2h-10z"/><path d="m33 29h2v2h-2z"/><path d="m28.36 46.769 5.078 4.231-5.078 4.231 1.28 1.538 6.922-5.769-6.922-5.769z"/><path d="m20.36 45.231-6.922 5.769 6.922 5.769 1.28-1.538-5.078-4.231 5.078-4.231z"/><path d="m16.754 50h16.492v2h-16.492z" transform="matrix(.242 -.97 .97 .242 -30.536 62.904)"/><path d="m5 51h2v2h-2z"/><path d="m5 43h2v2h-2z"/><path d="m5 47h2v2h-2z"/><path d="m43 57h2v2h-2z"/><path d="m43 49h2v2h-2z"/><path d="m43 53h2v2h-2z"/><path d="m51 53h2v2h-2z"/><path d="m51 49h2v2h-2z"/><path d="m51 57h2v2h-2z"/><path d="m50 11c-1.654 0-3 1.346-3 3s1.346 3 3 3 3-1.346 3-3-1.346-3-3-3zm0 4c-.551 0-1-.448-1-1s.449-1 1-1 1 .448 1 1-.449 1-1 1z"/></svg>